<?xml version="1.0" encoding="utf-8"?>
<!-- Generator: Adobe Illustrator 21.0.0, SVG Export Plug-In . SVG Version: 6.00 Build 0)  -->
<svg version="1.1" id="图层_1" xmlns="http://www.w3.org/2000/svg" xmlns:xlink="http://www.w3.org/1999/xlink" x="0px" y="0px"
	 viewBox="0 0 88 88" style="enable-background:new 0 0 88 88;" xml:space="preserve">
<style type="text/css">
	.st0{fill:none;}
	.st1{opacity:0.3;}
	.st2{fill:#FF9C00;}
	.st3{fill:#FFFFFF;}
</style>
<g>
	<g>
		<path class="st0" d="M59,32.5C52,30.3,44.4,30.7,41.4,31c-0.8,0.1-1.6,0.2-2.3,0.5c-11.1,3.9-18,1.4-21-0.2
			c-0.9,4.3,1.4,7.3,2.6,8.4c0.7,0.7,0.8,1.8,0.3,2.6c-3.5,5.4-9.5,7.7-12.3,8.5v10.3c0.9,1,3.9,3.9,7.8,6.5
			c0.1-0.1,0.3-0.2,0.4-0.2c1.3-0.4,3.5-1.5,5.1-4.3c0.3-0.6,1.1-0.8,1.7-0.6l0.1,0c0.7,0.3,1,1.2,0.6,1.8c-1.5,2.7-3.5,4.1-5.1,4.9
			c2.4,1.3,5,2.3,7.5,2.5L28,72v9.6h10v-6.2h14.8v6.2H63v-6.1l0.6-0.4c11.7-8.2,10-25.9,9.9-26.4C72.4,40.6,67.5,35.2,59,32.5z"/>
		<path class="st1" d="M80.7,45.5c-0.5,0-1,0.3-1.3,0.7c-0.2,0.3-0.4,0.6-0.7,0.8c-0.8,0.5-1.9,0.5-2.7,0.4
			c-1.4-8.6-7-14.7-16.2-17.6c-7.5-2.4-15.5-2-18.6-1.7c-1,0.1-2,0.3-3,0.6c-12.2,4.3-18.7,0.2-19.8-0.7c-0.1-0.1-0.2-0.1-0.3-0.2
			c-1-0.4-2,0.1-2.2,1c-2.1,6.1,1.1,10.5,2.5,12.1c-3.3,4.7-9.1,6.7-10.8,7.1c-1,0.3-1.7,1.2-1.7,2.2v10.6c0,0.7,0.3,1.3,0.7,1.8
			c2.3,2.3,9.9,9.7,18.1,11.3c0.3,0.1,0.5,0.3,0.5,0.6v8.5c0,0.5,0.4,0.9,0.9,0.9h13.5c0.5,0,0.9-0.4,0.9-0.9v-4.4
			c0-0.5,0.4-0.9,0.9-0.9h7.8c0.5,0,0.9,0.4,0.9,0.9v4.4c0,0.5,0.4,0.9,0.9,0.9h13.7c0.5,0,0.9-0.4,0.9-0.9l0-5.9
			c0-0.3,0.2-0.7,0.4-0.9c4.9-3.9,8.2-9.8,9.5-17.3c0.7-3.8,0.7-7.1,0.6-9c0.1,0,0.3,0,0.5,0c1.1,0,2.3-0.2,3.4-0.9
			c0.7-0.5,1.3-1.1,1.7-1.9C82.3,46.7,81.7,45.6,80.7,45.5z M63.5,75.1l-0.1,0.1c-0.3,0.2-0.5,0.5-0.5,0.9v4.6
			c0,0.5-0.4,0.9-0.9,0.9h-8.3c-0.5,0-0.9-0.4-0.9-0.9v-4c0-0.7-0.6-1.2-1.2-1.2H39.2c-0.7,0-1.2,0.6-1.2,1.2v4
			c0,0.5-0.4,0.9-0.9,0.9h-8.2c-0.5,0-0.9-0.4-0.9-0.9v-7.5c0-0.7-0.5-1.3-1.2-1.3l0,0c-2.4-0.2-4.8-1.1-7.1-2.3
			c-0.2-0.1-0.2-0.3,0-0.4c1.5-0.8,3.3-2.3,4.7-4.7c0.4-0.7,0.1-1.5-0.6-1.9l-0.1,0c-0.6-0.3-1.3,0-1.7,0.6
			c-1.6,2.8-3.9,3.9-5.1,4.3c-0.2,0.1-0.3,0.1-0.4,0.2c-3.9-2.6-6.9-5.6-7.8-6.5V50.8c2.7-0.8,8.8-3.1,12.3-8.5
			c0.5-0.8,0.4-1.9-0.3-2.6c-1.1-1.1-3.4-4.1-2.6-8.4c3,1.7,9.9,4.1,21,0.2c0.8-0.3,1.5-0.4,2.3-0.5c2.9-0.3,10.5-0.6,17.6,1.6
			c8.5,2.7,13.3,8.1,14.4,16.2C73.5,49.2,75.2,66.9,63.5,75.1z"/>
	</g>
	<path class="st2" d="M38.2,17.7c1-0.3,2-0.6,3-0.6c3.1-0.3,11.1-0.7,18.6,1.7c0.4,0.1,0.8,0.3,1.2,0.4c0-0.3,0-0.6,0-1
		c0-8-6.5-14.5-14.5-14.5c-8,0-14.5,6.5-14.5,14.5c0,0.4,0,0.7,0,1.1C34,19,36,18.5,38.2,17.7z"/>
	<rect x="28.1" y="37.5" class="st3" width="2.2" height="2.2"/>
	<g>
		<path class="st0" d="M59,21.3c-7.1-2.2-14.6-1.8-17.6-1.6c-0.8,0.1-1.6,0.2-2.3,0.5c-11.1,3.9-18,1.4-21-0.2
			c-0.9,4.3,1.4,7.3,2.6,8.4c0.7,0.7,0.8,1.8,0.3,2.6c-3.5,5.4-9.5,7.7-12.3,8.5v10.3c0.9,1,3.9,3.9,7.8,6.5
			c0.1-0.1,0.3-0.2,0.4-0.2c1.3-0.4,3.5-1.5,5.1-4.3c0.3-0.6,1.1-0.8,1.7-0.6l0.1,0c0.7,0.3,1,1.2,0.6,1.8c-1.5,2.7-3.5,4.1-5.1,4.9
			c2.4,1.3,5,2.3,7.5,2.5l1.2,0.1v9.6h10v-6.2h14.8v6.2H63v-6.1l0.6-0.4c11.7-8.2,10-25.9,9.9-26.4C72.4,29.4,67.5,24,59,21.3z"/>
		<path class="st3" d="M80.7,34.4c-0.5,0-1,0.3-1.3,0.7c-0.2,0.3-0.4,0.6-0.7,0.8c-0.8,0.5-1.9,0.5-2.7,0.4
			c-1.4-8.6-7-14.7-16.2-17.6c-7.5-2.4-15.5-2-18.6-1.7c-1,0.1-2,0.3-3,0.6C26,22,19.6,17.9,18.5,17.1c-0.1-0.1-0.2-0.1-0.3-0.2
			c-1-0.4-2,0.1-2.2,1C13.9,24,17,28.4,18.5,30c-3.3,4.7-9.1,6.7-10.8,7.1c-1,0.3-1.7,1.2-1.7,2.2V50c0,0.7,0.3,1.3,0.7,1.8
			c2.3,2.3,9.9,9.7,18.1,11.3c0.3,0.1,0.5,0.3,0.5,0.6v8.5c0,0.5,0.4,0.9,0.9,0.9h13.5c0.5,0,0.9-0.4,0.9-0.9v-4.4
			c0-0.5,0.4-0.9,0.9-0.9h7.8c0.5,0,0.9,0.4,0.9,0.9v4.4c0,0.5,0.4,0.9,0.9,0.9h13.7c0.5,0,0.9-0.4,0.9-0.9l0-5.9
			c0-0.3,0.2-0.7,0.4-0.9c4.9-3.9,8.2-9.8,9.5-17.3c0.7-3.8,0.7-7.1,0.6-9c0.1,0,0.3,0,0.5,0c1.1,0,2.3-0.2,3.4-0.9
			c0.7-0.5,1.3-1.1,1.7-1.9C82.3,35.5,81.7,34.4,80.7,34.4z M63.5,63.9L63.4,64c-0.3,0.2-0.5,0.5-0.5,0.9v4.6c0,0.5-0.4,0.9-0.9,0.9
			h-8.3c-0.5,0-0.9-0.4-0.9-0.9v-4c0-0.7-0.6-1.2-1.2-1.2H39.2c-0.7,0-1.2,0.6-1.2,1.2v4c0,0.5-0.4,0.9-0.9,0.9h-8.2
			c-0.5,0-0.9-0.4-0.9-0.9V62c0-0.7-0.5-1.3-1.2-1.3l0,0c-2.4-0.2-4.8-1.1-7.1-2.3c-0.2-0.1-0.2-0.3,0-0.4c1.5-0.8,3.3-2.3,4.7-4.7
			c0.4-0.7,0.1-1.5-0.6-1.9l-0.1,0c-0.6-0.3-1.3,0-1.7,0.6c-1.6,2.8-3.9,3.9-5.1,4.3c-0.2,0.1-0.3,0.1-0.4,0.2
			c-3.9-2.6-6.9-5.6-7.8-6.5V39.7c2.7-0.8,8.8-3.1,12.3-8.5c0.5-0.8,0.4-1.9-0.3-2.6c-1.1-1.1-3.4-4.1-2.6-8.4c3,1.7,9.9,4.1,21,0.2
			c0.8-0.3,1.5-0.4,2.3-0.5c2.9-0.3,10.5-0.6,17.6,1.6c8.5,2.7,13.3,8.1,14.4,16.2C73.5,38,75.2,55.7,63.5,63.9z"/>
	</g>
</g>
</svg>
