<?xml version="1.0" encoding="utf-8"?>
<!-- Generator: Adobe Illustrator 21.0.0, SVG Export Plug-In . SVG Version: 6.00 Build 0)  -->
<svg version="1.1" id="图层_1" xmlns="http://www.w3.org/2000/svg" xmlns:xlink="http://www.w3.org/1999/xlink" x="0px" y="0px"
	 viewBox="0 0 88 88" style="enable-background:new 0 0 88 88;" xml:space="preserve">
<style type="text/css">
	.st0{fill:none;}
	.st1{opacity:0.3;}
	.st2{fill:#FF9C00;}
	.st3{fill:#FFFFFF;}
</style>
<g>
	<g>
		<path class="st0" d="M44,23.1c-13.6,0-24.8,10.7-25.6,24.1H43h4.2h22.4C68.8,33.8,57.6,23.1,44,23.1z"/>
		<path class="st1" d="M45.1,21v-4.2c0-0.6-0.5-1.1-1.1-1.1s-1.1,0.5-1.1,1.1V21c-14.8,0.6-26.7,12.8-26.7,27.8c0,0.2,0,0.4,0,0.6
			H17h1.4H43v27.1c0,3,2.3,5.5,5.3,5.6c3.1,0.1,5.7-2.4,5.7-5.5c0-0.3-0.2-0.5-0.5-0.5h-1.3c-0.2,0-0.4,0.2-0.4,0.4
			c0,1.8-1.4,3.4-3.2,3.5c-1.9,0.1-3.5-1.4-3.5-3.4V49.3h2.1h22.5h1.5h0.6c0-0.2,0-0.4,0-0.6C71.8,33.8,59.9,21.6,45.1,21z M43,47.2
			H18.4c0.8-13.4,12-24.1,25.6-24.1s24.8,10.7,25.6,24.1H47.2H43z"/>
	</g>
	<circle class="st2" cx="53.7" cy="18.8" r="1.7"/>
	<circle class="st2" cx="59.2" cy="23.2" r="1.7"/>
	<g>
		<path class="st0" d="M44,13.4c-13.6,0-24.8,10.7-25.6,24.1H43h4.2h22.4C68.8,24,57.6,13.4,44,13.4z"/>
		<path class="st3" d="M45.1,11.3V7.1C45.1,6.5,44.6,6,44,6s-1.1,0.5-1.1,1.1v4.2C28.1,11.8,16.2,24.1,16.2,39c0,0.2,0,0.4,0,0.6H17
			h1.4H43v27.1c0,3,2.3,5.5,5.3,5.6c3.1,0.1,5.7-2.4,5.7-5.5c0-0.3-0.2-0.5-0.5-0.5h-1.3c-0.2,0-0.4,0.2-0.4,0.4
			c0,1.8-1.4,3.4-3.2,3.5c-1.9,0.1-3.5-1.4-3.5-3.4V39.6h2.1h22.5h1.5h0.6c0-0.2,0-0.4,0-0.6C71.8,24.1,59.9,11.8,45.1,11.3z
			 M43,37.4H18.4C19.2,24,30.4,13.4,44,13.4S68.8,24,69.6,37.4H47.2H43z"/>
	</g>
</g>
</svg>
