<?xml version="1.0" encoding="utf-8"?>
<!-- Generator: Adobe Illustrator 21.0.0, SVG Export Plug-In . SVG Version: 6.00 Build 0)  -->
<svg version="1.1" id="图层_1" xmlns="http://www.w3.org/2000/svg" xmlns:xlink="http://www.w3.org/1999/xlink" x="0px" y="0px"
	 viewBox="0 0 88 88" style="enable-background:new 0 0 88 88;" xml:space="preserve">
<style type="text/css">
	.st0{opacity:0.3;}
	.st1{fill:#FFFFFF;}
	.st2{fill:#FF9C00;}
</style>
<g>
	<path class="st0" d="M54,67.8H33.8c-1.4,0-2.5-1.1-2.5-2.5v-5.4c0-0.4-0.2-0.8-0.6-1c-7.7-4.7-12.5-13-12.5-22.1
		c0-14.2,11.5-25.7,25.6-25.7C57.7,10.9,69,21.6,69.7,35.3C70.2,45,65.3,54,57.1,58.9c-0.4,0.2-0.6,0.6-0.6,1v5.3
		C56.5,66.7,55.4,67.8,54,67.8z M43.9,13.4c-12.8,0.1-23.2,10.5-23.2,23.4c0,8.7,4.7,16.6,12.4,20.6h0c0.4,0.2,0.6,0.6,0.6,1.1v6.8
		c0,0.1,0.1,0.2,0.2,0.2H54c0.1,0,0.2-0.1,0.2-0.2v-6.7c0-0.4,0.2-0.9,0.6-1.1h0c8.1-4.2,13-12.7,12.5-21.8
		C66.8,23.2,56.3,13.3,43.9,13.4z"/>
	<path class="st0" d="M54.3,74.1H33.7c-0.7,0-1.2-0.5-1.2-1.2l0,0c0-0.7,0.5-1.2,1.2-1.2h20.5c0.7,0,1.2,0.5,1.2,1.2l0,0
		C55.4,73.6,54.9,74.1,54.3,74.1z"/>
	<path class="st0" d="M52.3,80.6H35.7c-0.7,0-1.2-0.5-1.2-1.2l0,0c0-0.7,0.5-1.2,1.2-1.2h16.7c0.7,0,1.2,0.5,1.2,1.2l0,0
		C53.5,80.1,53,80.6,52.3,80.6z"/>
	<path class="st0" d="M50.4,87H37.6c-0.7,0-1.2-0.5-1.2-1.2v0c0-0.7,0.5-1.2,1.2-1.2h12.9c0.7,0,1.2,0.5,1.2,1.2v0
		C51.6,86.5,51.1,87,50.4,87z"/>
	<path class="st1" d="M54,57.8H33.8c-1.4,0-2.5-1.1-2.5-2.5v-5.4c0-0.4-0.2-0.8-0.6-1c-7.7-4.7-12.5-13-12.5-22.1
		C18.3,12.6,29.7,1.1,43.9,1C57.7,0.9,69,11.6,69.7,25.3C70.2,35,65.3,44,57.1,48.9c-0.4,0.2-0.6,0.6-0.6,1v5.3
		C56.5,56.7,55.4,57.8,54,57.8z M43.9,3.4C31.1,3.4,20.6,13.9,20.6,26.7c0,8.7,4.7,16.6,12.4,20.6h0c0.4,0.2,0.6,0.6,0.6,1.1v6.8
		c0,0.1,0.1,0.2,0.2,0.2H54c0.1,0,0.2-0.1,0.2-0.2v-6.7c0-0.4,0.2-0.9,0.6-1.1h0c8.1-4.2,13-12.7,12.5-21.8
		C66.8,13.2,56.3,3.3,43.9,3.4z"/>
	<path class="st2" d="M54.3,64.1H33.7c-0.7,0-1.2-0.5-1.2-1.2v0c0-0.7,0.5-1.2,1.2-1.2h20.5c0.7,0,1.2,0.5,1.2,1.2v0
		C55.4,63.6,54.9,64.1,54.3,64.1z"/>
	<path class="st2" d="M52.3,70.6H35.7c-0.7,0-1.2-0.5-1.2-1.2l0,0c0-0.7,0.5-1.2,1.2-1.2h16.7c0.7,0,1.2,0.5,1.2,1.2l0,0
		C53.5,70.1,53,70.6,52.3,70.6z"/>
	<path class="st2" d="M50.4,77H37.6c-0.7,0-1.2-0.5-1.2-1.2v0c0-0.7,0.5-1.2,1.2-1.2h12.9c0.7,0,1.2,0.5,1.2,1.2v0
		C51.6,76.5,51.1,77,50.4,77z"/>
</g>
</svg>
