<?xml version="1.0" encoding="utf-8"?>
<!-- Generator: Adobe Illustrator 21.0.0, SVG Export Plug-In . SVG Version: 6.00 Build 0)  -->
<svg version="1.1" id="图层_1" xmlns="http://www.w3.org/2000/svg" xmlns:xlink="http://www.w3.org/1999/xlink" x="0px" y="0px"
	 viewBox="0 0 88 88" style="enable-background:new 0 0 88 88;" xml:space="preserve">
<style type="text/css">
	.st0{opacity:0.3;}
	.st1{fill:#FFFFFF;}
	.st2{fill:#FF9900;}
</style>
<g>
	<path class="st0" d="M44,83.1C25.2,83.1,9.9,67.8,9.9,49S25.2,14.9,44,14.9S78.1,30.2,78.1,49S62.8,83.1,44,83.1z M44,17.2
		c-17.6,0-31.8,14.3-31.8,31.8c0,17.6,14.3,31.8,31.8,31.8S75.8,66.6,75.8,49C75.8,31.4,61.6,17.2,44,17.2z"/>
	<path class="st1" d="M44,73.1C25.2,73.1,9.9,57.8,9.9,39S25.2,4.9,44,4.9S78.1,20.2,78.1,39S62.8,73.1,44,73.1z M44,7.2
		C26.4,7.2,12.2,21.4,12.2,39c0,17.6,14.3,31.8,31.8,31.8S75.8,56.6,75.8,39C75.8,21.4,61.6,7.2,44,7.2z"/>
	<path class="st2" d="M46.7,35.9L46.7,35.9c-0.5-0.5-0.5-1.2,0-1.7l5-5c0.5-0.5,1.2-0.5,1.7,0v0c0.5,0.5,0.5,1.2,0,1.7l-5,5
		C47.9,36.3,47.1,36.3,46.7,35.9z"/>
	<path class="st2" d="M59.1,23.4L59.1,23.4c-0.5-0.5-0.5-1.2,0-1.7l5-5c0.5-0.5,1.2-0.5,1.7,0v0c0.5,0.5,0.5,1.2,0,1.7l-5,5
		C60.3,23.9,59.6,23.9,59.1,23.4z"/>
	<path class="st2" d="M44,17.1L44,17.1c-0.6,0-1.2-0.5-1.2-1.2V8.8c0-0.6,0.5-1.2,1.2-1.2l0,0c0.6,0,1.2,0.5,1.2,1.2v7.1
		C45.2,16.5,44.6,17.1,44,17.1z"/>
	<path class="st2" d="M28.7,23.4L28.7,23.4c-0.5,0.5-1.2,0.5-1.7,0l-5-5c-0.5-0.5-0.5-1.2,0-1.7l0,0c0.5-0.5,1.2-0.5,1.7,0l5,5
		C29.2,22.2,29.2,23,28.7,23.4z"/>
	<path class="st1" d="M44,44.4c-3,0-5.4-2.4-5.4-5.4s2.4-5.4,5.4-5.4s5.4,2.4,5.4,5.4S47,44.4,44,44.4z M44,35.9
		c-1.7,0-3.1,1.4-3.1,3.1s1.4,3.1,3.1,3.1s3.1-1.4,3.1-3.1S45.7,35.9,44,35.9z"/>
</g>
</svg>
