<?xml version="1.0" encoding="utf-8"?>
<!-- Generator: Adobe Illustrator 21.0.0, SVG Export Plug-In . SVG Version: 6.00 Build 0)  -->
<svg version="1.1" id="图层_1" xmlns="http://www.w3.org/2000/svg" xmlns:xlink="http://www.w3.org/1999/xlink" x="0px" y="0px"
	 viewBox="0 0 88 88" style="enable-background:new 0 0 88 88;" xml:space="preserve">
<style type="text/css">
	.st0{opacity:0.3;}
	.st1{fill:#FF9900;}
	.st2{fill:#FFFFFF;}
</style>
<g>
	<path class="st0" d="M44,83C25.2,83,9.9,67.7,9.9,48.9c0-0.2,0-0.5,0-0.7l0-1.1h32.5V14.8l1.3,0c0.1,0,0.2,0,0.3,0
		c18.8,0,34.1,15.3,34.1,34.1S62.8,83,44,83z M12.2,49.3C12.4,66.7,26.6,80.7,44,80.7c17.5,0,31.8-14.3,31.8-31.8
		c0-17.3-13.9-31.4-31.1-31.8v32.3H12.2z"/>
	<path class="st1" d="M39.8,11.9C27.2,11.9,17,22.1,17,34.7h22.8V11.9z"/>
	<path class="st2" d="M44,73.2c-18.8,0-34.1-15.3-34.1-34.1c0-0.2,0-0.5,0-0.7l0-1.1h32.5V5l1.3,0c0.1,0,0.2,0,0.3,0
		c18.8,0,34.1,15.3,34.1,34.1S62.8,73.2,44,73.2z M12.2,39.6C12.4,56.9,26.6,70.9,44,70.9c17.5,0,31.8-14.3,31.8-31.8
		c0-17.3-13.9-31.4-31.1-31.8v32.3H12.2z"/>
</g>
</svg>
