<?xml version="1.0" encoding="utf-8"?>
<!-- Generator: Adobe Illustrator 21.0.0, SVG Export Plug-In . SVG Version: 6.00 Build 0)  -->
<svg version="1.1" id="图层_1" xmlns="http://www.w3.org/2000/svg" xmlns:xlink="http://www.w3.org/1999/xlink" x="0px" y="0px"
	 viewBox="0 0 88 88" style="enable-background:new 0 0 88 88;" xml:space="preserve">
<style type="text/css">
	.st0{fill:#FFFFFF;}
	.st1{opacity:0.3;}
	.st2{fill:#FF9C00;}
</style>
<g>
	<path class="st0" d="M44,68.1L44,68.1c-0.7,0-1.3-0.6-1.3-1.3V32.2c0-0.7,0.6-1.3,1.3-1.3l0,0c0.7,0,1.3,0.6,1.3,1.3v34.6
		C45.3,67.5,44.7,68.1,44,68.1z"/>
	<path class="st1" d="M68.8,63.4H51.9c-0.7,0-1.3,0.6-1.3,1.3l0,0c0,0.7,0.6,1.3,1.3,1.3h15.3l9.8,18.3H10.9L20.8,66h15.3
		c0.7,0,1.3-0.6,1.3-1.3l0,0c0-0.7-0.6-1.3-1.3-1.3H19.2L7.3,85.5C7,86.2,7.5,87,8.3,87h71.4c0.8,0,1.3-0.8,0.9-1.5L68.8,63.4z"/>
	<path class="st2" d="M44,33L44,33c-2.3,0-4.2-1.9-4.2-4.2v0c0-2.3,1.9-4.2,4.2-4.2h0c2.3,0,4.2,1.9,4.2,4.2v0
		C48.2,31.1,46.3,33,44,33z"/>
	<path class="st2" d="M44,1c-6.9,0-13.3,2.5-18.1,6.8c-0.6,0.5-0.6,1.3-0.1,1.9l0.1,0.1c0.5,0.5,1.2,0.5,1.7,0.1
		C32,5.9,37.7,3.6,44,3.6c6.3,0,12,2.3,16.4,6.1c0.5,0.4,1.3,0.4,1.7-0.1l0.1-0.1c0.5-0.5,0.5-1.4-0.1-1.9C57.3,3.5,50.9,1,44,1z"/>
	<path class="st2" d="M44,6.8c-5.3,0-10.2,1.9-14,5c-0.6,0.5-0.6,1.4-0.1,1.9l0.1,0.1c0.5,0.5,1.2,0.5,1.7,0.1
		c3.3-2.8,7.6-4.4,12.3-4.4c4.7,0,8.9,1.7,12.3,4.4c0.5,0.4,1.3,0.4,1.7-0.1l0.1-0.1c0.5-0.5,0.5-1.4-0.1-1.9
		C54.2,8.7,49.3,6.8,44,6.8z"/>
	<path class="st2" d="M44,13.7c-3.4,0-6.5,1.1-9,3c-0.6,0.5-0.7,1.4-0.1,1.9l0.1,0.1c0.5,0.5,1.2,0.5,1.7,0.1
		c2.1-1.6,4.7-2.5,7.4-2.5c2.8,0,5.4,0.9,7.4,2.5c0.5,0.4,1.2,0.3,1.7-0.1l0.1-0.1c0.5-0.5,0.5-1.5-0.1-1.9
		C50.5,14.8,47.4,13.7,44,13.7z"/>
	<path class="st0" d="M68.8,53.4H51.9c-0.7,0-1.3,0.6-1.3,1.3v0c0,0.7,0.6,1.3,1.3,1.3h15.3l9.8,18.3H10.9L20.8,56h15.3
		c0.7,0,1.3-0.6,1.3-1.3v0c0-0.7-0.6-1.3-1.3-1.3H19.2L7.3,75.5C7,76.2,7.5,77,8.3,77h71.4c0.8,0,1.3-0.8,0.9-1.5L68.8,53.4z"/>
</g>
</svg>
