<?xml version="1.0" encoding="utf-8"?>
<!-- Generator: Adobe Illustrator 21.0.0, SVG Export Plug-In . SVG Version: 6.00 Build 0)  -->
<svg version="1.1" id="图层_1" xmlns="http://www.w3.org/2000/svg" xmlns:xlink="http://www.w3.org/1999/xlink" x="0px" y="0px"
	 viewBox="0 0 88 88" style="enable-background:new 0 0 88 88;" xml:space="preserve">
<style type="text/css">
	.st0{opacity:0.3;}
	.st1{fill:#FFFFFF;}
	.st2{fill:#FF9C00;}
</style>
<g>
	<path class="st0" d="M74.7,83H13.3c-1.8,0-3.3-1.5-3.3-3.2V18.4c0-1.8,1.5-3.2,3.3-3.2h61.5c1.8,0,3.3,1.5,3.3,3.2v61.3
		C78,81.5,76.5,83,74.7,83z M13.3,17.6c-0.5,0-0.9,0.4-0.9,0.9v61.3c0,0.5,0.4,0.9,0.9,0.9h61.5c0.5,0,0.9-0.4,0.9-0.9V18.4
		c0-0.5-0.4-0.9-0.9-0.9H13.3z"/>
	<path class="st1" d="M74.7,72.8H13.3c-1.8,0-3.3-1.5-3.3-3.2V8.2C10,6.5,11.5,5,13.3,5h61.5C76.5,5,78,6.5,78,8.2v61.3
		C78,71.3,76.5,72.8,74.7,72.8z M13.3,7.4c-0.5,0-0.9,0.4-0.9,0.9v61.3c0,0.5,0.4,0.9,0.9,0.9h61.5c0.5,0,0.9-0.4,0.9-0.9V8.2
		c0-0.5-0.4-0.9-0.9-0.9H13.3z"/>
	<path class="st1" d="M44,63.2c-13.5,0-24.4-10.9-24.4-24.3S30.5,14.6,44,14.6s24.4,10.9,24.4,24.3S57.5,63.2,44,63.2z M44,16.8
		c-12.2,0-22.1,9.9-22.1,22.1S31.8,61,44,61s22.1-9.9,22.1-22.1S56.2,16.8,44,16.8z"/>
	<g>
		<path class="st2" d="M34.2,37L34.2,37c-0.6,0-1.1-0.5-1.1-1.1v-8.6c0-0.6,0.5-1.1,1.1-1.1h0c0.6,0,1.1,0.5,1.1,1.1v8.6
			C35.3,36.5,34.8,37,34.2,37z"/>
		<path class="st2" d="M53.8,37L53.8,37c-0.6,0-1.1-0.5-1.1-1.1v-8.6c0-0.6,0.5-1.1,1.1-1.1h0c0.6,0,1.1,0.5,1.1,1.1v8.6
			C54.9,36.5,54.4,37,53.8,37z"/>
	</g>
	<path class="st2" d="M47,51H41c-0.6,0-1.1-0.5-1.1-1.1v0c0-0.6,0.5-1.1,1.1-1.1H47c0.6,0,1.1,0.5,1.1,1.1v0
		C48.1,50.5,47.6,51,47,51z"/>
</g>
</svg>
