<?xml version="1.0" encoding="utf-8"?>
<!-- Generator: Adobe Illustrator 21.0.0, SVG Export Plug-In . SVG Version: 6.00 Build 0)  -->
<svg version="1.1" id="图层_1" xmlns="http://www.w3.org/2000/svg" xmlns:xlink="http://www.w3.org/1999/xlink" x="0px" y="0px"
	 viewBox="0 0 88 88" style="enable-background:new 0 0 88 88;" xml:space="preserve">
<style type="text/css">
	.st0{opacity:0.3;}
	.st1{fill:none;}
	.st2{fill:#FF9C00;}
	.st3{fill:#FFFFFF;}
</style>
<g>
	<g class="st0">
		<ellipse class="st1" cx="44" cy="27.5" rx="8.2" ry="8.2"/>
		<polygon class="st1" points="16.9,38.2 12.4,78.9 75.6,78.9 71.1,38.2 		"/>
		<path d="M78.1,78.9l-4.6-41.2c-0.1-1.1-1.1-2-2.2-2H50.8c2.3-2,3.8-4.9,3.8-8.2c0-5.9-4.8-10.7-10.6-10.7s-10.6,4.8-10.6,10.7
			c0,3.3,1.5,6.3,3.8,8.2H16.7c-1.1,0-2.1,0.8-2.2,2L9.9,78.9c-0.1,0.6,0.1,1.3,0.5,1.7c0.4,0.5,1,0.7,1.6,0.7h63.9
			c0.6,0,1.2-0.3,1.6-0.7C78,80.1,78.2,79.5,78.1,78.9z M35.8,27.5c0-4.5,3.7-8.2,8.2-8.2s8.2,3.7,8.2,8.2s-3.7,8.2-8.2,8.2
			S35.8,32.1,35.8,27.5z M12.4,78.9l4.5-40.6h54.1l4.5,40.6H12.4z"/>
	</g>
	<g>
		<path class="st2" d="M40.1,35.2h2.6l-5.6,5.5l6.4,7.3h-2.8l-5-6l-1.6,1.5V48h-2.1V35.2h2.1v6.1L40.1,35.2z"/>
		<path class="st2" d="M54.3,36c0.9,0.7,1.5,1.8,1.7,3.2h-2.1c-0.2-0.8-0.6-1.4-1.1-1.9c-0.6-0.4-1.4-0.6-2.3-0.6
			c-1.2,0-2.1,0.4-2.8,1.2c-0.8,0.9-1.1,2.1-1.1,3.7c0,1.5,0.3,2.7,1,3.5c0.7,0.9,1.9,1.3,3.4,1.3c0.6,0,1.2-0.1,1.7-0.2
			c0.5-0.1,0.9-0.3,1.4-0.6V43h-3.4v-1.8H56v5.4c-0.7,0.5-1.4,0.9-2.3,1.2c-0.9,0.3-2,0.4-3.1,0.4c-2,0-3.6-0.6-4.7-1.9
			c-1-1.2-1.6-2.8-1.6-4.7c0-1.9,0.5-3.5,1.6-4.7c1.1-1.3,2.6-2,4.5-2C52,34.9,53.3,35.3,54.3,36z"/>
	</g>
	<g>
		<ellipse class="st1" cx="44" cy="17.4" rx="8.2" ry="8.2"/>
		<polygon class="st1" points="16.9,28.1 12.4,68.7 75.6,68.7 71.1,28.1 		"/>
		<path class="st3" d="M78.1,68.8l-4.6-41.2c-0.1-1.1-1.1-2-2.2-2H50.8c2.3-2,3.8-4.9,3.8-8.2c0-5.9-4.8-10.7-10.6-10.7
			s-10.6,4.8-10.6,10.7c0,3.3,1.5,6.3,3.8,8.2H16.7c-1.1,0-2.1,0.8-2.2,2L9.9,68.8c-0.1,0.6,0.1,1.3,0.5,1.7c0.4,0.5,1,0.7,1.6,0.7
			h63.9c0.6,0,1.2-0.3,1.6-0.7C78,70,78.2,69.4,78.1,68.8z M35.8,17.4c0-4.5,3.7-8.2,8.2-8.2s8.2,3.7,8.2,8.2s-3.7,8.2-8.2,8.2
			S35.8,21.9,35.8,17.4z M12.4,68.7l4.5-40.6h54.1l4.5,40.6H12.4z"/>
	</g>
</g>
</svg>
