<?xml version="1.0" encoding="utf-8"?>
<!-- Generator: Adobe Illustrator 21.0.0, SVG Export Plug-In . SVG Version: 6.00 Build 0)  -->
<svg version="1.1" id="图层_1" xmlns="http://www.w3.org/2000/svg" xmlns:xlink="http://www.w3.org/1999/xlink" x="0px" y="0px"
	 viewBox="0 0 88 88" style="enable-background:new 0 0 88 88;" xml:space="preserve">
<style type="text/css">
	.st0{fill:#FC9D03;}
	.st1{opacity:0.3;}
	.st2{fill:#FFFFFF;}
</style>
<g>
	<path class="st0" d="M28.7,21.7L28.7,21.7c-0.6,0-1.2-0.5-1.2-1.2v-9.4c0-0.6,0.5-1.2,1.2-1.2h0c0.6,0,1.2,0.5,1.2,1.2v9.4
		C29.8,21.2,29.3,21.7,28.7,21.7z"/>
	<path class="st0" d="M21,24.6L21,24.6c-0.5,0.5-1.2,0.5-1.7,0L12.7,18c-0.5-0.5-0.5-1.2,0-1.7h0c0.5-0.5,1.2-0.5,1.7,0l6.6,6.6
		C21.5,23.4,21.5,24.1,21,24.6z"/>
	<path class="st0" d="M36.9,24.6L36.9,24.6c0.5,0.5,1.2,0.5,1.7,0l6.6-6.6c0.5-0.5,0.5-1.2,0-1.7v0c-0.5-0.5-1.2-0.5-1.7,0l-6.6,6.6
		C36.5,23.4,36.5,24.1,36.9,24.6z"/>
	<path class="st0" d="M17.9,32.7L17.9,32.7c0,0.6-0.5,1.2-1.2,1.2H7.3c-0.6,0-1.2-0.5-1.2-1.2v0c0-0.6,0.5-1.2,1.2-1.2h9.4
		C17.4,31.5,17.9,32,17.9,32.7z"/>
	<path class="st1" d="M56,78c-0.1,0-0.2,0-0.4,0v0l-29.8,0c0,0,0,0-0.1,0c-9.7,0-17.6-7.9-17.6-17.6s7.9-17.6,17.6-17.6
		c2,0,4,0.3,5.8,1c1.6-4.8,4.7-9,8.8-12.1c4.5-3.5,9.9-5.3,15.6-5.3c14.2,0,25.8,11.6,25.8,25.8S70.3,78,56,78z M53.3,75.5l1.2,0.1
		c0.5,0,1,0,1.5,0c12.9,0,23.5-10.5,23.5-23.5S69,28.7,56,28.7c-10.4,0-19.7,7-22.5,16.9L33.1,47l-1.2-0.5c-1.9-0.8-4-1.3-6.1-1.3
		c-8.4,0-15.2,6.8-15.2,15.2s6.8,15.2,15.2,15.2c0.4,0,0.8,0,1.2,0l1.3-0.1v0.1h25.1V75.5z"/>
	<circle class="st0" cx="28.8" cy="32.7" r="9.4"/>
	<path class="st2" d="M56,69.3c-0.1,0-0.2,0-0.4,0v0l-29.8,0c0,0,0,0-0.1,0c-9.7,0-17.6-7.9-17.6-17.6s7.9-17.6,17.6-17.6
		c2,0,4,0.3,5.8,1c1.6-4.8,4.7-9,8.8-12.1c4.5-3.5,9.9-5.3,15.6-5.3c14.2,0,25.8,11.6,25.8,25.8S70.3,69.3,56,69.3z M53.3,66.8
		l1.2,0.1c0.5,0,1,0,1.5,0c12.9,0,23.5-10.5,23.5-23.5S69,20,56,20C45.6,20,36.4,27,33.5,37l-0.4,1.3l-1.2-0.5
		c-1.9-0.8-4-1.3-6.1-1.3c-8.4,0-15.2,6.8-15.2,15.2s6.8,15.2,15.2,15.2c0.4,0,0.8,0,1.2,0l1.3-0.1v0.1h25.1V66.8z"/>
</g>
</svg>
