<?xml version="1.0" encoding="utf-8"?>
<!-- Generator: Adobe Illustrator 21.0.0, SVG Export Plug-In . SVG Version: 6.00 Build 0)  -->
<svg version="1.1" id="图层_1" xmlns="http://www.w3.org/2000/svg" xmlns:xlink="http://www.w3.org/1999/xlink" x="0px" y="0px"
	 viewBox="0 0 88 88" style="enable-background:new 0 0 88 88;" xml:space="preserve">
<style type="text/css">
	.st0{fill:#FF9A04;}
	.st1{opacity:0.3;}
	.st2{fill:none;}
	.st3{fill:#FFFFFF;}
</style>
<g>
	<path class="st0" d="M48.6,43.6c0-0.9-0.3-1.8-0.7-2.5c-1.3,0.7-2.6,1-3.9,1c-1.3,0-2.6-0.3-3.9-1c-0.5,0.7-0.7,1.6-0.7,2.5
		c0,1.6,0.8,3,2.1,3.9l-1.2,23.2h7.3l-1.2-23.2C47.8,46.7,48.6,45.2,48.6,43.6z"/>
	<g class="st1">
		<path class="st2" d="M38.4,47c1.1,1.2,2.3,2,3.6,2.5c0.7,0.2,1.3,0.4,2,0.4c0.7,0,1.3-0.1,2-0.4c1.2-0.5,2.4-1.3,3.5-2.4
			c0.7-0.7,1.3-1.4,1.9-2.3c3.1-4.3,5.2-10.5,5.2-14.9c0-7-5.7-12.6-12.6-12.6S31.4,23,31.4,29.9c0,4.4,2.1,10.5,5.1,14.7
			C37.1,45.5,37.7,46.3,38.4,47z"/>
		<path class="st2" d="M52.3,47.4c-1.4,1.7-2.9,3-4.4,3.8c-1.3,0.7-2.6,1-3.9,1c-1.3,0-2.6-0.3-3.9-1c-1.6-0.8-3.1-2.1-4.6-3.9
			c-2.7,1.4-11.7,6.5-16.9,14.5c-0.7,1.1-1.1,2.5-1.1,3.8v15.2h52.9V65.6c0-1.4-0.4-2.7-1.1-3.9C67.1,58.3,61.7,51.6,52.3,47.4z"/>
		<path d="M72.6,62.8c-0.2-0.5-5.5-11.1-18.9-17.4c0.3-0.5,0.7-1,1-1.6c2.5-4.4,4.2-9.9,4.2-14C58.9,21.7,52.2,15,44,15
			s-14.9,6.7-14.9,14.9c0,4.1,1.6,9.6,4.2,14c0.3,0.5,0.6,1,0.9,1.5c-3.5,1.8-13.8,7.9-18.8,17.5v0c-0.1,0.2-0.1,0.3-0.1,0.5V83
			h57.5V63.3C72.7,63.2,72.7,63,72.6,62.8z M31.4,29.9c0-7,5.7-12.6,12.6-12.6S56.6,23,56.6,29.9c0,4.4-2.1,10.6-5.2,14.9
			c-0.6,0.8-1.2,1.6-1.9,2.3c-1.1,1.1-2.3,1.9-3.5,2.4c-0.7,0.2-1.3,0.4-2,0.4c-0.7,0-1.3-0.1-2-0.4c-1.2-0.5-2.5-1.3-3.6-2.5
			c-0.7-0.7-1.3-1.5-1.9-2.3C33.5,40.4,31.4,34.3,31.4,29.9z M70.4,80.7H17.6V65.5c0-1.4,0.4-2.7,1.1-3.8c5.1-8,14.2-13.1,16.9-14.5
			c1.4,1.8,3,3.1,4.6,3.9c1.3,0.7,2.6,1,3.9,1c1.3,0,2.6-0.3,3.9-1c1.5-0.8,3-2.1,4.4-3.8c9.4,4.2,14.7,10.9,17,14.3
			c0.8,1.1,1.1,2.5,1.1,3.9V80.7z"/>
	</g>
	<g>
		<path class="st2" d="M38.4,37c1.1,1.2,2.3,2,3.6,2.5c0.7,0.2,1.3,0.4,2,0.4c0.7,0,1.3-0.1,2-0.4c1.2-0.5,2.4-1.3,3.5-2.4
			c0.7-0.7,1.3-1.4,1.9-2.3c3.1-4.3,5.2-10.5,5.2-14.9C56.6,13,51,7.3,44,7.3S31.4,13,31.4,19.9c0,4.4,2.1,10.5,5.1,14.7
			C37.1,35.5,37.7,36.3,38.4,37z"/>
		<path class="st2" d="M52.3,37.4c-1.4,1.7-2.9,3-4.4,3.8c-1.3,0.7-2.6,1-3.9,1c-1.3,0-2.6-0.3-3.9-1c-1.6-0.8-3.1-2.1-4.6-3.9
			c-2.7,1.4-11.7,6.5-16.9,14.5c-0.7,1.1-1.1,2.5-1.1,3.8v15.2h52.9V55.6c0-1.4-0.4-2.7-1.1-3.9C67.1,48.3,61.7,41.6,52.3,37.4z"/>
		<path class="st3" d="M72.6,52.8c-0.2-0.5-5.5-11.1-18.9-17.4c0.3-0.5,0.7-1,1-1.6c2.5-4.4,4.2-9.9,4.2-14C58.9,11.7,52.2,5,44,5
			s-14.9,6.7-14.9,14.9c0,4.1,1.6,9.6,4.2,14c0.3,0.5,0.6,1,0.9,1.5c-3.5,1.8-13.8,7.9-18.8,17.5v0c-0.1,0.2-0.1,0.3-0.1,0.5V73
			h57.5V53.3C72.7,53.2,72.7,53,72.6,52.8z M31.4,19.9C31.4,13,37,7.3,44,7.3S56.6,13,56.6,19.9c0,4.4-2.1,10.6-5.2,14.9
			c-0.6,0.8-1.2,1.6-1.9,2.3c-1.1,1.1-2.3,1.9-3.5,2.4c-0.7,0.2-1.3,0.4-2,0.4c-0.7,0-1.3-0.1-2-0.4c-1.2-0.5-2.5-1.3-3.6-2.5
			c-0.7-0.7-1.3-1.5-1.9-2.3C33.5,30.4,31.4,24.3,31.4,19.9z M70.4,70.7H17.6V55.5c0-1.4,0.4-2.7,1.1-3.8c5.1-8,14.2-13.1,16.9-14.5
			c1.4,1.8,3,3.1,4.6,3.9c1.3,0.7,2.6,1,3.9,1c1.3,0,2.6-0.3,3.9-1c1.5-0.8,3-2.1,4.4-3.8c9.4,4.2,14.7,10.9,17,14.3
			c0.8,1.1,1.1,2.5,1.1,3.9V70.7z"/>
	</g>
</g>
</svg>
