<?xml version="1.0" encoding="utf-8"?>
<!-- Generator: Adobe Illustrator 21.0.0, SVG Export Plug-In . SVG Version: 6.00 Build 0)  -->
<svg version="1.1" id="图层_1" xmlns="http://www.w3.org/2000/svg" xmlns:xlink="http://www.w3.org/1999/xlink" x="0px" y="0px"
	 viewBox="0 0 88 88" style="enable-background:new 0 0 88 88;" xml:space="preserve">
<style type="text/css">
	.st0{fill:#FF9C00;}
	.st1{opacity:0.3;}
	.st2{fill:none;}
	.st3{fill:#FFFFFF;}
</style>
<g>
	<path class="st0" d="M15.5,67.5L15.5,67.5c-0.5-0.5-0.5-1.3,0-1.7l55.2-55.2c0.5-0.5,1.3-0.5,1.7,0v0c0.5,0.5,0.5,1.3,0,1.7
		L17.3,67.5C16.8,67.9,16,67.9,15.5,67.5z"/>
	<g class="st1">
		<rect x="29.2" y="34.2" class="st2" width="29.6" height="29.6"/>
		<path d="M76.8,63.8H61.2v-32h-32V16.2c0-0.7-0.6-1.2-1.2-1.2c-0.7,0-1.2,0.6-1.2,1.2v15.5H11.2c-0.7,0-1.2,0.6-1.2,1.2
			c0,0.7,0.6,1.2,1.2,1.2h15.5v32h32v15.5c0,0.7,0.6,1.2,1.2,1.2s1.2-0.6,1.2-1.2V66.2h15.5c0.7,0,1.2-0.6,1.2-1.2
			S77.4,63.8,76.8,63.8z M29.2,63.8V34.2h29.6v29.6H29.2z"/>
	</g>
	<g>
		<rect x="29.2" y="24.2" class="st2" width="29.6" height="29.6"/>
		<path class="st3" d="M76.8,53.8H61.2v-32h-32V6.2C29.2,5.6,28.7,5,28,5c-0.7,0-1.2,0.6-1.2,1.2v15.5H11.2c-0.7,0-1.2,0.6-1.2,1.2
			c0,0.7,0.6,1.2,1.2,1.2h15.5v32h32v15.5c0,0.7,0.6,1.2,1.2,1.2s1.2-0.6,1.2-1.2V56.2h15.5c0.7,0,1.2-0.6,1.2-1.2
			C78,54.3,77.4,53.8,76.8,53.8z M29.2,53.8V24.2h29.6v29.6H29.2z"/>
	</g>
</g>
</svg>
