<?xml version="1.0" encoding="utf-8"?>
<!-- Generator: Adobe Illustrator 21.0.0, SVG Export Plug-In . SVG Version: 6.00 Build 0)  -->
<svg version="1.1" id="图层_1" xmlns="http://www.w3.org/2000/svg" xmlns:xlink="http://www.w3.org/1999/xlink" x="0px" y="0px"
	 viewBox="0 0 88 88" style="enable-background:new 0 0 88 88;" xml:space="preserve">
<style type="text/css">
	.st0{fill:#FF9C00;}
	.st1{opacity:0.3;}
	.st2{fill:#FFFFFF;}
</style>
<g>
	<path class="st0" d="M16.4,69.5c-0.3,0-0.6-0.1-0.8-0.3c-0.5-0.5-0.5-1.2,0-1.6L70.1,13c0.5-0.5,1.2-0.5,1.6,0
		c0.5,0.5,0.5,1.2,0,1.6L17.2,69.2C17,69.4,16.7,69.5,16.4,69.5z"/>
	<path class="st1" d="M44,75.3c-9,0-17.5-2.5-23.9-7.1C13.6,63.5,10,57.2,10,50.5c0-6.7,3.6-12.9,10.1-17.6
		c6.4-4.6,14.9-7.1,23.9-7.1s17.5,2.5,23.9,7.1C74.4,37.6,78,43.9,78,50.5c0,6.7-3.6,12.9-10.1,17.6C61.5,72.8,53,75.3,44,75.3z
		 M44,28.1c-17.5,0-31.7,10.1-31.7,22.4S26.5,73,44,73s31.7-10.1,31.7-22.4S61.5,28.1,44,28.1z"/>
	<path class="st1" d="M44,65.7c-8.4,0-15.2-6.8-15.2-15.2c0-8.4,6.8-15.2,15.2-15.2c8.4,0,15.2,6.8,15.2,15.2
		C59.2,58.9,52.4,65.7,44,65.7z M44,37.7c-7.1,0-12.9,5.8-12.9,12.9c0,7.1,5.8,12.9,12.9,12.9c7.1,0,12.9-5.8,12.9-12.9
		C56.9,43.5,51.1,37.7,44,37.7z"/>
	<path class="st2" d="M44,65.6c-9,0-17.5-2.5-23.9-7.1C13.6,53.8,10,47.5,10,40.8c0-6.7,3.6-12.9,10.1-17.6
		c6.4-4.6,14.9-7.1,23.9-7.1s17.5,2.5,23.9,7.1C74.4,27.9,78,34.1,78,40.8c0,6.7-3.6,12.9-10.1,17.6C61.5,63,53,65.6,44,65.6z
		 M44,18.4c-17.5,0-31.7,10.1-31.7,22.4S26.5,63.2,44,63.2s31.7-10.1,31.7-22.4S61.5,18.4,44,18.4z"/>
	<path class="st2" d="M44,56c-8.4,0-15.2-6.8-15.2-15.2c0-8.4,6.8-15.2,15.2-15.2c8.4,0,15.2,6.8,15.2,15.2C59.2,49.2,52.4,56,44,56
		z M44,28c-7.1,0-12.9,5.8-12.9,12.9c0,7.1,5.8,12.9,12.9,12.9c7.1,0,12.9-5.8,12.9-12.9C56.9,33.7,51.1,28,44,28z"/>
</g>
</svg>
