<?xml version="1.0" encoding="utf-8"?>
<!-- Generator: Adobe Illustrator 21.0.0, SVG Export Plug-In . SVG Version: 6.00 Build 0)  -->
<svg version="1.1" id="图层_1" xmlns="http://www.w3.org/2000/svg" xmlns:xlink="http://www.w3.org/1999/xlink" x="0px" y="0px"
	 viewBox="0 0 88 88" style="enable-background:new 0 0 88 88;" xml:space="preserve">
<style type="text/css">
	.st0{fill:#FFFFFF;}
	.st1{fill:#FF9C00;}
	.st2{opacity:0.3;}
</style>
<g>
	<path class="st0" d="M67.1,45.2C64.4,55.4,55.1,63,44,63c-11.1,0-20.4-7.6-23.1-17.8c-0.8-0.1-1.6-0.3-2.4-0.5
		c2.6,11.7,13,20.4,25.5,20.4s22.9-8.7,25.5-20.4C68.7,44.9,67.9,45.1,67.1,45.2z"/>
	<path class="st1" d="M68.5,30.4c0.3,0.8,0.5,1.6,0.7,2.4c0.2,0,0.4,0.1,0.6,0.1c7.4,1.7,10,3.6,10,4.8s-2.6,3.2-10,4.8
		C63,44.1,53.8,45,44,45s-19-0.9-25.9-2.4c-7.4-1.7-10-3.6-10-4.8s2.6-3.2,10-4.8c0.2,0,0.4-0.1,0.6-0.1c0.2-0.8,0.5-1.6,0.7-2.4
		c-8,1.6-13.5,4-13.5,7.4c0,6.2,19.1,9.4,38,9.4s38-3.2,38-9.4C82,34.4,76.5,31.9,68.5,30.4z"/>
	<path class="st2" d="M44,74.9c-14.4,0-26.1-11.7-26.1-26.1S29.6,22.7,44,22.7s26.1,11.7,26.1,26.1S58.4,74.9,44,74.9z M44,24.9
		c-13.2,0-23.9,10.7-23.9,23.9S30.8,72.8,44,72.8S67.9,62,67.9,48.8S57.2,24.9,44,24.9z"/>
	<path class="st0" d="M44,42.6c-9,0-17.7-1-25.3-3l-0.8-0.2l0-0.9c0.2-6.8,3-13.2,7.9-18c4.9-4.8,11.4-7.4,18.3-7.4
		s13.3,2.6,18.3,7.4c4.9,4.8,7.7,11.2,7.9,18l0,0.9l-0.8,0.2C61.7,41.6,53,42.6,44,42.6z M20.1,37.7c7.2,1.8,15.5,2.7,23.9,2.7
		c8.4,0,16.7-0.9,23.9-2.7C67.1,25.3,56.6,15.2,44,15.2S20.9,25.3,20.1,37.7z"/>
</g>
</svg>
