<?xml version="1.0" encoding="utf-8"?>
<!-- Generator: Adobe Illustrator 21.0.0, SVG Export Plug-In . SVG Version: 6.00 Build 0)  -->
<svg version="1.1" id="图层_1" xmlns="http://www.w3.org/2000/svg" xmlns:xlink="http://www.w3.org/1999/xlink" x="0px" y="0px"
	 viewBox="0 0 88 88" style="enable-background:new 0 0 88 88;" xml:space="preserve">
<style type="text/css">
	.st0{opacity:0.3;}
	.st1{fill:#FF9C00;}
	.st2{fill:#FFFFFF;}
</style>
<g>
	<path class="st0" d="M44,56.3c-6.3,0-12.1,2.5-16.3,6.6c-0.4,0.4-0.4,1.1,0,1.6h0c0.4,0.4,1.1,0.4,1.5,0c3.8-3.7,9-6,14.7-6
		s10.9,2.3,14.7,6c0.4,0.4,1.1,0.4,1.5,0h0c0.4-0.4,0.4-1.1,0-1.6C56.1,58.8,50.3,56.3,44,56.3z"/>
	<path class="st0" d="M44,44.1c-9.7,0-18.5,3.9-24.9,10.2c-0.4,0.4-0.4,1.1,0,1.6v0c0.4,0.4,1.1,0.4,1.6,0c6-5.9,14.3-9.6,23.3-9.6
		s17.3,3.6,23.3,9.6c0.4,0.4,1.1,0.4,1.6,0l0,0c0.4-0.4,0.4-1.1,0-1.6C62.5,48,53.7,44.1,44,44.1z"/>
	<path class="st0" d="M77.8,45.8c-9-9-21-14-33.8-14s-24.7,5-33.8,14h0c-0.3,0.3-0.3,0.8,0,1.1l0.5,0.5c0.3,0.3,0.8,0.3,1.1,0
		c8.2-8.2,19.6-13.4,32.2-13.4c12.6,0,23.9,5.1,32.2,13.4c0.3,0.3,0.8,0.3,1.1,0l0.5-0.5C78.1,46.6,78.1,46.1,77.8,45.8L77.8,45.8z"
		/>
	<path class="st1" d="M44,69.2L44,69.2c-3.2,0-5.8-2.6-5.8-5.8v0c0-3.2,2.6-5.8,5.8-5.8h0c3.2,0,5.8,2.6,5.8,5.8v0
		C49.8,66.6,47.2,69.2,44,69.2z"/>
	<path class="st2" d="M44,43.3c-6.3,0-12.1,2.5-16.3,6.6c-0.4,0.4-0.4,1.1,0,1.6l0,0c0.4,0.4,1.1,0.4,1.5,0c3.8-3.7,9-6,14.7-6
		s10.9,2.3,14.7,6c0.4,0.4,1.1,0.4,1.5,0l0,0c0.4-0.4,0.4-1.1,0-1.6C56.1,45.8,50.3,43.3,44,43.3z"/>
	<path class="st2" d="M44,31.1c-9.7,0-18.5,3.9-24.9,10.2c-0.4,0.4-0.4,1.1,0,1.6v0c0.4,0.4,1.1,0.4,1.6,0c6-5.9,14.3-9.6,23.3-9.6
		s17.3,3.6,23.3,9.6c0.4,0.4,1.1,0.4,1.6,0l0,0c0.4-0.4,0.4-1.1,0-1.6C62.5,35,53.7,31.1,44,31.1z"/>
	<path class="st2" d="M77.8,32.8c-9-9-21-14-33.8-14s-24.7,5-33.8,14h0c-0.3,0.3-0.3,0.8,0,1.1l0.5,0.5c0.3,0.3,0.8,0.3,1.1,0
		c8.2-8.2,19.6-13.4,32.2-13.4c12.6,0,23.9,5.1,32.2,13.4c0.3,0.3,0.8,0.3,1.1,0l0.5-0.5C78.1,33.6,78.1,33.1,77.8,32.8L77.8,32.8z"
		/>
</g>
</svg>
