<?xml version="1.0" encoding="utf-8"?>
<!-- Generator: Adobe Illustrator 21.0.0, SVG Export Plug-In . SVG Version: 6.00 Build 0)  -->
<svg version="1.1" id="图层_1" xmlns="http://www.w3.org/2000/svg" xmlns:xlink="http://www.w3.org/1999/xlink" x="0px" y="0px"
	 viewBox="0 0 88 88" style="enable-background:new 0 0 88 88;" xml:space="preserve">
<style type="text/css">
	.st0{fill:#FFFFFF;}
	.st1{opacity:0.3;}
	.st2{fill:#FF9C00;}
</style>
<g>
	<path class="st0" d="M44.7,18l-2,0c0.5-11.1-4.1-10-6-10.9c-0.4-0.2-0.7-0.7-0.6-1.2v0c0.2-0.6,0.9-1,1.5-0.7
		C40.1,6.3,44.6,6,44.7,18z"/>
	<path class="st1" d="M41.9,83c-7,0-12.3-1.8-15.8-5.2c-4.3-4.2-4.5-9.8-4.4-11.4v0c0-0.4,0-0.7,0-1.1c-0.2-5.2,3.9-8.6,4.1-8.8
		c5.8-5,5.4-8.2,5.4-8.5l0-0.1l0,0c-0.9-6,0.1-10.5,2.7-13.2c3.2-3.3,7.9-3.2,9.7-3c0.3,0,0.6,0,1,0c4.1-0.2,7.2,0.8,9.4,3.1
		c3.4,3.5,3.4,9.1,3.1,12.1c-0.2,1.8,0.3,3.5,1.2,5c1.3,1.9,2.8,3,2.8,3l0.1,0.1c5.2,4.5,5.2,10.7,5.2,11c-0.1,4.9-1.6,8.9-4.7,11.8
		C56,83,47.2,83.1,44.7,83c-0.3,0-0.6,0-0.9,0C43.1,83,42.5,83,41.9,83z M23.7,66.4c0,1.4,0.1,6.2,3.8,9.9c3.4,3.3,8.8,4.9,16.1,4.6
		c0.4,0,0.8,0,1.1,0c1.7,0.1,10.3,0.2,15.4-4.7c2.6-2.5,4-6,4.1-10.3c0-0.1,0-5.5-4.4-9.3c-0.3-0.2-1.9-1.4-3.3-3.5
		c-1.2-1.9-1.8-4.1-1.6-6.4c0.3-2.7,0.3-7.5-2.5-10.5c-1.7-1.8-4.4-2.6-7.8-2.4c-0.5,0-0.9,0-1.3,0c-1.6-0.2-5.5-0.2-8,2.4
		c-2.2,2.3-2.9,6.1-2.2,11.5c0.1,0.7,0.6,4.7-6.1,10.5c0,0-3.5,3-3.3,7.1C23.7,65.6,23.7,66,23.7,66.4L23.7,66.4z"/>
	<path class="st2" d="M36.1,34.8c-0.6-4.4,1.8-6.9,3.9-8c0.6-0.3,1.3,0,1.5,0.6l0.3,0.9l-0.3-1l0,0.1c0.1,0.5-0.1,1-0.5,1.2
		c-0.4,0.2-1,0.6-1.5,1.1c-1.1,1.2-1.6,2.8-1.3,4.7c0.1,0.5-0.3,1-0.8,1.2v0C36.8,35.8,36.2,35.4,36.1,34.8z"/>
	<path class="st1" d="M46.8,30.4c-1.1,0-2.1-0.2-3.1-0.5l-0.6-0.2l-0.1-0.6c-0.2-0.8-0.3-1.5-0.3-2.3c0-5.6,4.6-10.2,10.2-10.2
		c1.1,0,2.1,0.2,3.1,0.5l0.6,0.2l0.1,0.6c0.2,0.8,0.3,1.5,0.3,2.3C56.9,25.8,52.4,30.4,46.8,30.4z M44.9,28.1
		c0.6,0.1,1.2,0.2,1.9,0.2c4.5,0,8.1-3.6,8.1-8.1c0-0.4,0-0.8-0.1-1.2c-0.6-0.1-1.2-0.2-1.9-0.2c-4.5,0-8.1,3.6-8.1,8.1
		C44.8,27.2,44.8,27.7,44.9,28.1z"/>
	<path class="st0" d="M41.9,73c-7,0-12.3-1.8-15.8-5.2c-4.3-4.2-4.5-9.8-4.4-11.4v0c0-0.4,0-0.7,0-1.1c-0.2-5.2,3.9-8.6,4.1-8.8
		c5.8-5,5.4-8.2,5.4-8.5l0-0.1l0,0c-0.9-6,0.1-10.5,2.7-13.2c3.2-3.3,7.9-3.2,9.7-3c0.3,0,0.6,0,1,0c4.1-0.2,7.2,0.8,9.4,3.1
		c3.4,3.5,3.4,9.1,3.1,12.1c-0.2,1.8,0.3,3.5,1.2,5c1.3,1.9,2.8,3,2.8,3l0.1,0.1c5.2,4.5,5.2,10.7,5.2,11c-0.1,4.9-1.6,8.9-4.7,11.8
		C56,73,47.2,73.1,44.7,73c-0.3,0-0.6,0-0.9,0C43.1,73,42.5,73,41.9,73z M23.7,56.4c0,1.4,0.1,6.2,3.8,9.9c3.4,3.3,8.8,4.9,16.1,4.6
		c0.4,0,0.8,0,1.1,0c1.7,0.1,10.3,0.2,15.4-4.7c2.6-2.5,4-6,4.1-10.3c0-0.1,0-5.5-4.4-9.3c-0.3-0.2-1.9-1.4-3.3-3.5
		c-1.2-1.9-1.8-4.1-1.6-6.4c0.3-2.7,0.3-7.5-2.5-10.5c-1.7-1.8-4.4-2.6-7.8-2.4c-0.5,0-0.9,0-1.3,0c-1.6-0.2-5.5-0.2-8,2.4
		c-2.2,2.3-2.9,6.1-2.2,11.5c0.1,0.7,0.6,4.7-6.1,10.5c0,0-3.5,3-3.3,7.1C23.7,55.6,23.7,56,23.7,56.4L23.7,56.4z"/>
	<path class="st2" d="M46.8,20.4c-1.1,0-2.1-0.2-3.1-0.5l-0.6-0.2l-0.1-0.6c-0.2-0.8-0.3-1.5-0.3-2.3c0-5.6,4.6-10.2,10.2-10.2
		c1.1,0,2.1,0.2,3.1,0.5l0.6,0.2l0.1,0.6c0.2,0.8,0.3,1.5,0.3,2.3C56.9,15.8,52.4,20.4,46.8,20.4z M44.9,18.1
		c0.6,0.1,1.2,0.2,1.9,0.2c4.5,0,8.1-3.6,8.1-8.1c0-0.4,0-0.8-0.1-1.2c-0.6-0.1-1.2-0.2-1.9-0.2c-4.5,0-8.1,3.6-8.1,8.1
		C44.8,17.2,44.8,17.7,44.9,18.1z"/>
</g>
</svg>
