<?xml version="1.0" encoding="utf-8"?>
<!-- Generator: Adobe Illustrator 21.0.0, SVG Export Plug-In . SVG Version: 6.00 Build 0)  -->
<svg version="1.1" id="图层_1" xmlns="http://www.w3.org/2000/svg" xmlns:xlink="http://www.w3.org/1999/xlink" x="0px" y="0px"
	 viewBox="0 0 88 88" style="enable-background:new 0 0 88 88;" xml:space="preserve">
<style type="text/css">
	.st0{opacity:0.3;}
	.st1{fill:none;}
	.st2{fill:#FFFFFF;}
	.st3{fill:#FF9C00;}
</style>
<g>
	<g>
		<path class="st0" d="M65.9,37.7h-4.4V16c0-2.8-2.2-5-5-5s-5,2.2-5,5v21.7h-15V16c0-2.8-2.2-5-5-5s-5,2.2-5,5v21.7h-4.4
			c-2.9,0-5.3,2.4-5.3,5.3v22.5c0,7.4,6.1,13.5,13.5,13.5h1.1V87h25.8v-7.9h0.6c7.4,0,13.5-6.1,13.5-13.5V43
			C71.3,40.1,68.9,37.7,65.9,37.7z M54.1,16c0-1.3,1.1-2.4,2.4-2.4c1.3,0,2.4,1.1,2.4,2.4v21.7h-4.7V16z M29.1,16
			c0-1.3,1.1-2.4,2.4-2.4s2.4,1.1,2.4,2.4v21.7h-4.7V16z M54.5,84.4H33.9v-5.3h20.5V84.4z M68.6,65.6c0,6-4.9,10.9-10.9,10.9h-0.6
			H31.3h-1.1c-6,0-10.9-4.9-10.9-10.9V43c0-1.5,1.2-2.7,2.7-2.7h4.4h10h15h10h4.4c1.5,0,2.7,1.2,2.7,2.7V65.6z"/>
		<path class="st1" d="M58.9,16c0-1.3-1.1-2.4-2.4-2.4c-1.3,0-2.4,1.1-2.4,2.4v21.7h4.7V16z"/>
		<rect x="33.9" y="79.1" class="st1" width="20.5" height="5.3"/>
		<path class="st1" d="M33.9,16c0-1.3-1.1-2.4-2.4-2.4s-2.4,1.1-2.4,2.4v21.7h4.7V16z"/>
		<path class="st1" d="M65.9,40.3h-4.4h-10h-15h-10h-4.4c-1.5,0-2.7,1.2-2.7,2.7v22.5c0,6,4.9,10.9,10.9,10.9h1.1h25.8h0.6
			c6,0,10.9-4.9,10.9-10.9V43C68.6,41.5,67.4,40.3,65.9,40.3z"/>
	</g>
	<g>
		<path class="st1" d="M58.9,6c0-1.3-1.1-2.4-2.4-2.4c-1.3,0-2.4,1.1-2.4,2.4v21.7h4.7V6z"/>
		<rect x="33.9" y="69.1" class="st1" width="20.5" height="5.3"/>
		<path class="st1" d="M33.9,6c0-1.3-1.1-2.4-2.4-2.4S29.1,4.7,29.1,6v21.7h4.7V6z"/>
		<path class="st1" d="M65.9,30.3h-4.4h-10h-15h-10h-4.4c-1.5,0-2.7,1.2-2.7,2.7v22.5c0,6,4.9,10.9,10.9,10.9h1.1h25.8h0.6
			c6,0,10.9-4.9,10.9-10.9V33C68.6,31.5,67.4,30.3,65.9,30.3z"/>
		<path class="st2" d="M65.9,27.7h-4.4V6c0-2.8-2.2-5-5-5s-5,2.2-5,5v21.7h-15V6c0-2.8-2.2-5-5-5s-5,2.2-5,5v21.7h-4.4
			c-2.9,0-5.3,2.4-5.3,5.3v22.5c0,7.4,6.1,13.5,13.5,13.5h1.1V77h25.8v-7.9h0.6c7.4,0,13.5-6.1,13.5-13.5V33
			C71.3,30.1,68.9,27.7,65.9,27.7z M54.1,6c0-1.3,1.1-2.4,2.4-2.4c1.3,0,2.4,1.1,2.4,2.4v21.7h-4.7V6z M29.1,6
			c0-1.3,1.1-2.4,2.4-2.4s2.4,1.1,2.4,2.4v21.7h-4.7V6z M54.5,74.4H33.9v-5.3h20.5V74.4z M68.6,55.6c0,6-4.9,10.9-10.9,10.9h-0.6
			H31.3h-1.1c-6,0-10.9-4.9-10.9-10.9V33c0-1.5,1.2-2.7,2.7-2.7h4.4h10h15h10h4.4c1.5,0,2.7,1.2,2.7,2.7V55.6z"/>
	</g>
	<path class="st3" d="M44,52.2L44,52.2c-3.9,0-7-3.2-7-7v0c0-3.9,3.2-7,7-7h0c3.9,0,7,3.2,7,7v0C51,49,47.9,52.2,44,52.2z"/>
</g>
</svg>
