<?xml version="1.0" encoding="utf-8"?>
<!-- Generator: Adobe Illustrator 21.0.0, SVG Export Plug-In . SVG Version: 6.00 Build 0)  -->
<svg version="1.1" id="图层_1" xmlns="http://www.w3.org/2000/svg" xmlns:xlink="http://www.w3.org/1999/xlink" x="0px" y="0px"
	 viewBox="0 0 88 88" style="enable-background:new 0 0 88 88;" xml:space="preserve">
<style type="text/css">
	.st0{opacity:0.3;}
	.st1{fill:#FF9900;}
	.st2{fill:#FFFFFF;}
</style>
<g>
	<path class="st0" d="M44,83.1C25.2,83.1,9.9,67.8,9.9,49S25.2,14.9,44,14.9S78.1,30.2,78.1,49S62.8,83.1,44,83.1z M44,17.2
		c-17.6,0-31.8,14.3-31.8,31.8c0,17.6,14.3,31.8,31.8,31.8S75.8,66.6,75.8,49C75.8,31.4,61.6,17.2,44,17.2z"/>
	<g>
		<circle class="st1" cx="32.9" cy="28.8" r="4.2"/>
		<circle class="st1" cx="54.9" cy="28.8" r="4.2"/>
	</g>
	<circle class="st1" cx="43.9" cy="52.2" r="7.5"/>
	<path class="st2" d="M44,73.1C25.2,73.1,9.9,57.8,9.9,39S25.2,4.9,44,4.9S78.1,20.2,78.1,39S62.8,73.1,44,73.1z M44,7.2
		C26.4,7.2,12.2,21.4,12.2,39c0,17.6,14.3,31.8,31.8,31.8S75.8,56.6,75.8,39C75.8,21.4,61.6,7.2,44,7.2z"/>
</g>
</svg>
