<?xml version="1.0" encoding="utf-8"?>
<!-- Generator: Adobe Illustrator 21.0.0, SVG Export Plug-In . SVG Version: 6.00 Build 0)  -->
<svg version="1.1" id="图层_1" xmlns="http://www.w3.org/2000/svg" xmlns:xlink="http://www.w3.org/1999/xlink" x="0px" y="0px"
	 viewBox="0 0 88 88" style="enable-background:new 0 0 88 88;" xml:space="preserve">
<style type="text/css">
	.st0{opacity:0.3;}
	.st1{fill:none;}
	.st2{fill:#FF9C00;}
	.st3{fill:#FFFFFF;}
</style>
<g>
	<g class="st0">
		<path class="st1" d="M44,58.6c15,0,27.3-12.1,27.7-27H16.3C16.7,46.6,29,58.6,44,58.6z"/>
		<path class="st1" d="M74.2,31.6C73.9,48,60.5,61.2,44,61.2S14.1,48,13.8,31.6H8.6C8.9,50.8,24.7,66.4,44,66.4s35.1-15.5,35.4-34.8
			H74.2z"/>
		<path d="M82,29h-1.1h-1.5h-5.2h-2.6H16.4h-2.6H8.6H6.4H6c0,0.6,0,1.3,0,1.9c0,21,17,38,38,38s38-17,38-38C82,30.3,82,29.7,82,29z
			 M71.7,31.6c-0.4,14.9-12.6,27-27.7,27s-27.3-12.1-27.7-27H71.7z M44,66.4c-19.3,0-35.1-15.5-35.4-34.8h5.2
			C14.1,48,27.5,61.2,44,61.2S73.9,48,74.2,31.6h5.2C79.1,50.8,63.3,66.4,44,66.4z"/>
	</g>
	<path class="st2" d="M69.1,36.5l1.3-2.2L48.3,21.5c0,0,0,0,0-0.1h-0.1l-3.3-1.9l-1.1,1.9h-0.3l-0.1,0l-1.1-1.9L39,21.5h0
		c0,0,0,0,0,0L18,33.6l1.3,2.2L39.7,24c0.1,0.1,0.1,0.2,0.2,0.3L28,45.1l2.2,1.3l11.9-20.5c0.1,0,0.2,0.1,0.3,0.1v24.9h2.6V25.9
		c0.1,0,0.3-0.1,0.4-0.1L57.6,47l2.2-1.3L47.4,24.2c0-0.1,0.1-0.1,0.1-0.2L69.1,36.5z"/>
	<g>
		<path class="st1" d="M44,48.6c15,0,27.3-12.1,27.7-27H16.3C16.7,36.6,29,48.6,44,48.6z"/>
		<path class="st1" d="M74.2,21.6C73.9,38,60.5,51.2,44,51.2S14.1,38,13.8,21.6H8.6C8.9,40.8,24.7,56.4,44,56.4s35.1-15.5,35.4-34.8
			H74.2z"/>
		<path class="st3" d="M82,19h-1.1h-1.5h-5.2h-2.6H16.4h-2.6H8.6H6.4H6c0,0.6,0,1.3,0,1.9c0,21,17,38,38,38s38-17,38-38
			C82,20.3,82,19.7,82,19z M71.7,21.6c-0.4,14.9-12.6,27-27.7,27s-27.3-12.1-27.7-27H71.7z M44,56.4c-19.3,0-35.1-15.5-35.4-34.8
			h5.2C14.1,38,27.5,51.2,44,51.2S73.9,38,74.2,21.6h5.2C79.1,40.8,63.3,56.4,44,56.4z"/>
	</g>
</g>
</svg>
