<?xml version="1.0" encoding="utf-8"?>
<!-- Generator: Adobe Illustrator 21.0.0, SVG Export Plug-In . SVG Version: 6.00 Build 0)  -->
<svg version="1.1" id="图层_1" xmlns="http://www.w3.org/2000/svg" xmlns:xlink="http://www.w3.org/1999/xlink" x="0px" y="0px"
	 viewBox="0 0 88 88" style="enable-background:new 0 0 88 88;" xml:space="preserve">
<style type="text/css">
	.st0{opacity:0.3;}
	.st1{fill:#FF9C00;}
	.st2{fill:#FFFFFF;}
</style>
<g>
	<path class="st0" d="M26.1,41v-9.6h0c0,0,0,0,0-0.1c0-9.9,8-17.9,17.9-17.9s17.9,8,17.9,17.9c0,0,0,0,0,0.1h2.5c0,0,0,0,0-0.1
		C64.4,20.2,55.3,11,44,11c-11.2,0-20.2,9-20.4,20.1c0,0.1,0,0.2,0,0.3V41h-0.3h-0.5h-5.4v46h53.1V41H26.1z M68.1,84.5H19.9V43.5
		h48.1V84.5z"/>
	<path class="st1" d="M49,47.8c0-2.8-2.3-5-5-5s-5,2.3-5,5c0,2.3,1.6,4.3,3.8,4.9v7.8c0,0.7,0.6,1.3,1.3,1.3s1.3-0.6,1.3-1.3v-7.8
		C47.4,52.1,49,50.1,49,47.8z"/>
	<path class="st2" d="M26.1,31v-9.6h0c0,0,0,0,0-0.1c0-9.9,8-17.9,17.9-17.9s17.9,8,17.9,17.9c0,0,0,0,0,0.1h2.5c0,0,0,0,0-0.1
		C64.4,10.2,55.3,1,44,1c-11.2,0-20.2,9-20.4,20.1c0,0.1,0,0.2,0,0.3V31h-0.3h-0.5h-5.4v46h53.1V31H26.1z M68.1,74.5H19.9V33.5h48.1
		V74.5z"/>
</g>
</svg>
