<?xml version="1.0" encoding="utf-8"?>
<!-- Generator: Adobe Illustrator 21.0.0, SVG Export Plug-In . SVG Version: 6.00 Build 0)  -->
<svg version="1.1" id="图层_1" xmlns="http://www.w3.org/2000/svg" xmlns:xlink="http://www.w3.org/1999/xlink" x="0px" y="0px"
	 viewBox="0 0 88 88" style="enable-background:new 0 0 88 88;" xml:space="preserve">
<style type="text/css">
	.st0{opacity:0.3;}
	.st1{fill:none;}
	.st2{fill:#FF9C00;}
	.st3{fill:#FFFFFF;}
</style>
<g>
	<g class="st0">
		<path class="st1" d="M75.8,65C75.6,39.3,72,29.9,71,27.8H48c-0.5,8.2-5.3,13.8-9.4,17.1c-1.7,1.4-3.7,2.5-5.8,3.4L42.2,65h10.1
			h3.1H75.8z"/>
		<rect x="12.4" y="67.2" class="st1" width="33.3" height="3"/>
		<path class="st1" d="M30.8,48.9c-0.8,0.2-1.6,0.4-2.5,0.6c-6.8,1.2-11.5,3.7-14,7.5c-2.1,3.2-2.2,6.5-2,8h27.4L30.8,48.9z"/>
		<path class="st1" d="M55.3,70.2h20.5c0-1,0-2.1,0-3H55.3V70.2z"/>
		<path d="M72.6,26.1l-0.3-0.5H45.9l0,1.1c-0.1,7.9-4.7,13.3-8.6,16.5c-2.6,2.1-5.9,3.6-9.4,4.2c-7.4,1.3-12.6,4.1-15.5,8.5
			c-3.1,4.7-2.4,9.5-2.3,10.4v4v1.6v0.6h35.5h2.2v-2.2v-3h4.4h0.9v5.2H78l0-1.1C78.4,35.7,72.8,26.5,72.6,26.1z M14.3,57
			c2.6-3.8,7.3-6.3,14-7.5c0.8-0.1,1.7-0.3,2.5-0.6L39.7,65H12.2C12.1,63.5,12.1,60.2,14.3,57z M45.7,70.2H12.4v-3h33.3V70.2z
			 M52.2,65H42.2l-9.3-16.8c2.1-0.8,4.1-2,5.8-3.4c4.1-3.3,8.9-8.9,9.4-17.1h23c1,2.1,4.6,11.5,4.8,37.2H55.3H52.2z M75.8,70.2H55.3
			v-3h20.5C75.8,68.2,75.8,69.2,75.8,70.2z"/>
	</g>
	<path class="st2" d="M45.3,37.6c-4.6-2.2-5.5-5.8-5.6-6l2.1-0.5c0,0.1,0.8,2.8,4.4,4.5c0.5,0.2,0.8,0.8,0.6,1.4l0,0
		C46.6,37.6,45.9,37.9,45.3,37.6z"/>
	<path class="st2" d="M51.9,27.8c-5,0-7.4-1.8-7.5-1.9l1.3-1.7c0,0,2.2,1.6,6.8,1.4c0.6,0,1.1,0.4,1.1,1v0c0.1,0.6-0.4,1.2-1,1.2
		C52.4,27.8,52.2,27.8,51.9,27.8z"/>
	<g>
		<path class="st1" d="M75.8,55C75.6,29.3,72,19.9,71,17.8H48c-0.5,8.2-5.3,13.8-9.4,17.1c-1.7,1.4-3.7,2.5-5.8,3.4L42.2,55h10.1
			h3.1H75.8z"/>
		<rect x="12.4" y="57.2" class="st1" width="33.3" height="3"/>
		<path class="st1" d="M30.8,38.9c-0.8,0.2-1.6,0.4-2.5,0.6c-6.8,1.2-11.5,3.7-14,7.5c-2.1,3.2-2.2,6.5-2,8h27.4L30.8,38.9z"/>
		<path class="st1" d="M55.3,60.2h20.5c0-1,0-2.1,0-3H55.3V60.2z"/>
		<path class="st3" d="M72.6,16.1l-0.3-0.5H45.9l0,1.1c-0.1,7.9-4.7,13.3-8.6,16.5c-2.6,2.1-5.9,3.6-9.4,4.2
			c-7.4,1.3-12.6,4.1-15.5,8.5c-3.1,4.7-2.4,9.5-2.3,10.4v4v1.6v0.6h35.5h2.2v-2.2v-3h4.4h0.9v5.2H78l0-1.1
			C78.4,25.7,72.8,16.5,72.6,16.1z M14.3,47c2.6-3.8,7.3-6.3,14-7.5c0.8-0.1,1.7-0.3,2.5-0.6L39.7,55H12.2
			C12.1,53.5,12.1,50.2,14.3,47z M45.7,60.2H12.4v-3h33.3V60.2z M52.2,55H42.2l-9.3-16.8c2.1-0.8,4.1-2,5.8-3.4
			c4.1-3.3,8.9-8.9,9.4-17.1h23c1,2.1,4.6,11.5,4.8,37.2H55.3H52.2z M75.8,60.2H55.3v-3h20.5C75.8,58.2,75.8,59.2,75.8,60.2z"/>
	</g>
</g>
</svg>
