<?xml version="1.0" encoding="utf-8"?>
<!-- Generator: Adobe Illustrator 21.0.0, SVG Export Plug-In . SVG Version: 6.00 Build 0)  -->
<svg version="1.1" id="图层_1" xmlns="http://www.w3.org/2000/svg" xmlns:xlink="http://www.w3.org/1999/xlink" x="0px" y="0px"
	 viewBox="0 0 88 88" style="enable-background:new 0 0 88 88;" xml:space="preserve">
<style type="text/css">
	.st0{opacity:0.3;}
	.st1{fill:#FF9C00;}
	.st2{fill:#FFFFFF;}
</style>
<g>
	<path class="st0" d="M44,78c-5.5,0-11.6-9.9-14-14.1c-4.6-8.3-7.6-17.1-7.6-22.7c0-11.9,9.7-21.6,21.6-21.6s21.6,9.7,21.6,21.6
		c0,6.5-4.1,16-8,22.7C55.8,67.2,49.1,78,44,78z M44,21.6c-10.8,0-19.6,8.8-19.6,19.6c0,5.2,2.9,13.7,7.3,21.6
		c4.4,8,9.2,13.1,12.2,13.1c2.6,0,7.4-5.4,11.9-13.1c4.7-8.1,7.7-16.6,7.7-21.6C63.6,30.4,54.8,21.6,44,21.6z"/>
	<ellipse class="st1" cx="44" cy="69" rx="11.1" ry="1.9"/>
	<path class="st2" d="M44,38.1c-3.3,0-6.1-2.7-6.1-6.1S40.7,26,44,26s6.1,2.7,6.1,6.1S47.3,38.1,44,38.1z M44,28.1c-2.2,0-4,1.8-4,4
		c0,2.2,1.8,4,4,4s4-1.8,4-4C48,29.9,46.2,28.1,44,28.1z"/>
	<path class="st2" d="M44,68.4c-5.5,0-11.6-9.9-14-14.1c-4.6-8.3-7.6-17.1-7.6-22.7C22.4,19.7,32.1,10,44,10s21.6,9.7,21.6,21.6
		c0,6.5-4.1,16-8,22.7C55.8,57.6,49.1,68.4,44,68.4z M44,12.1c-10.8,0-19.6,8.8-19.6,19.6c0,5.2,2.9,13.7,7.3,21.6
		c4.4,8,9.2,13.1,12.2,13.1c2.6,0,7.4-5.4,11.9-13.1c4.7-8.1,7.7-16.6,7.7-21.6C63.6,20.8,54.8,12.1,44,12.1z"/>
</g>
</svg>
