<?xml version="1.0" encoding="utf-8"?>
<!-- Generator: Adobe Illustrator 21.0.0, SVG Export Plug-In . SVG Version: 6.00 Build 0)  -->
<svg version="1.1" id="图层_1" xmlns="http://www.w3.org/2000/svg" xmlns:xlink="http://www.w3.org/1999/xlink" x="0px" y="0px"
	 viewBox="0 0 88 88" style="enable-background:new 0 0 88 88;" xml:space="preserve">
<style type="text/css">
	.st0{fill:none;}
	.st1{fill:#FF9C00;}
	.st2{opacity:0.3;}
	.st3{fill:#FFFFFF;}
</style>
<g>
	<g>
		<path class="st0" d="M36.9,20.4c0.2,0.5,0.7,0.9,1.2,1.1c0.5,0.2,1.1,0.2,1.7-0.1l3.2-1.4l5.6-2.6l-4.4,4.4L32.3,33.8
			c-0.4,0.4-0.6,0.8-0.6,1.3c0,0.6,0.2,1.1,0.6,1.5c0.4,0.4,0.9,0.6,1.5,0.6c0.5,0,1-0.3,1.3-0.6L45.6,26c0.4-0.4,1.1-0.5,1.5-0.1
			c0.5,0.4,0.5,1.2,0.1,1.6L34.5,40.1c-0.7,0.7-0.6,1.8,0.3,2.4c0.6,0.4,1.4,0.3,1.9-0.2l1.1-1.1l11.4-11.4c0.4-0.4,1.1-0.5,1.5-0.1
			c0.5,0.4,0.5,1.2,0.1,1.6L39.4,42.6c-0.6,0.6-0.5,1.6,0.2,2c0.5,0.3,1.2,0.2,1.6-0.2l1.4-1.4c0,0,0,0,0,0l10-10
			c0.4-0.4,1.1-0.5,1.5-0.1c0.5,0.4,0.5,1.2,0.1,1.6l-10,10c-0.4,0.4-0.4,1.1,0,1.5c0.4,0.4,1.1,0.4,1.5,0L64,27.8l0,0l0,0l-7-7l0,0
			l-4.3-4.3l-0.4-0.4l0,0l-0.2-0.2l0,0l-3.3-3.3L38,17.5C36.9,18,36.4,19.3,36.9,20.4z"/>
		<path class="st1" d="M34.9,21.3c0.5,1.1,1.3,1.9,2.4,2.3c0.6,0.2,1.2,0.3,1.8,0.3l-8.4,8.4c-1,1-1.4,2.5-1.1,3.9
			c0.1,0.3,0.2,0.7,0.4,0.9c0.6,1,1.5,1.7,2.5,2c-0.9,1.4-0.8,3.4,0.5,4.6c0.7,0.7,1.7,1.1,2.6,1.1c0.5,0,1-0.1,1.4-0.3
			c0.2,0.5,0.4,1,0.8,1.4c0.7,0.7,1.6,1,2.5,1c0.6,0,1.1-0.1,1.7-0.4c0.2,0.4,0.4,0.7,0.7,1c0.6,0.6,1.5,1,2.3,1
			c0.8,0,1.7-0.3,2.3-1l18.3-18.3l0.2-0.2c0.7-0.7,0.7-1.9,0-2.6l-0.2-0.2L64,24.7l-1.5-1.5l-1.8-1.8l-1.5-1.5l-0.6-0.6l0,0L54.2,15
			l0,0l-3.3-3.3l-1.5-1.5L49.3,10l-2.1,1l-10.1,4.6C34.9,16.5,33.9,19.1,34.9,21.3z M38,17.5l10.1-4.6c0.4-0.2,0.9-0.1,1.3,0.2
			l2.7,2.7l0,0l0.2,0.2l0,0l0.4,0.4l4.3,4.3l0,0l7,7l0,0l0,0L45.7,46.1c-0.4,0.4-1.1,0.4-1.5,0c-0.4-0.4-0.4-1.1,0-1.5l10-10
			c0.4-0.4,0.5-1,0.2-1.4c-0.4-0.6-1.2-0.6-1.7-0.2l-10,10c0,0,0,0,0,0l-1.4,1.4c-0.4,0.4-1.1,0.5-1.6,0.2c-0.7-0.5-0.8-1.4-0.2-2
			l11.4-11.4c0.4-0.4,0.5-1,0.2-1.4c-0.4-0.6-1.2-0.6-1.7-0.2L37.8,41.1l-1.1,1.1c-0.5,0.5-1.3,0.6-1.9,0.2
			c-0.8-0.5-0.9-1.7-0.3-2.4l12.6-12.6c0.4-0.4,0.5-1,0.2-1.4c-0.4-0.6-1.2-0.6-1.7-0.2L35,36.5c-0.3,0.3-0.7,0.5-1.1,0.6
			c-0.6,0.1-1.2-0.1-1.7-0.5c-0.4-0.4-0.6-1.1-0.5-1.7c0.1-0.4,0.3-0.8,0.6-1.1l11.9-11.9l1.5-1.5c0.6-0.6-0.1-1.5-0.8-1.2L42.9,20
			l-3.2,1.4c-0.5,0.2-1.1,0.3-1.7,0.1c-0.5-0.2-1-0.6-1.2-1.1C36.4,19.3,36.9,18,38,17.5z"/>
	</g>
	<g class="st2">
		<path class="st0" d="M47.8,43.7L47.8,43.7c-13.8,3.1-22.4,0.3-23,0c-3.2-1-6.2-1.1-9.1-0.7l5.3,32.7h45.9l5.6-34
			C61.7,39.8,48,43.7,47.8,43.7z"/>
		<path d="M75.1,31.4c-0.5,0-1,0.4-1.1,0.9l-1.2,7.3c-2.5-0.5-5.3-0.7-8.5-0.6c-8.7,0.2-16.5,2.4-17.1,2.6
			c-13.3,3-21.7,0.1-21.8,0.1l0,0c-3.2-1-6.6-1.3-10.1-0.8L14,32.3c-0.1-0.5-0.5-0.9-1.1-0.9c-0.7,0-1.2,0.6-1.1,1.3l1.4,8.6
			l0.4,2.2L19.2,78h49.6l5.8-35.7l0.4-2.1l1.2-7.4C76.3,32,75.8,31.4,75.1,31.4z M66.9,75.8H21.1l-5.3-32.7c2.8-0.4,5.9-0.3,9.1,0.7
			c0.6,0.2,9.2,3.1,23,0l0.1,0c0.2-0.1,13.9-3.9,24.7-1.9L66.9,75.8z"/>
	</g>
	<g>
		<path class="st0" d="M47.8,34.3L47.8,34.3c-13.8,3.1-22.4,0.3-23,0c-3.2-1-6.2-1.1-9.1-0.7l5.3,32.7h45.9l5.6-34
			C61.7,30.3,48,34.2,47.8,34.3z"/>
		<path class="st3" d="M75.1,22c-0.5,0-1,0.4-1.1,0.9l-1.2,7.3c-2.5-0.5-5.3-0.7-8.5-0.6c-8.7,0.2-16.5,2.4-17.1,2.6
			c-13.3,3-21.7,0.1-21.8,0.1l0,0c-3.2-1-6.6-1.3-10.1-0.8L14,22.9c-0.1-0.5-0.5-0.9-1.1-0.9c-0.7,0-1.2,0.6-1.1,1.3l1.4,8.6
			l0.4,2.2l5.6,34.5h49.6l5.8-35.7l0.4-2.1l1.2-7.4C76.3,22.6,75.8,22,75.1,22z M66.9,66.4H21.1l-5.3-32.7c2.8-0.4,5.9-0.3,9.1,0.7
			c0.6,0.2,9.2,3.1,23,0l0.1,0c0.2-0.1,13.9-3.9,24.7-1.9L66.9,66.4z"/>
	</g>
</g>
</svg>
