<?xml version="1.0" encoding="utf-8"?>
<!-- Generator: Adobe Illustrator 21.0.0, SVG Export Plug-In . SVG Version: 6.00 Build 0)  -->
<svg version="1.1" id="图层_1" xmlns="http://www.w3.org/2000/svg" xmlns:xlink="http://www.w3.org/1999/xlink" x="0px" y="0px"
	 viewBox="0 0 88 88" style="enable-background:new 0 0 88 88;" xml:space="preserve">
<style type="text/css">
	.st0{opacity:0.3;}
	.st1{fill:#FFFFFF;}
	.st2{fill:#FF9C00;}
</style>
<g>
	<path class="st0" d="M28.2,87l11.6-35.2l-14.3-4.7L56.4,11l-8.5,31.1l14.7,4.8L28.2,87z M29.4,46l13.3,4.3l-8.8,26.5L58.6,48
		l-13.5-4.5l6.4-23.4L29.4,46z"/>
	<path class="st1" d="M28.2,77l11.6-35.2l-14.3-4.7L56.4,1l-8.5,31.1l14.7,4.8L28.2,77z M29.4,36l13.3,4.3l-8.8,26.5L58.6,38
		l-13.5-4.5l6.4-23.4L29.4,36z"/>
	<polygon class="st2" points="49.3,47.5 47.6,46.1 52.8,39.6 48.6,38.4 49.2,36.2 56.7,38.4 	"/>
</g>
</svg>
