<?xml version="1.0" encoding="utf-8"?>
<!-- Generator: Adobe Illustrator 21.0.0, SVG Export Plug-In . SVG Version: 6.00 Build 0)  -->
<svg version="1.1" id="图层_1" xmlns="http://www.w3.org/2000/svg" xmlns:xlink="http://www.w3.org/1999/xlink" x="0px" y="0px"
	 viewBox="0 0 88 88" style="enable-background:new 0 0 88 88;" xml:space="preserve">
<style type="text/css">
	.st0{fill:#FF9C00;}
	.st1{fill:none;}
	.st2{opacity:0.3;}
	.st3{fill:#FFFFFF;}
</style>
<g>
	<path class="st0" d="M21.1,11.9L21.1,11.9c-0.5,0.2-0.8,0.8-0.7,1.3c0.4,1.7,0.3,3.4-0.4,4.9c-0.1,0.3-0.3,0.6-0.4,0.8
		c0,0-0.1,0.1-0.1,0.1c-0.5,1.2-0.8,2.5-0.8,3.8c0,0.9,0.1,1.7,0.3,2.6c0.2,0.7,0.9,1,1.5,0.8l0,0c0.5-0.2,0.8-0.8,0.7-1.3
		c-0.4-1.7-0.3-3.4,0.4-4.9c0.1-0.3,0.3-0.6,0.4-0.8c0,0,0.1-0.1,0.1-0.1c0.5-1.2,0.8-2.5,0.8-3.8c0-0.9-0.1-1.7-0.3-2.6
		C22.4,12.1,21.7,11.7,21.1,11.9z"/>
	<path class="st0" d="M30.4,11.9L30.4,11.9c-0.5,0.2-0.8,0.8-0.7,1.3c0.4,1.7,0.3,3.4-0.4,4.9c-0.1,0.3-0.3,0.6-0.4,0.8
		c0,0-0.1,0.1-0.1,0.1c-0.5,1.2-0.8,2.5-0.8,3.8c0,0.9,0.1,1.7,0.3,2.6c0.2,0.7,0.9,1,1.5,0.8l0,0c0.5-0.2,0.8-0.8,0.7-1.3
		c-0.4-1.7-0.3-3.4,0.4-4.9c0.1-0.3,0.3-0.6,0.4-0.8c0,0,0.1-0.1,0.1-0.1c0.5-1.2,0.8-2.5,0.8-3.8c0-0.9-0.1-1.7-0.3-2.6
		C31.7,12.1,31,11.7,30.4,11.9z"/>
	<path class="st0" d="M39.6,11.9L39.6,11.9c-0.5,0.2-0.8,0.8-0.7,1.3c0.4,1.7,0.3,3.4-0.4,4.9c-0.1,0.3-0.3,0.6-0.4,0.8
		c0,0-0.1,0.1-0.1,0.1c-0.5,1.2-0.8,2.5-0.8,3.8c0,0.9,0.1,1.7,0.3,2.6c0.2,0.7,0.9,1,1.5,0.8l0,0c0.5-0.2,0.8-0.8,0.7-1.3
		c-0.4-1.7-0.3-3.4,0.4-4.9c0.1-0.3,0.3-0.6,0.4-0.8c0,0,0.1-0.1,0.1-0.1c0.5-1.2,0.8-2.5,0.8-3.8c0-0.9-0.1-1.7-0.3-2.6
		C41,12.1,40.3,11.7,39.6,11.9z"/>
	<g>
		<path class="st1" d="M52,45.5c-4.7-3.1-11.2-5-18.3-5.4c-1.5-0.1-3.1-0.2-4.8-0.2c-4.7,0-9.6,0.5-13.1,2.6
			c-5.2,3.1-7.6,9.4-7.6,14.3c0,4.7,2.8,11.1,8,14.2c4,2.4,9.6,3.2,17.4,2.6c12.3-1,25.6-6.7,25.6-16.8C59.3,51.4,55.3,47.6,52,45.5
			z"/>
		<path class="st1" d="M76.6,58L76.6,58c-0.5-0.1-0.9-0.6-0.9-1.1v-1c0-0.5,0.4-1,0.9-1.1c1.9-0.4,3.3-2.2,3.2-4.2
			c-0.1-2-1.6-3.6-3.6-3.8c-2.5-0.3-4.6,1.6-4.6,4.1c0,0.7,0.2,1.4,0.5,2c0.4,0.8-0.1,1.7-1,1.7h-9.8c0.2,0.8,0.2,1.6,0.2,2.5
			c0,0.8-0.1,1.7-0.2,2.5h9.4c0.8,0,1.3,0.7,1.1,1.5v0c0,0.1-0.1,0.2-0.1,0.4c-0.5,2.8,1.8,5.2,4.5,4.8c1.9-0.2,3.5-1.9,3.6-3.8
			C79.8,60.2,78.5,58.4,76.6,58z"/>
		<path class="st2" d="M79.4,56.9c-0.3-0.2-0.3-0.7,0-1c1.6-1.2,2.6-3.1,2.6-5.2c0-3.3-2.6-6-5.9-6.3c-3.7-0.3-6.8,2.7-6.8,6.3
			c0,0.5,0.1,0.9,0.2,1.4h-8.8c-3-7.8-13.4-13.6-26.8-14.3c-6.1-0.4-13.9-0.4-19.1,2.8C8.7,44.2,6,51.4,6,56.9
			C6,62,8.9,69.3,15.1,73c3.5,2.1,8,3.1,13.8,3.1c1.6,0,3.2-0.1,4.9-0.2c7.5-0.6,14.3-2.7,19.2-5.8c3.8-2.4,6.3-5.3,7.6-8.5h8.7
			c0,0,0,0,0,0c-0.2,3.3,2.3,6.3,5.7,6.6c3.8,0.4,7-2.6,7-6.3C82,59.9,81,58,79.4,56.9z M33.7,73.7c-7.7,0.6-13.4-0.2-17.4-2.6
			c-5.3-3.2-8-9.6-8-14.2c0-4.9,2.3-11.2,7.6-14.3c3.5-2.1,8.4-2.6,13.1-2.6c1.6,0,3.2,0.1,4.8,0.2c7.1,0.4,13.6,2.3,18.3,5.4
			c3.3,2.2,7.3,5.9,7.3,11.4C59.3,66.9,46,72.6,33.7,73.7z M79.7,62.2c-0.1,2-1.6,3.6-3.6,3.8c-2.7,0.3-5-2.1-4.5-4.8
			c0-0.1,0.1-0.3,0.1-0.4v0c0.2-0.7-0.3-1.5-1.1-1.5h-9.4c0.2-0.8,0.2-1.6,0.2-2.5c0-0.8-0.1-1.7-0.2-2.5h9.8c0.9,0,1.4-0.9,1-1.7
			c-0.3-0.6-0.5-1.3-0.5-2c0-2.4,2.1-4.3,4.6-4.1c1.9,0.2,3.5,1.9,3.6,3.8c0.1,2-1.2,3.8-3.2,4.2c-0.5,0.1-0.9,0.6-0.9,1.1v1
			c0,0.5,0.4,1,0.9,1.1l0,0C78.5,58.4,79.8,60.2,79.7,62.2z"/>
	</g>
	<path class="st0" d="M14.2,43.8L14.2,43.8c-0.7,0-1.2-0.6-1.1-1.3c0.7-4.9,5.1-8.8,10.6-9.3c0.7-0.1,1.3,0.5,1.3,1.1v0
		c0,0.6-0.4,1.1-1,1.1c-4.5,0.4-8,3.5-8.6,7.3C15.3,43.4,14.8,43.8,14.2,43.8z"/>
	<g>
		<path class="st1" d="M52,35.5c-4.7-3.1-11.2-5-18.3-5.4c-1.5-0.1-3.1-0.2-4.8-0.2c-4.7,0-9.6,0.5-13.1,2.6
			c-5.2,3.1-7.6,9.4-7.6,14.3c0,4.7,2.8,11.1,8,14.2c4,2.4,9.6,3.2,17.4,2.6c12.3-1,25.6-6.7,25.6-16.8C59.3,41.4,55.3,37.6,52,35.5
			z"/>
		<path class="st1" d="M76.6,48L76.6,48c-0.5-0.1-0.9-0.6-0.9-1.1v-1c0-0.5,0.4-1,0.9-1.1c1.9-0.4,3.3-2.2,3.2-4.2
			c-0.1-2-1.6-3.6-3.6-3.8c-2.5-0.3-4.6,1.6-4.6,4.1c0,0.7,0.2,1.4,0.5,2c0.4,0.8-0.1,1.7-1,1.7h-9.8c0.2,0.8,0.2,1.6,0.2,2.5
			c0,0.8-0.1,1.7-0.2,2.5h9.4c0.8,0,1.3,0.7,1.1,1.5v0c0,0.1-0.1,0.2-0.1,0.4c-0.5,2.8,1.8,5.2,4.5,4.8c1.9-0.2,3.5-1.9,3.6-3.8
			C79.8,50.2,78.5,48.4,76.6,48z"/>
		<path class="st3" d="M79.4,46.9c-0.3-0.2-0.3-0.7,0-1c1.6-1.2,2.6-3.1,2.6-5.2c0-3.3-2.6-6-5.9-6.3c-3.7-0.3-6.8,2.7-6.8,6.3
			c0,0.5,0.1,0.9,0.2,1.4h-8.8c-3-7.8-13.4-13.6-26.8-14.3c-6.1-0.4-13.9-0.4-19.1,2.8C8.7,34.2,6,41.4,6,46.9
			C6,52,8.9,59.3,15.1,63c3.5,2.1,8,3.1,13.8,3.1c1.6,0,3.2-0.1,4.9-0.2c7.5-0.6,14.3-2.7,19.2-5.8c3.8-2.4,6.3-5.3,7.6-8.5h8.7
			c0,0,0,0,0,0c-0.2,3.3,2.3,6.3,5.7,6.6c3.8,0.4,7-2.6,7-6.3C82,49.9,81,48,79.4,46.9z M33.7,63.7c-7.7,0.6-13.4-0.2-17.4-2.6
			c-5.3-3.2-8-9.6-8-14.2c0-4.9,2.3-11.2,7.6-14.3c3.5-2.1,8.4-2.6,13.1-2.6c1.6,0,3.2,0.1,4.8,0.2c7.1,0.4,13.6,2.3,18.3,5.4
			c3.3,2.2,7.3,5.9,7.3,11.4C59.3,56.9,46,62.6,33.7,63.7z M79.7,52.2c-0.1,2-1.6,3.6-3.6,3.8c-2.7,0.3-5-2.1-4.5-4.8
			c0-0.1,0.1-0.3,0.1-0.4v0c0.2-0.7-0.3-1.5-1.1-1.5h-9.4c0.2-0.8,0.2-1.6,0.2-2.5c0-0.8-0.1-1.7-0.2-2.5h9.8c0.9,0,1.4-0.9,1-1.7
			c-0.3-0.6-0.5-1.3-0.5-2c0-2.4,2.1-4.3,4.6-4.1c1.9,0.2,3.5,1.9,3.6,3.8c0.1,2-1.2,3.8-3.2,4.2c-0.5,0.1-0.9,0.6-0.9,1.1v1
			c0,0.5,0.4,1,0.9,1.1l0,0C78.5,48.4,79.8,50.2,79.7,52.2z"/>
	</g>
</g>
</svg>
