<?xml version="1.0" encoding="utf-8"?>
<!-- Generator: Adobe Illustrator 21.0.0, SVG Export Plug-In . SVG Version: 6.00 Build 0)  -->
<svg version="1.1" id="图层_1" xmlns="http://www.w3.org/2000/svg" xmlns:xlink="http://www.w3.org/1999/xlink" x="0px" y="0px"
	 viewBox="0 0 88 88" style="enable-background:new 0 0 88 88;" xml:space="preserve">
<style type="text/css">
	.st0{opacity:0.3;}
	.st1{fill:#FF9C00;}
	.st2{fill:#FFFFFF;}
</style>
<g>
	<path class="st0" d="M74.7,83H13.3c-1.8,0-3.3-1.5-3.3-3.3V18.3c0-1.8,1.5-3.3,3.3-3.3h61.5c1.8,0,3.3,1.5,3.3,3.3v61.5
		C78,81.5,76.5,83,74.7,83z M13.3,17.4c-0.5,0-0.9,0.4-0.9,0.9v61.5c0,0.5,0.4,0.9,0.9,0.9h61.5c0.5,0,0.9-0.4,0.9-0.9V18.3
		c0-0.5-0.4-0.9-0.9-0.9H13.3z"/>
	<polygon class="st1" points="37.1,24 30.6,24 30.6,17.5 28.2,17.5 28.2,24 21.7,24 21.7,26.4 28.2,26.4 28.2,32.9 30.6,32.9 
		30.6,26.4 37.1,26.4 	"/>
	<rect x="50.7" y="24" class="st1" width="15.4" height="2.4"/>
	<polygon class="st1" points="35.7,49.8 34,48.1 29.4,52.7 24.8,48.1 23.1,49.8 27.7,54.4 23.1,59 24.8,60.7 29.4,56.1 34,60.7 
		35.7,59 31.1,54.4 	"/>
	<g>
		<rect x="50.7" y="56.7" class="st1" width="15.4" height="2.4"/>
		<rect x="50.7" y="49.7" class="st1" width="15.4" height="2.4"/>
	</g>
	<path class="st2" d="M74.7,73H13.3c-1.8,0-3.3-1.5-3.3-3.3V8.3C10,6.5,11.5,5,13.3,5h61.5C76.5,5,78,6.5,78,8.3v61.5
		C78,71.5,76.5,73,74.7,73z M13.3,7.4c-0.5,0-0.9,0.4-0.9,0.9v61.5c0,0.5,0.4,0.9,0.9,0.9h61.5c0.5,0,0.9-0.4,0.9-0.9V8.3
		c0-0.5-0.4-0.9-0.9-0.9H13.3z"/>
</g>
</svg>
