<?xml version="1.0" encoding="utf-8"?>
<!-- Generator: Adobe Illustrator 21.0.0, SVG Export Plug-In . SVG Version: 6.00 Build 0)  -->
<svg version="1.1" id="图层_1" xmlns="http://www.w3.org/2000/svg" xmlns:xlink="http://www.w3.org/1999/xlink" x="0px" y="0px"
	 viewBox="0 0 88 88" style="enable-background:new 0 0 88 88;" xml:space="preserve">
<style type="text/css">
	.st0{fill:#FF9C00;}
	.st1{fill:none;}
	.st2{opacity:0.3;}
	.st3{fill:#FFFFFF;}
</style>
<g>
	<path class="st0" d="M54.6,44.4c-0.4,0-0.7,0.2-0.9,0.5c-1.6,2.4-4.3,4.1-7.4,4.1c-3.1,0-5.8-1.6-7.3-3.9c-0.1-0.1-0.1-0.2-0.2-0.3
		c-0.1-0.1-0.2-0.3-0.3-0.4c-2-2.8-5.3-4.6-8.9-4.6c-3.9,0-7.3,2-9.3,5.1c-0.5,0.7-0.2,1.5,0.7,1.7c0.5,0.1,0.9-0.1,1.2-0.5
		c1.6-2.5,4.3-4.1,7.4-4.1c3.1,0,5.7,1.6,7.3,3.9c0.1,0.1,0.1,0.2,0.2,0.3c0.1,0.1,0.2,0.3,0.3,0.4c2,2.7,5.2,4.5,8.9,4.5
		c3.9,0,7.3-2,9.3-5.1C56,45.3,55.5,44.4,54.6,44.4z"/>
	<g>
		<rect x="18.4" y="30.3" class="st1" width="39.1" height="49.5"/>
		<path class="st1" d="M67.2,45.4c-1-0.9-2.3-1.4-3.7-1.4h-3.9V64c7.9-5.6,9.8-10,10-12.8C69.8,48.1,68,46.1,67.2,45.4z"/>
		<path class="st2" d="M68.7,43.8c-1.4-1.3-3.3-1.9-5.2-1.9h-3.9V28.1H16.2V82h43.5V66.6c7.7-5.2,11.8-10.4,12.2-15.3
			C72.1,47.3,69.7,44.7,68.7,43.8z M57.4,79.8H18.4V30.3h39.1V79.8z M69.6,51.2c-0.2,2.8-2.1,7.2-10,12.8V44h3.9
			c1.4,0,2.7,0.5,3.7,1.4C68,46.1,69.8,48.1,69.6,51.2z"/>
	</g>
	<path class="st2" d="M26.5,25.4L26.5,25.4c-0.4-0.4-0.4-1.1,0-1.6l7.8-7.8c0.4-0.4,1.1-0.4,1.6,0v0c0.4,0.4,0.4,1.1,0,1.6l-7.8,7.8
		C27.7,25.8,27,25.8,26.5,25.4z"/>
	<path class="st2" d="M45.7,25.4L45.7,25.4c-0.4-0.4-0.4-1.1,0-1.6l7.8-7.8c0.4-0.4,1.1-0.4,1.6,0v0c0.4,0.4,0.4,1.1,0,1.6l-7.8,7.8
		C46.9,25.8,46.2,25.8,45.7,25.4z"/>
	<g>
		<rect x="18.4" y="20.5" class="st1" width="39.1" height="49.5"/>
		<path class="st1" d="M67.2,35.7c-1-0.9-2.3-1.4-3.7-1.4h-3.9v19.9c7.9-5.6,9.8-10,10-12.8C69.8,38.3,68,36.4,67.2,35.7z"/>
		<path class="st3" d="M68.7,34c-1.4-1.3-3.3-1.9-5.2-1.9h-3.9V18.3H16.2v53.9h43.5V56.9c7.7-5.2,11.8-10.4,12.2-15.3
			C72.1,37.5,69.7,34.9,68.7,34z M57.4,70.1H18.4V20.5h39.1V70.1z M69.6,41.4c-0.2,2.8-2.1,7.2-10,12.8V34.3h3.9
			c1.4,0,2.7,0.5,3.7,1.4C68,36.4,69.8,38.3,69.6,41.4z"/>
	</g>
	<path class="st3" d="M26.5,15.7L26.5,15.7c-0.4-0.4-0.4-1.1,0-1.6l7.8-7.8c0.4-0.4,1.1-0.4,1.6,0v0c0.4,0.4,0.4,1.1,0,1.6l-7.8,7.8
		C27.7,16.1,27,16.1,26.5,15.7z"/>
	<path class="st3" d="M45.7,15.7L45.7,15.7c-0.4-0.4-0.4-1.1,0-1.6l7.8-7.8c0.4-0.4,1.1-0.4,1.6,0v0c0.4,0.4,0.4,1.1,0,1.6l-7.8,7.8
		C46.9,16.1,46.2,16.1,45.7,15.7z"/>
</g>
</svg>
