<?xml version="1.0" encoding="utf-8"?>
<!-- Generator: Adobe Illustrator 21.0.0, SVG Export Plug-In . SVG Version: 6.00 Build 0)  -->
<svg version="1.1" id="图层_1" xmlns="http://www.w3.org/2000/svg" xmlns:xlink="http://www.w3.org/1999/xlink" x="0px" y="0px"
	 viewBox="0 0 88 88" style="enable-background:new 0 0 88 88;" xml:space="preserve">
<style type="text/css">
	.st0{opacity:0.3;}
	.st1{fill:#FF9C00;}
	.st2{fill:#FFFFFF;}
</style>
<g>
	<path class="st0" d="M36.5,78c-0.6,0-1.2,0-1.8-0.1c-4.7-0.4-9.1-2.1-12.8-5c-0.6-0.4-1.3-0.5-1.9-0.2c-1.2,0.6-2.5,0.8-3.9,0.5
		c-2.5-0.5-4.4-2.6-4.7-5.1c-0.3-2.1,0.5-4,2-5.2c0.5-0.5,0.7-1.2,0.5-1.9c-2.8-9.5,0.6-19.7,8.7-25.6l15.7-11.4
		c8.5-6.2,20.1-5.9,28.2,0.5c0.5,0.4,1.2,0.5,1.7,0.3c0.9-0.4,1.9-0.5,2.9-0.4c3.2,0.3,5.5,3,5.4,6.1C76.5,32,76,33.3,75,34.3
		c-0.4,0.5-0.6,1.1-0.4,1.7c1.3,4.3,1.4,8.9,0.2,13.2c-1.4,5.1-4.5,9.7-8.9,12.8L50.3,73.5C46.3,76.4,41.5,78,36.5,78z M20.1,69.5
		c0.4-0.5,1.2-0.6,1.7-0.1l0.1,0.1c4.1,4,9.3,6,14.7,6c4.3,0,8.6-1.3,12.4-4l15.7-11.4c7.9-5.8,10.8-16.1,7-25.1l0-0.1
		c-0.2-0.6,0-1.2,0.6-1.5l0.1,0c1.3-0.7,2.1-2.1,1.9-3.6c-0.2-1.3-1.2-2.5-2.5-2.8c-1.2-0.3-2.4,0-3.3,0.8l-0.1,0.1
		c-0.4,0.4-1.1,0.4-1.6,0l-0.1-0.1c-7.3-6.9-18.6-7.6-26.7-1.7L24.2,37.5c-7.9,5.7-10.8,16-7.1,25l0,0.1c0.3,0.6-0.1,1.3-0.7,1.5
		l0,0c-1.3,0.4-2.3,1.6-2.5,2.9c-0.2,2.2,1.6,4,3.8,3.8C18.6,70.8,19.5,70.3,20.1,69.5L20.1,69.5z"/>
	<path class="st1" d="M52.7,50.4L52.7,50.4c-1.1,0-2-0.9-2-2v0c0-1.1,0.9-2,2-2h0c1.1,0,2,0.9,2,2v0C54.7,49.5,53.8,50.4,52.7,50.4z
		"/>
	<path class="st1" d="M58.2,52.4L58.2,52.4c-1.1,0-2-0.9-2-2v0c0-1.1,0.9-2,2-2h0c1.1,0,2,0.9,2,2v0C60.2,51.5,59.3,52.4,58.2,52.4z
		"/>
	<path class="st1" d="M51.7,56.8L51.7,56.8c-1.1,0-2-0.9-2-2v0c0-1.1,0.9-2,2-2h0c1.1,0,2,0.9,2,2v0C53.7,55.9,52.8,56.8,51.7,56.8z
		"/>
	<path class="st1" d="M45.3,61.2L45.3,61.2c-1.1,0-2-0.9-2-2v0c0-1.1,0.9-2,2-2h0c1.1,0,2,0.9,2,2v0C47.3,60.3,46.4,61.2,45.3,61.2z
		"/>
	<path class="st1" d="M45.3,54.1L45.3,54.1c-1.1,0-2-0.9-2-2v0c0-1.1,0.9-2,2-2h0c1.1,0,2,0.9,2,2v0C47.3,53.2,46.4,54.1,45.3,54.1z
		"/>
	<path class="st2" d="M36.5,68.4c-0.6,0-1.2,0-1.8-0.1c-4.7-0.4-9.1-2.1-12.8-5c-0.6-0.4-1.3-0.5-1.9-0.2c-1.2,0.6-2.5,0.8-3.9,0.5
		c-2.5-0.5-4.4-2.6-4.7-5.1c-0.3-2.1,0.5-4,2-5.2c0.5-0.5,0.7-1.2,0.5-1.9c-2.8-9.5,0.6-19.7,8.7-25.6l15.7-11.4
		c8.5-6.2,20.1-5.9,28.2,0.5c0.5,0.4,1.2,0.5,1.7,0.3c0.9-0.4,1.9-0.5,2.9-0.4c3.2,0.3,5.5,3,5.4,6.1c-0.1,1.4-0.6,2.8-1.6,3.8
		c-0.4,0.5-0.6,1.1-0.4,1.7c1.3,4.3,1.4,8.9,0.2,13.2c-1.4,5.1-4.5,9.7-8.9,12.8L50.3,63.9C46.3,66.8,41.5,68.4,36.5,68.4z M20.1,60
		c0.4-0.5,1.2-0.6,1.7-0.1l0.1,0.1c4.1,4,9.3,6,14.7,6c4.3,0,8.6-1.3,12.4-4l15.7-11.4c7.9-5.8,10.8-16.1,7-25.1l0-0.1
		c-0.2-0.6,0-1.2,0.6-1.5l0.1,0c1.3-0.7,2.1-2.1,1.9-3.6c-0.2-1.3-1.2-2.5-2.5-2.8c-1.2-0.3-2.4,0-3.3,0.8l-0.1,0.1
		c-0.4,0.4-1.1,0.4-1.6,0l-0.1-0.1c-7.3-6.9-18.6-7.6-26.7-1.7L24.2,27.9c-7.9,5.7-10.8,16-7.1,25l0,0.1c0.3,0.6-0.1,1.3-0.7,1.5h0
		c-1.3,0.4-2.3,1.6-2.5,2.9c-0.2,2.2,1.6,4,3.8,3.8C18.6,61.2,19.5,60.7,20.1,60L20.1,60z"/>
</g>
</svg>
