<?xml version="1.0" encoding="utf-8"?>
<!-- Generator: Adobe Illustrator 21.0.0, SVG Export Plug-In . SVG Version: 6.00 Build 0)  -->
<svg version="1.1" id="图层_1" xmlns="http://www.w3.org/2000/svg" xmlns:xlink="http://www.w3.org/1999/xlink" x="0px" y="0px"
	 viewBox="0 0 88 88" style="enable-background:new 0 0 88 88;" xml:space="preserve">
<style type="text/css">
	.st0{opacity:0.3;}
	.st1{fill:#FFFFFF;}
	.st2{fill:#FF9707;}
</style>
<g>
	<path class="st0" d="M44,82.6c-18.8,0-34.1-15.3-34.1-34.1S25.2,14.3,44,14.3s34.1,15.3,34.1,34.1S62.8,82.6,44,82.6z M44,16.6
		c-17.6,0-31.8,14.3-31.8,31.8C12.2,66,26.4,80.3,44,80.3S75.8,66,75.8,48.4C75.8,30.9,61.6,16.6,44,16.6z"/>
	<path class="st1" d="M59.8,35.6H28.2c-4.6,0-8.3-3.8-8.3-8.4c0-4.6,3.7-8.4,8.3-8.4h31.5c4.6,0,8.3,3.8,8.3,8.4
		C68.1,31.8,64.4,35.6,59.8,35.6z M28.2,21.1c-3.3,0-6,2.7-6,6s2.7,6,6,6h31.5c3.3,0,6-2.7,6-6s-2.7-6-6-6H28.2z"/>
	<g>
		<ellipse class="st2" cx="32.7" cy="27.2" rx="3.3" ry="3.3"/>
		<ellipse class="st2" cx="55.3" cy="27.2" rx="3.3" ry="3.3"/>
	</g>
	<path class="st1" d="M44,73.7c-18.8,0-34.1-15.3-34.1-34.1S25.2,5.4,44,5.4s34.1,15.3,34.1,34.1S62.8,73.7,44,73.7z M44,7.7
		C26.4,7.7,12.2,22,12.2,39.6c0,17.6,14.3,31.8,31.8,31.8s31.8-14.3,31.8-31.8C75.8,22,61.6,7.7,44,7.7z"/>
</g>
</svg>
