<?xml version="1.0" encoding="utf-8"?>
<!-- Generator: Adobe Illustrator 21.0.0, SVG Export Plug-In . SVG Version: 6.00 Build 0)  -->
<svg version="1.1" id="图层_1" xmlns="http://www.w3.org/2000/svg" xmlns:xlink="http://www.w3.org/1999/xlink" x="0px" y="0px"
	 viewBox="0 0 88 88" style="enable-background:new 0 0 88 88;" xml:space="preserve">
<style type="text/css">
	.st0{opacity:0.3;}
	.st1{fill:#FF9900;}
	.st2{fill:#FFFFFF;}
</style>
<g>
	<path class="st0" d="M16.6,83c-0.4,0-0.9-0.1-1.2-0.3c-0.8-0.5-1.2-1.3-1.2-2.2l0-63.1c0-0.9,0.5-1.8,1.3-2.3
		c0.8-0.4,1.7-0.4,2.5,0L73,47.4c1.1,0.6,1.1,2.2,0,2.9L17.9,82.7C17.5,82.9,17.1,83,16.6,83z M16.9,17.7V80L70,48.9L16.9,17.7z"/>
	<path class="st1" d="M43.7,30.3L26.2,20.1c-0.7-0.4-0.9-1.2-0.5-1.9l0,0c0.4-0.7,1.2-0.9,1.9-0.5l17.5,10.1
		c0.7,0.4,0.9,1.2,0.5,1.9v0C45.2,30.4,44.4,30.7,43.7,30.3z"/>
	<path class="st2" d="M16.6,73.2c-0.4,0-0.9-0.1-1.2-0.3c-0.8-0.5-1.2-1.3-1.2-2.2l0-63.1c0-0.9,0.5-1.8,1.3-2.3
		c0.8-0.4,1.7-0.4,2.5,0L73,37.7c1.1,0.6,1.1,2.2,0,2.9L17.9,72.9C17.5,73.1,17.1,73.2,16.6,73.2z M16.9,8v62.3L70,39.1L16.9,8z"/>
</g>
</svg>
