<?xml version="1.0" encoding="utf-8"?>
<!-- Generator: Adobe Illustrator 21.0.0, SVG Export Plug-In . SVG Version: 6.00 Build 0)  -->
<svg version="1.1" id="图层_1" xmlns="http://www.w3.org/2000/svg" xmlns:xlink="http://www.w3.org/1999/xlink" x="0px" y="0px"
	 viewBox="0 0 88 88" style="enable-background:new 0 0 88 88;" xml:space="preserve">
<style type="text/css">
	.st0{fill:#FF9C00;}
	.st1{opacity:0.3;}
	.st2{fill:#FFFFFF;}
</style>
<g>
	<path class="st0" d="M62.2,38.2H44.9V11.4c0-0.6-0.5-1.2-1.1-1.2c-0.6,0-1.1,0.5-1.1,1.2v29.1h0.2h2h17.3c0.6,0,1.1-0.5,1.1-1.1
		S62.8,38.2,62.2,38.2z"/>
	<path class="st1" d="M44,83C25.2,83,9.9,67.7,9.9,48.9S25.2,14.8,44,14.8s34.1,15.3,34.1,34.1S62.8,83,44,83z M44,17
		c-17.6,0-31.8,14.3-31.8,31.8c0,17.6,14.3,31.8,31.8,31.8s31.8-14.3,31.8-31.8C75.8,31.3,61.6,17,44,17z"/>
	<path class="st2" d="M44,73.2c-18.8,0-34.1-15.3-34.1-34.1S25.2,5,44,5s34.1,15.3,34.1,34.1S62.8,73.2,44,73.2z M44,7.3
		c-17.6,0-31.8,14.3-31.8,31.8C12.2,56.7,26.4,71,44,71s31.8-14.3,31.8-31.8C75.8,21.6,61.6,7.3,44,7.3z"/>
</g>
</svg>
