<?xml version="1.0" encoding="utf-8"?>
<!-- Generator: Adobe Illustrator 21.0.0, SVG Export Plug-In . SVG Version: 6.00 Build 0)  -->
<svg version="1.1" id="图层_1" xmlns="http://www.w3.org/2000/svg" xmlns:xlink="http://www.w3.org/1999/xlink" x="0px" y="0px"
	 viewBox="0 0 88 88" style="enable-background:new 0 0 88 88;" xml:space="preserve">
<style type="text/css">
	.st0{fill:none;}
	.st1{opacity:0.3;}
	.st2{fill:#FF9900;}
	.st3{fill:#FFFFFF;}
</style>
<g>
	<g>
		<path class="st0" d="M44,58.6c15,0,27.3-12.1,27.7-27H16.3C16.7,46.6,29,58.6,44,58.6z"/>
		<path class="st0" d="M74.2,31.6C73.9,48,60.5,61.2,44,61.2S14.1,48,13.8,31.6H8.6C8.9,50.8,24.7,66.4,44,66.4s35.1-15.5,35.4-34.8
			H74.2z"/>
		<path class="st1" d="M82,29h-1.1h-1.5h-5.2h-2.6H16.4h-2.6H8.6H6.4H6c0,0.6,0,1.3,0,1.9c0,21,17,38,38,38s38-17,38-38
			C82,30.3,82,29.7,82,29z M71.7,31.6c-0.4,14.9-12.6,27-27.7,27s-27.3-12.1-27.7-27H71.7z M44,66.4c-19.3,0-35.1-15.5-35.4-34.8
			h5.2C14.1,48,27.5,61.2,44,61.2S73.9,48,74.2,31.6h5.2C79.1,50.8,63.3,66.4,44,66.4z"/>
	</g>
	<path class="st2" d="M44,35.6L44,35.6c0.7,0,1.2,0.3,1.4,0.6l0.9,2.1c0.9,2.2,0.4,5.9-2.3,5.9h0c-2.7,0-3.3-3.7-2.3-5.9l0.9-2.1
		C42.8,35.9,43.3,35.6,44,35.6z"/>
	<path class="st2" d="M51.6,34.3L51.6,34.3c0.5-0.4,1.2-0.5,1.5-0.3l2,1.2c2,1.2,3.8,4.6,1.6,6.2l0,0c-2.2,1.6-4.8-1.1-5.3-3.5
		l-0.5-2.2C50.7,35.2,51,34.6,51.6,34.3z"/>
	<path class="st2" d="M36.9,34.3L36.9,34.3c-0.5-0.4-1.2-0.5-1.5-0.3l-2,1.2c-2,1.2-3.8,4.6-1.6,6.2l0,0c2.2,1.6,4.8-1.1,5.3-3.5
		l0.5-2.2C37.8,35.2,37.5,34.6,36.9,34.3z"/>
	<path class="st2" d="M30.3,27.1L30.3,27.1c-0.5-0.5-1.1-0.7-1.4-0.5l-2.1,0.9c-2.2,0.9-4.4,4-2.5,5.8l0,0c1.9,1.9,4.9-0.4,5.8-2.6
		l0.8-2.1C31,28.1,30.8,27.5,30.3,27.1z"/>
	<path class="st2" d="M58.2,27.1L58.2,27.1c0.5-0.5,1.1-0.7,1.4-0.5l2.1,0.9c2.2,0.9,4.4,4,2.5,5.8l0,0c-1.9,1.9-4.9-0.4-5.8-2.6
		l-0.8-2.1C57.5,28.1,57.7,27.5,58.2,27.1z"/>
	<g>
		<path class="st0" d="M44,48.6c15,0,27.3-12.1,27.7-27H16.3C16.7,36.6,29,48.6,44,48.6z"/>
		<path class="st0" d="M74.2,21.6C73.9,38,60.5,51.2,44,51.2S14.1,38,13.8,21.6H8.6C8.9,40.8,24.7,56.4,44,56.4s35.1-15.5,35.4-34.8
			H74.2z"/>
		<path class="st3" d="M82,19h-1.1h-1.5h-5.2h-2.6H16.4h-2.6H8.6H6.4H6c0,0.6,0,1.3,0,1.9c0,21,17,38,38,38s38-17,38-38
			C82,20.3,82,19.7,82,19z M71.7,21.6c-0.4,14.9-12.6,27-27.7,27s-27.3-12.1-27.7-27H71.7z M44,56.4c-19.3,0-35.1-15.5-35.4-34.8
			h5.2C14.1,38,27.5,51.2,44,51.2S73.9,38,74.2,21.6h5.2C79.1,40.8,63.3,56.4,44,56.4z"/>
	</g>
</g>
</svg>
