<?xml version="1.0" encoding="utf-8"?>
<!-- Generator: Adobe Illustrator 21.0.0, SVG Export Plug-In . SVG Version: 6.00 Build 0)  -->
<svg version="1.1" id="图层_1" xmlns="http://www.w3.org/2000/svg" xmlns:xlink="http://www.w3.org/1999/xlink" x="0px" y="0px"
	 viewBox="0 0 88 88" style="enable-background:new 0 0 88 88;" xml:space="preserve">
<style type="text/css">
	.st0{fill:#FF9C00;}
	.st1{opacity:0.3;}
	.st2{fill:#FFFFFF;}
</style>
<g>
	<circle class="st0" cx="59.9" cy="39.1" r="13.8"/>
	<path class="st1" d="M60.3,66.6H27.7c-9.8,0-17.7-7.9-17.7-17.7s7.9-17.7,17.7-17.7h32.6c9.8,0,17.7,7.9,17.7,17.7
		S70.1,66.6,60.3,66.6z M27.7,33.5c-8.5,0-15.4,6.9-15.4,15.4s6.9,15.4,15.4,15.4h32.6c8.5,0,15.4-6.9,15.4-15.4
		s-6.9-15.4-15.4-15.4H27.7z"/>
	<path class="st2" d="M60.3,56.8H27.7c-9.8,0-17.7-7.9-17.7-17.7s7.9-17.7,17.7-17.7h32.6c9.8,0,17.7,7.9,17.7,17.7
		S70.1,56.8,60.3,56.8z M27.7,23.7c-8.5,0-15.4,6.9-15.4,15.4s6.9,15.4,15.4,15.4h32.6c8.5,0,15.4-6.9,15.4-15.4
		s-6.9-15.4-15.4-15.4H27.7z"/>
</g>
</svg>
