<?xml version="1.0" encoding="utf-8"?>
<!-- Generator: Adobe Illustrator 21.0.0, SVG Export Plug-In . SVG Version: 6.00 Build 0)  -->
<svg version="1.1" id="图层_1" xmlns="http://www.w3.org/2000/svg" xmlns:xlink="http://www.w3.org/1999/xlink" x="0px" y="0px"
	 viewBox="0 0 88 88" style="enable-background:new 0 0 88 88;" xml:space="preserve">
<style type="text/css">
	.st0{fill:#FF9900;}
	.st1{opacity:0.3;}
	.st2{fill:none;}
	.st3{fill:#FFFFFF;}
</style>
<g>
	<g>
		<ellipse class="st0" cx="33" cy="28.8" rx="4.2" ry="4.2"/>
		<ellipse class="st0" cx="55" cy="28.8" rx="4.2" ry="4.2"/>
	</g>
	<path class="st1" d="M44,83.1C25.2,83.1,9.9,67.8,9.9,49S25.2,14.9,44,14.9S78.1,30.2,78.1,49S62.8,83.1,44,83.1z M44,17.2
		c-17.6,0-31.8,14.3-31.8,31.8c0,17.6,14.3,31.8,31.8,31.8S75.8,66.6,75.8,49C75.8,31.4,61.6,17.2,44,17.2z"/>
	<g>
		<path class="st2" d="M47.6,44.5h-7.3V56c1.2,0.3,2.4,0.4,3.6,0.4c1.3,0,2.5-0.2,3.6-0.4V44.5z"/>
		<path class="st2" d="M38,44.5h-8.9c1.1,4.9,4.5,8.8,8.9,10.7V44.5z"/>
		<path class="st2" d="M50,55.2c4.4-1.9,7.8-5.8,8.9-10.7H50V55.2z"/>
		<path class="st0" d="M61,42.7c-0.3-0.4-0.8-0.6-1.3-0.6H28.3c-0.5,0-1,0.2-1.3,0.6c-0.3,0.4-0.5,0.9-0.4,1.4
			c1.5,8.5,8.8,14.6,17.4,14.6s15.9-6.1,17.4-14.6C61.5,43.7,61.3,43.1,61,42.7z M29.1,44.5H38v10.7C33.6,53.3,30.2,49.4,29.1,44.5z
			 M40.4,56V44.5h7.3V56c-1.2,0.3-2.4,0.4-3.6,0.4C42.7,56.4,41.5,56.3,40.4,56z M50,55.2V44.5h8.9C57.8,49.4,54.4,53.3,50,55.2z"/>
	</g>
	<path class="st3" d="M44,73.1C25.2,73.1,9.9,57.8,9.9,39S25.2,4.9,44,4.9S78.1,20.2,78.1,39S62.8,73.1,44,73.1z M44,7.2
		C26.4,7.2,12.2,21.4,12.2,39c0,17.6,14.3,31.8,31.8,31.8S75.8,56.6,75.8,39C75.8,21.4,61.6,7.2,44,7.2z"/>
</g>
</svg>
