<?xml version="1.0" encoding="utf-8"?>
<!-- Generator: Adobe Illustrator 21.0.0, SVG Export Plug-In . SVG Version: 6.00 Build 0)  -->
<svg version="1.1" id="图层_1" xmlns="http://www.w3.org/2000/svg" xmlns:xlink="http://www.w3.org/1999/xlink" x="0px" y="0px"
	 viewBox="0 0 88 88" style="enable-background:new 0 0 88 88;" xml:space="preserve">
<style type="text/css">
	.st0{fill:none;}
	.st1{opacity:0.3;}
	.st2{fill:#FF9C00;}
	.st3{fill:#FFFFFF;}
</style>
<g>
	<g>
		<path class="st0" d="M47.5,60.9L29.8,43.2c-0.6-0.6-1.6-0.6-2.3,0L12.4,58.3v17.5c0,0.4,0.4,0.8,0.9,0.8h21.3h3.2h25.4L49.1,62.5
			L47.5,60.9z"/>
		<path class="st0" d="M62.7,49.5c-0.4,0-0.8,0.2-1.1,0.5L50.7,60.9l15.7,15.7h8.3c0.5,0,0.9-0.3,0.9-0.8V61.7L63.9,49.9
			C63.6,49.6,63.2,49.5,62.7,49.5z"/>
		<path class="st0" d="M74.7,21.4H13.3c-0.5,0-0.9,0.3-0.9,0.8v32.9l13.5-13.5c0.7-0.7,1.7-1.1,2.7-1.1c1,0,2,0.4,2.7,1.1l17.7,17.7
			L60,48.3c0.7-0.7,1.7-1.1,2.7-1.1c1,0,2,0.4,2.7,1.1l10.1,10.1V22.2C75.6,21.8,75.2,21.4,74.7,21.4z"/>
		<path class="st1" d="M74.7,19.3H13.3c-1.8,0-3.3,1.3-3.3,2.8v35.3v3.2v15.1c0,0.1,0,0.2,0,0.3c0.2,1.2,1.1,2.1,2.4,2.4
			c0.3,0.1,0.5,0.1,0.8,0.1h23.4h3.2h25.4h3.2h6.3c1.8,0,3.3-1.3,3.3-2.8V64.1v-3.2V22.2C78,20.6,76.5,19.3,74.7,19.3z M37.8,76.6
			h-3.2H13.3c-0.5,0-0.9-0.3-0.9-0.8V58.3l15.1-15.1c0.6-0.6,1.6-0.6,2.3,0l17.7,17.7l1.6,1.6l14.1,14.1H37.8z M75.6,75.8
			c0,0.4-0.4,0.8-0.9,0.8h-8.3L50.7,60.9l10.9-10.9c0.3-0.3,0.7-0.5,1.1-0.5c0.4,0,0.8,0.2,1.1,0.5l11.8,11.8V75.8z M75.6,58.5
			L65.5,48.3c-0.7-0.7-1.7-1.1-2.7-1.1c-1,0-2,0.4-2.7,1.1L49.1,59.3L31.4,41.6c-0.7-0.7-1.7-1.1-2.7-1.1c-1,0-2,0.4-2.7,1.1
			L12.4,55.1V22.2c0-0.4,0.4-0.8,0.9-0.8h61.5c0.5,0,0.9,0.3,0.9,0.8V58.5z"/>
	</g>
	<circle class="st2" cx="52.2" cy="24.2" r="6.6"/>
	<g>
		<path class="st0" d="M47.5,50.9L29.8,33.2c-0.6-0.6-1.6-0.6-2.3,0L12.4,48.3v17.5c0,0.4,0.4,0.8,0.9,0.8h21.3h3.2h25.4L49.1,52.5
			L47.5,50.9z"/>
		<path class="st0" d="M62.7,39.5c-0.4,0-0.8,0.2-1.1,0.5L50.7,50.9l15.7,15.7h8.3c0.5,0,0.9-0.3,0.9-0.8V51.7L63.9,39.9
			C63.6,39.6,63.2,39.5,62.7,39.5z"/>
		<path class="st0" d="M74.7,11.4H13.3c-0.5,0-0.9,0.3-0.9,0.8v32.9l13.5-13.5c0.7-0.7,1.7-1.1,2.7-1.1c1,0,2,0.4,2.7,1.1l17.7,17.7
			L60,38.3c0.7-0.7,1.7-1.1,2.7-1.1c1,0,2,0.4,2.7,1.1l10.1,10.1V12.2C75.6,11.8,75.2,11.4,74.7,11.4z"/>
		<path class="st3" d="M74.7,9.3H13.3c-1.8,0-3.3,1.3-3.3,2.8v35.3v3.2v15.1c0,0.1,0,0.2,0,0.3c0.2,1.2,1.1,2.1,2.4,2.4
			c0.3,0.1,0.5,0.1,0.8,0.1h23.4h3.2h25.4h3.2h6.3c1.8,0,3.3-1.3,3.3-2.8V54.1v-3.2V12.2C78,10.6,76.5,9.3,74.7,9.3z M37.8,66.6
			h-3.2H13.3c-0.5,0-0.9-0.3-0.9-0.8V48.3l15.1-15.1c0.6-0.6,1.6-0.6,2.3,0l17.7,17.7l1.6,1.6l14.1,14.1H37.8z M75.6,65.8
			c0,0.4-0.4,0.8-0.9,0.8h-8.3L50.7,50.9l10.9-10.9c0.3-0.3,0.7-0.5,1.1-0.5c0.4,0,0.8,0.2,1.1,0.5l11.8,11.8V65.8z M75.6,48.5
			L65.5,38.3c-0.7-0.7-1.7-1.1-2.7-1.1c-1,0-2,0.4-2.7,1.1L49.1,49.3L31.4,31.6c-0.7-0.7-1.7-1.1-2.7-1.1c-1,0-2,0.4-2.7,1.1
			L12.4,45.1V12.2c0-0.4,0.4-0.8,0.9-0.8h61.5c0.5,0,0.9,0.3,0.9,0.8V48.5z"/>
	</g>
</g>
</svg>
