<?xml version="1.0" encoding="utf-8"?>
<!-- Generator: Adobe Illustrator 21.0.0, SVG Export Plug-In . SVG Version: 6.00 Build 0)  -->
<svg version="1.1" id="图层_1" xmlns="http://www.w3.org/2000/svg" xmlns:xlink="http://www.w3.org/1999/xlink" x="0px" y="0px"
	 viewBox="0 0 88 88" style="enable-background:new 0 0 88 88;" xml:space="preserve">
<style type="text/css">
	.st0{fill:none;stroke:#FFFFFF;stroke-miterlimit:10;stroke-dasharray:10;}
	.st1{fill:none;}
	.st2{opacity:0.3;}
	.st3{fill:#FFFFFF;}
	.st4{fill:#FF9900;}
</style>
<g>
	<path class="st0" d="M60,26.2"/>
	<g>
		<path class="st1" d="M43.9,23.4c-3.2,0-5.7,2.6-5.7,5.7c0,2.7,1.9,5,4.4,5.6V33c0-0.7,0.6-1.3,1.3-1.3c0.7,0,1.3,0.6,1.3,1.3v1.7
			c2.5-0.6,4.4-2.9,4.4-5.6C49.6,26,47.1,23.4,43.9,23.4z"/>
		<path class="st2" d="M69.9,26.4l6.6-1c0.7-0.1,1.2-0.8,1.1-1.5c-0.1-0.7-0.8-1.2-1.5-1.1l-24.3,3.8c-0.9-3-3.5-5.2-6.6-5.7v-1.6
			c0-0.7-0.6-1.3-1.3-1.3c-0.7,0-1.3,0.6-1.3,1.3v1.6c-4,0.6-7,4.1-7,8.2c0,0,0,0,0,0l-23.8,3.7c-0.7,0.1-1.2,0.8-1.1,1.5
			c0.1,0.7,0.8,1.2,1.5,1.1l5.3-0.8L6,56.4v0.7l2,1.1l12.4-23.3l12.4,23.3l2-1.1v-0.7l-12-22.5L36,31.8c1,2.9,3.5,5.1,6.6,5.6v40H29
			c-0.7,0-1.3,0.6-1.3,1.3c0,0.7,0.6,1.3,1.3,1.3h29.8c0.7,0,1.3-0.6,1.3-1.3c0-0.7-0.6-1.3-1.3-1.3H45.2v-40c4-0.6,7-4,7-8.2
			l12.6-2L53.2,49.1v0.7l2,1.1l12.4-23.3L80,50.9l2-1.1v-0.7L69.9,26.4z M45.2,34.7V33c0-0.7-0.6-1.3-1.3-1.3
			c-0.7,0-1.3,0.6-1.3,1.3v1.7c-2.5-0.6-4.4-2.9-4.4-5.6c0-3.2,2.6-5.7,5.7-5.7c3.2,0,5.7,2.6,5.7,5.7
			C49.6,31.8,47.7,34.1,45.2,34.7z"/>
	</g>
	<g>
		<path class="st1" d="M43.9,13.4c-3.2,0-5.7,2.6-5.7,5.7c0,2.7,1.9,5,4.4,5.6V23c0-0.7,0.6-1.3,1.3-1.3c0.7,0,1.3,0.6,1.3,1.3v1.7
			c2.5-0.6,4.4-2.9,4.4-5.6C49.6,16,47.1,13.4,43.9,13.4z"/>
		<path class="st3" d="M69.9,16.4l6.6-1c0.7-0.1,1.2-0.8,1.1-1.5c-0.1-0.7-0.8-1.2-1.5-1.1l-24.3,3.8c-0.9-3-3.5-5.2-6.6-5.7V9.3
			c0-0.7-0.6-1.3-1.3-1.3c-0.7,0-1.3,0.6-1.3,1.3v1.6c-4,0.6-7,4.1-7,8.2c0,0,0,0,0,0l-23.8,3.7c-0.7,0.1-1.2,0.8-1.1,1.5
			c0.1,0.7,0.8,1.2,1.5,1.1l5.3-0.8L6,46.4v0.7l2,1.1l12.4-23.3l12.4,23.3l2-1.1v-0.7l-12-22.5L36,21.8c1,2.9,3.5,5.1,6.6,5.6v40H29
			c-0.7,0-1.3,0.6-1.3,1.3c0,0.7,0.6,1.3,1.3,1.3h29.8c0.7,0,1.3-0.6,1.3-1.3c0-0.7-0.6-1.3-1.3-1.3H45.2v-40c4-0.6,7-4,7-8.2
			l12.6-2L53.2,39.1v0.7l2,1.1l12.4-23.3L80,40.9l2-1.1v-0.7L69.9,16.4z M45.2,24.7V23c0-0.7-0.6-1.3-1.3-1.3
			c-0.7,0-1.3,0.6-1.3,1.3v1.7c-2.5-0.6-4.4-2.9-4.4-5.6c0-3.2,2.6-5.7,5.7-5.7c3.2,0,5.7,2.6,5.7,5.7
			C49.6,21.8,47.7,24.1,45.2,24.7z"/>
	</g>
	<path class="st4" d="M67.6,54.9c-7.9,0-14.4-6.5-14.4-14.4v-1.3H82v1.3C82,48.5,75.5,54.9,67.6,54.9z M55.9,41.9
		c0.7,5.9,5.6,10.5,11.7,10.5s11-4.6,11.7-10.5H55.9z"/>
	<path class="st4" d="M20.4,62.2C12.5,62.2,6,55.8,6,47.8v-1.3h28.8v1.3C34.8,55.8,28.3,62.2,20.4,62.2z M8.7,49.2
		c0.7,5.9,5.6,10.5,11.7,10.5s11-4.6,11.7-10.5H8.7z"/>
</g>
</svg>
