<?xml version="1.0" encoding="utf-8"?>
<!-- Generator: Adobe Illustrator 21.0.0, SVG Export Plug-In . SVG Version: 6.00 Build 0)  -->
<svg version="1.1" id="图层_1" xmlns="http://www.w3.org/2000/svg" xmlns:xlink="http://www.w3.org/1999/xlink" x="0px" y="0px"
	 viewBox="0 0 88 88" style="enable-background:new 0 0 88 88;" xml:space="preserve">
<style type="text/css">
	.st0{opacity:0.3;}
	.st1{fill:#FFFFFF;}
	.st2{fill:#FF9C00;}
</style>
<g>
	<path class="st0" d="M15.9,82.3L15.9,82.3c-0.6,0-1.1-0.5-1.1-1.1V16.8c0-0.6,0.5-1.1,1.1-1.1h0c0.6,0,1.1,0.5,1.1,1.1v64.3
		C17.1,81.8,16.6,82.3,15.9,82.3z"/>
	<path class="st0" d="M44,82.3L44,82.3c-0.6,0-1.1-0.5-1.1-1.1V16.9c0-0.6,0.5-1.1,1.1-1.1l0,0c0.6,0,1.1,0.5,1.1,1.1v64.2
		C45.1,81.7,44.6,82.3,44,82.3z"/>
	<path class="st0" d="M72.1,82.3L72.1,82.3c-0.6,0-1.1-0.5-1.1-1.1V16.9c0-0.6,0.5-1.1,1.1-1.1l0,0c0.6,0,1.1,0.5,1.1,1.1v64.2
		C73.2,81.7,72.7,82.3,72.1,82.3z"/>
	<path class="st0" d="M15.9,58.5c-3.3,0-5.9-2.7-5.9-5.9c0-3.3,2.7-5.9,5.9-5.9s5.9,2.7,5.9,5.9C21.9,55.8,19.2,58.5,15.9,58.5z
		 M15.9,48.9c-2,0-3.7,1.6-3.7,3.7c0,2,1.6,3.7,3.7,3.7s3.7-1.6,3.7-3.7C19.6,50.5,17.9,48.9,15.9,48.9z"/>
	<path class="st0" d="M44,43.8c-3.3,0-5.9-2.7-5.9-5.9c0-3.3,2.7-5.9,5.9-5.9s5.9,2.7,5.9,5.9C49.9,41.1,47.3,43.8,44,43.8z
		 M44,34.2c-2,0-3.7,1.6-3.7,3.7c0,2,1.6,3.7,3.7,3.7s3.7-1.6,3.7-3.7C47.7,35.8,46,34.2,44,34.2z"/>
	<path class="st0" d="M72.1,58.5c-3.3,0-5.9-2.7-5.9-5.9c0-3.3,2.7-5.9,5.9-5.9c3.3,0,5.9,2.7,5.9,5.9C78,55.8,75.3,58.5,72.1,58.5z
		 M72.1,48.9c-2,0-3.7,1.6-3.7,3.7c0,2,1.6,3.7,3.7,3.7c2,0,3.7-1.6,3.7-3.7C75.7,50.5,74.1,48.9,72.1,48.9z"/>
	<path class="st1" d="M15.9,72.3L15.9,72.3c-0.6,0-1.1-0.5-1.1-1.1V6.8c0-0.6,0.5-1.1,1.1-1.1h0c0.6,0,1.1,0.5,1.1,1.1v64.3
		C17.1,71.8,16.6,72.3,15.9,72.3z"/>
	<path class="st1" d="M44,72.3L44,72.3c-0.6,0-1.1-0.5-1.1-1.1V6.9c0-0.6,0.5-1.1,1.1-1.1l0,0c0.6,0,1.1,0.5,1.1,1.1v64.2
		C45.1,71.7,44.6,72.3,44,72.3z"/>
	<path class="st1" d="M72.1,72.3L72.1,72.3c-0.6,0-1.1-0.5-1.1-1.1V6.9c0-0.6,0.5-1.1,1.1-1.1l0,0c0.6,0,1.1,0.5,1.1,1.1v64.2
		C73.2,71.7,72.7,72.3,72.1,72.3z"/>
	<circle class="st2" cx="44" cy="27.8" r="5.9"/>
	<circle class="st2" cx="72.1" cy="42.6" r="5.9"/>
	<circle class="st2" cx="15.9" cy="42.6" r="5.9"/>
</g>
</svg>
