<?xml version="1.0" encoding="utf-8"?>
<!-- Generator: Adobe Illustrator 21.0.0, SVG Export Plug-In . SVG Version: 6.00 Build 0)  -->
<svg version="1.1" id="图层_1" xmlns="http://www.w3.org/2000/svg" xmlns:xlink="http://www.w3.org/1999/xlink" x="0px" y="0px"
	 viewBox="0 0 88 88" style="enable-background:new 0 0 88 88;" xml:space="preserve">
<style type="text/css">
	.st0{opacity:0.3;}
	.st1{fill:#FF9C00;}
	.st2{fill:none;}
	.st3{fill:#FFFFFF;}
</style>
<g>
	<path class="st0" d="M57.1,70.4h-36c-8.4,0-15.2-6.9-15.2-15.3v-1.8c0-11.7,9.5-21.3,21.2-21.3h6.1c17,0,30.7,13.9,30.7,30.9v0.6
		C63.9,67.4,60.9,70.4,57.1,70.4z M27.1,34.2C16.6,34.2,8,42.8,8,53.4v1.8c0,7.3,5.9,13.2,13.1,13.2h36c2.6,0,4.7-2.1,4.7-4.7V63
		c0-15.9-12.8-28.8-28.6-28.8H27.1z"/>
	<path class="st1" d="M55.6,57.5c-0.4,0-0.8,0-1.2-0.1c-0.6-0.1-1.1-0.6-0.9-1.3l0,0c0.1-0.5,0.6-0.9,1.2-0.9c1.4,0.2,3,0.1,3.8-0.9
		c0.8-0.9,0.8-2.3,0.7-3.3c-0.1-0.5,0.3-1,0.8-1.1l0,0c0.6-0.2,1.3,0.2,1.3,0.9c0.2,1.3,0.1,3.5-1.2,5C59,56.9,57.5,57.5,55.6,57.5z
		"/>
	<g>
		<path class="st2" d="M77.5,25.1c0,0-0.1,0.1-0.2,0.1l-5.4,4.7c-0.8,0.7-1.8,1.1-2.8,1.1l-13.6,0.3l-0.1,0l-0.1,0
			c-0.7-0.1-1.8-0.1-3-0.1c-3.3,0.1-7.6,0.6-9.7,2.4c-0.4,0.3-0.9,0.4-1.3,0.1c-0.6-0.4-0.6-1.2-0.1-1.7c2.1-1.8,5.6-2.5,8.6-2.8
			c-4.6-3.2-10.3-5.1-16.4-5.1h-6.1c-10.6,0-19.1,8.6-19.1,19.1V45c0,7.3,5.9,13.1,13.1,13.1H57c2.9,0,5.3-2.4,5.3-5.3v0
			c0-2.3-0.3-4.5-0.8-6.6c-3.3,3.1-6.2,5.3-8.7,6.7c-2.3,1.3-3.9,1.6-4.9,1.6c-0.7,0-1.1-0.7-0.8-1.3l0,0c0.2-0.5,0.7-0.8,1.2-0.8
			c1.5-0.2,5.2-1.5,12.5-8.5c0.5-0.5,1.1-1.1,1.7-1.7c2.5-2.5,5.3-5.6,8.5-9.4l0.1-0.1c0.1-0.1,2.9-2.7,8.2-4
			c0.4-0.1,0.6-0.4,0.7-0.7C80.2,26.3,79.4,25.4,77.5,25.1z"/>
		<path class="st2" d="M55.4,29.2c0.1,0,0.1,0,0.2,0l1.8,0c0-0.1,0.1-0.2,0.2-0.3c1.2-1.4,4.1-4,9.7-5.2c0.9-0.2,1.4-0.9,1.5-1.6
			c0.1-0.8-0.2-1.5-0.8-1.9c-0.4-0.3-0.9-0.4-1.5-0.5c-0.5-0.1-1,0.1-1.4,0.4l-4.4,4.3c-1,1-2.3,1.5-3.7,1.5L48.7,26
			c1.6,0.9,3.1,1.9,4.5,3.1C54.3,29.1,55.1,29.2,55.4,29.2z"/>
		<path class="st3" d="M82.1,26.8c-0.3-2.1-1.8-3.5-4.3-3.9c-0.6-0.1-1.3,0.1-1.9,0.6l-5.4,4.7c-0.4,0.4-0.9,0.6-1.4,0.6l-8.7,0.2
			c1.4-1.2,3.7-2.6,7.4-3.4c1.6-0.3,2.8-1.6,3.1-3.3c0.3-1.6-0.4-3.2-1.7-4c-0.6-0.4-1.4-0.7-2.3-0.8c-1.2-0.2-2.4,0.2-3.3,1
			l-4.4,4.3c-0.6,0.6-1.4,0.9-2.2,0.9L44.3,24c-3.4-1.3-7-1.9-10.8-1.9h-6.1C15.6,22,6.1,31.5,6.1,43.3V45c0,8.4,6.8,15.3,15.3,15.3
			h36.2c3.8,0,6.8-3,6.8-6.8v-0.6c0-2.9-0.4-5.7-1.1-8.3c2.9-2.8,6-6.2,9.3-10.2c0.1-0.1,0.1-0.2,0.2-0.2c0.6-0.5,2.8-2.2,6.4-3.1
			C81,30.5,82.3,28.8,82.1,26.8z M57.1,25.9c1.4,0,2.7-0.6,3.7-1.5l4.4-4.3c0.4-0.4,0.9-0.5,1.4-0.4c0.6,0.1,1.1,0.3,1.5,0.5
			c0.6,0.4,0.9,1.1,0.8,1.9c-0.1,0.6-0.6,1.4-1.5,1.6c-5.7,1.2-8.5,3.8-9.7,5.2c-0.1,0.1-0.1,0.2-0.2,0.3l-1.8,0c-0.1,0-0.1,0-0.2,0
			c-0.3,0-1.2-0.1-2.2-0.1c-1.4-1.2-2.9-2.2-4.5-3.1L57.1,25.9z M79.9,28.1c0,0.4-0.3,0.7-0.7,0.7c-5.3,1.3-8.1,3.9-8.2,4L71,32.9
			c-3.2,3.9-6.1,6.9-8.5,9.4c-0.6,0.6-1.1,1.1-1.7,1.7c-7.3,7-11,8.3-12.5,8.5c-0.5,0.1-1,0.4-1.2,0.8l0,0c-0.3,0.6,0.1,1.3,0.8,1.3
			c1,0,2.6-0.3,4.9-1.6c2.5-1.4,5.5-3.6,8.7-6.7c0.5,2.1,0.8,4.3,0.8,6.6v0.6c0,2.6-2.1,4.7-4.7,4.7H21.4c-7.3,0-13.1-5.9-13.1-13.1
			v-1.8c0-10.6,8.6-19.1,19.1-19.1h6.1c6.1,0,11.7,1.9,16.4,5.1c-3,0.3-6.4,1-8.5,2.7c-0.5,0.4-0.6,1.1-0.1,1.6
			c0.4,0.4,1,0.4,1.4,0.1c2.1-1.8,6.5-2.3,9.8-2.4c1.2,0,2.3,0,3,0.1l0.1,0l0.1,0L69.1,31c1,0,2-0.4,2.8-1.1l5.4-4.7
			c0.1-0.1,0.2-0.1,0.2-0.1C79.4,25.4,80.2,26.3,79.9,28.1z"/>
	</g>
</g>
</svg>
