<?xml version="1.0" encoding="utf-8"?>
<!-- Generator: Adobe Illustrator 21.0.0, SVG Export Plug-In . SVG Version: 6.00 Build 0)  -->
<svg version="1.1" id="图层_1" xmlns="http://www.w3.org/2000/svg" xmlns:xlink="http://www.w3.org/1999/xlink" x="0px" y="0px"
	 viewBox="0 0 88 88" style="enable-background:new 0 0 88 88;" xml:space="preserve">
<style type="text/css">
	.st0{opacity:0.3;}
	.st1{fill:none;}
	.st2{fill:#FFFFFF;}
	.st3{fill:#FF9900;}
</style>
<g>
	<g>
		<path class="st0" d="M24.5,64.5c-0.5-0.1-1.1,0.2-1.3,0.7l-4,10.6c-0.5,1.2-1.6,2-2.9,2.1l-4.8,0.2c-0.6,0-1,0.5-1,1.1v0
			c0,0.6,0.5,1.1,1.1,1.1l4.8-0.2c2.2-0.1,4.1-1.5,4.8-3.5l4-10.6C25.5,65.3,25.2,64.7,24.5,64.5z"/>
		<path class="st0" d="M63.6,64.5c0.5-0.1,1.1,0.2,1.3,0.7l4,10.6c0.5,1.2,1.6,2,2.9,2.1l4.8,0.2c0.6,0,1,0.5,1,1.1v0
			c0,0.6-0.5,1.1-1.1,1.1l-4.8-0.2c-2.2-0.1-4.1-1.5-4.8-3.5l-4-10.6C62.6,65.3,63,64.7,63.6,64.5z"/>
		<g>
			<circle class="st1" cx="44" cy="21.4" r="2"/>
			<path class="st1" d="M44,34.5c-12.6,0-23.1,10-23.9,22.5c7.2,1.8,15.5,2.7,23.9,2.7c8.4,0,16.7-0.9,23.9-2.7
				C67.1,44.5,56.6,34.5,44,34.5z"/>
			<path class="st0" d="M70.1,57.8c-0.2-6.8-3-13.2-7.9-18c-4.6-4.5-10.7-7.2-17.2-7.4v-6.9c1.8-0.5,3-2.1,3-4
				c0-2.3-1.9-4.1-4.1-4.1s-4.1,1.9-4.1,4.1c0,1.9,1.3,3.5,3,4v6.9c-6.5,0.3-12.5,2.9-17.2,7.4c-4.9,4.8-7.7,11.2-7.9,18l0,0.9
				l0.8,0.2c7.6,2,16.3,3,25.3,3c9,0,17.7-1,25.3-3l0.8-0.2L70.1,57.8z M42,21.4c0-1.1,0.9-2,2-2s2,0.9,2,2c0,1.1-0.9,2-2,2
				S42,22.5,42,21.4z M44,59.7c-8.4,0-16.7-0.9-23.9-2.7C20.9,44.5,31.4,34.5,44,34.5s23.1,10,23.9,22.5
				C60.7,58.8,52.4,59.7,44,59.7z"/>
		</g>
	</g>
	<g>
		<path class="st2" d="M24.5,54.9c-0.5-0.1-1.1,0.2-1.3,0.7l-4,10.6c-0.5,1.2-1.6,2-2.9,2.1l-4.8,0.2c-0.6,0-1,0.5-1,1.1l0,0
			c0,0.6,0.5,1.1,1.1,1.1l4.8-0.2c2.2-0.1,4.1-1.5,4.8-3.5l4-10.6C25.5,55.7,25.2,55,24.5,54.9z"/>
		<path class="st2" d="M63.6,54.9c0.5-0.1,1.1,0.2,1.3,0.7l4,10.6c0.5,1.2,1.6,2,2.9,2.1l4.8,0.2c0.6,0,1,0.5,1,1.1l0,0
			c0,0.6-0.5,1.1-1.1,1.1l-4.8-0.2c-2.2-0.1-4.1-1.5-4.8-3.5l-4-10.6C62.6,55.7,63,55,63.6,54.9z"/>
		<g>
			<circle class="st1" cx="44" cy="11.8" r="2"/>
			<path class="st1" d="M44,24.9c-12.6,0-23.1,10-23.9,22.5c7.2,1.8,15.5,2.7,23.9,2.7c8.4,0,16.7-0.9,23.9-2.7
				C67.1,34.9,56.6,24.9,44,24.9z"/>
			<path class="st2" d="M70.1,48.2c-0.2-6.8-3-13.2-7.9-18c-4.6-4.5-10.7-7.2-17.2-7.4v-6.9c1.8-0.5,3-2.1,3-4
				c0-2.3-1.9-4.1-4.1-4.1s-4.1,1.9-4.1,4.1c0,1.9,1.3,3.5,3,4v6.9c-6.5,0.3-12.5,2.9-17.2,7.4c-4.9,4.8-7.7,11.2-7.9,18l0,0.9
				l0.8,0.2c7.6,2,16.3,3,25.3,3c9,0,17.7-1,25.3-3l0.8-0.2L70.1,48.2z M42,11.8c0-1.1,0.9-2,2-2s2,0.9,2,2s-0.9,2-2,2
				S42,12.9,42,11.8z M44,50.1c-8.4,0-16.7-0.9-23.9-2.7C20.9,34.9,31.4,24.9,44,24.9s23.1,10,23.9,22.5
				C60.7,49.1,52.4,50.1,44,50.1z"/>
		</g>
	</g>
	<path class="st3" d="M68.5,39.9c0.3,0.8,0.5,1.6,0.7,2.4c0.2,0,0.4,0.1,0.6,0.1c7.4,1.7,10,3.6,10,4.8c0,1.2-2.6,3.2-10,4.8
		C63,53.7,53.8,54.6,44,54.6s-19-0.9-25.9-2.4c-7.4-1.7-10-3.6-10-4.8c0-1.2,2.6-3.2,10-4.8c0.2,0,0.4-0.1,0.6-0.1
		c0.2-0.8,0.5-1.6,0.7-2.4C11.5,41.5,6,44,6,47.3c0,6.2,19.1,9.4,38,9.4s38-3.2,38-9.4C82,44,76.5,41.5,68.5,39.9z"/>
</g>
</svg>
