<?xml version="1.0" encoding="utf-8"?>
<!-- Generator: Adobe Illustrator 23.0.0, SVG Export Plug-In . SVG Version: 6.00 Build 0)  -->
<svg version="1.1" id="图层_1" xmlns="http://www.w3.org/2000/svg" xmlns:xlink="http://www.w3.org/1999/xlink" x="0px" y="0px"
	 viewBox="0 0 120 120" style="enable-background:new 0 0 120 120;" xml:space="preserve">
<style type="text/css">
	.st0{fill:#E8E8F2;}
	.st1{fill:#2F2F2F;}
	.st2{fill:#4FA6FF;}
</style>
<g>
	<path class="st0" d="M102.8,37.4h-1.9c-0.9-10.6-9.8-18.9-20.6-18.9s-19.7,8.3-20.6,18.9h-1.9c-9.1,0-16.6,7.4-16.6,16.6v0
		c0,9.1,7.4,16.6,16.6,16.6h45.1c9.1,0,16.6-7.4,16.6-16.6v0C119.3,44.8,111.9,37.4,102.8,37.4z"/>
	<g>
		<path class="st1" d="M76.6,90.2h-0.7c-1.1,0-2-0.9-2-2l0,0c0-1.1,0.9-2,2-2h0.8c9.7,0,18.1-7.6,18.4-17.3
			c0.4-10.2-7.8-18.7-18-18.7H73l-0.2-1.8c-1-11.8-11.1-21-22.9-21c-11.8,0-21.9,9.2-22.9,21l-0.2,1.8h-3.7
			c-9.7,0-18.1,7.6-18.4,17.3c-0.4,10.2,7.8,18.7,18,18.7h1.2c1.1,0,2,0.9,2,2v0c0,1.1-0.9,2-2,2h-0.7C11.3,90.2,1.1,81,0.7,69.1
			c-0.5-12.5,9.6-22.8,22-22.8h0.6c2-12.9,13.4-22.8,26.7-22.8c13.3,0,24.7,9.9,26.7,22.8h0.6c12.4,0,22.5,10.3,22,22.8
			C98.7,81,88.5,90.2,76.6,90.2z"/>
		<path class="st1" d="M41.4,61.5c-1,0.4-2-0.1-2.5-1c-3-6.2-9.3-10.2-16.2-10.2c-7.6,0-14.4,4.8-16.9,11.9L2,60.8
			c3.1-8.7,11.4-14.6,20.7-14.6c8.5,0,16.2,5,19.9,12.6C43,59.8,42.5,61.1,41.4,61.5L41.4,61.5z"/>
		<path class="st2" d="M62.9,90.2h-26c-1.1,0-2-0.9-2-2l0,0c0-1.1,0.9-2,2-2h26c1.1,0,2,0.9,2,2l0,0C64.9,89.3,64,90.2,62.9,90.2z"
			/>
		<path class="st2" d="M54.7,100.5L41.7,78c-0.6-1-0.2-2.2,0.7-2.7l0,0c1-0.6,2.2-0.2,2.7,0.7l13,22.5c0.6,1,0.2,2.2-0.7,2.7h0
			C56.5,101.8,55.2,101.4,54.7,100.5z"/>
		<path class="st2" d="M41.7,98.5l13-22.5c0.6-1,1.8-1.3,2.7-0.7l0,0c1,0.6,1.3,1.8,0.7,2.7l-13,22.5c-0.6,1-1.8,1.3-2.7,0.7h0
			C41.5,100.7,41.1,99.4,41.7,98.5z"/>
	</g>
</g>
</svg>
