<?xml version="1.0" encoding="utf-8"?>
<!-- Generator: Adobe Illustrator 23.0.0, SVG Export Plug-In . SVG Version: 6.00 Build 0)  -->
<svg version="1.1" id="图层_1" xmlns="http://www.w3.org/2000/svg" xmlns:xlink="http://www.w3.org/1999/xlink" x="0px" y="0px"
	 viewBox="0 0 120 120" style="enable-background:new 0 0 120 120;" xml:space="preserve">
<style type="text/css">
	.st0{fill:#E8E8F2;}
	.st1{fill:url(#SVGID_1_);}
	.st2{fill:url(#SVGID_2_);}
	.st3{fill:url(#SVGID_3_);}
	.st4{fill:none;stroke:#FFCD4B;stroke-width:4;stroke-miterlimit:10;}
	.st5{fill:#2F2F2F;}
</style>
<g>
	<path class="st0" d="M102.8,32.9h-1.9C99.9,22.3,91.1,14,80.2,14s-19.7,8.3-20.6,18.9h-1.9c-9.1,0-16.6,7.4-16.6,16.6v0
		c0,9.1,7.4,16.6,16.6,16.6h45.1c9.1,0,16.6-7.4,16.6-16.6v0C119.3,40.3,111.9,32.9,102.8,32.9z"/>
	<g>
		<linearGradient id="SVGID_1_" gradientUnits="userSpaceOnUse" x1="49.9115" y1="88.759" x2="49.9115" y2="71.8595">
			<stop  offset="0" style="stop-color:#3F9FFF"/>
			<stop  offset="1" style="stop-color:#86C2FF"/>
		</linearGradient>
		<path class="st1" d="M49.9,71.9l4.9,4.9c2.7,2.7,2.7,7.2,0,9.9l0,0c-2.7,2.7-7.2,2.7-9.9,0l0,0c-2.7-2.7-2.7-7.2,0-9.9L49.9,71.9z
			"/>
		<linearGradient id="SVGID_2_" gradientUnits="userSpaceOnUse" x1="35.7267" y1="105.9764" x2="35.7267" y2="89.0769">
			<stop  offset="0" style="stop-color:#3F9FFF"/>
			<stop  offset="1" style="stop-color:#86C2FF"/>
		</linearGradient>
		<path class="st2" d="M35.7,89.1l4.9,4.9c2.7,2.7,2.7,7.2,0,9.9l0,0c-2.7,2.7-7.2,2.7-9.9,0l0,0c-2.7-2.7-2.7-7.2,0-9.9L35.7,89.1z
			"/>
		<linearGradient id="SVGID_3_" gradientUnits="userSpaceOnUse" x1="64.0962" y1="105.9764" x2="64.0962" y2="89.0769">
			<stop  offset="0" style="stop-color:#3F9FFF"/>
			<stop  offset="1" style="stop-color:#86C2FF"/>
		</linearGradient>
		<path class="st3" d="M64.1,89.1L69,94c2.7,2.7,2.7,7.2,0,9.9l0,0c-2.7,2.7-7.2,2.7-9.9,0l0,0c-2.7-2.7-2.7-7.2,0-9.9L64.1,89.1z"
			/>
		<path class="st4" d="M25.9,79.1"/>
		<path class="st5" d="M76.6,85.7h-0.7c-1.1,0-2-0.9-2-2v0c0-1.1,0.9-2,2-2h0.8c9.7,0,18.1-7.6,18.4-17.3c0.4-10.2-7.8-18.7-18-18.7
			H73l-0.2-1.8c-1-11.8-11.1-21-22.9-21c-11.8,0-21.9,9.2-22.9,21l-0.2,1.8h-3.7C13.4,45.7,5,53.3,4.7,63
			c-0.4,10.2,7.8,18.7,18,18.7h1.2c1.1,0,2,0.9,2,2v0c0,1.1-0.9,2-2,2h-0.7c-11.9,0-22.1-9.2-22.5-21.2c-0.5-12.5,9.6-22.8,22-22.8
			h0.6c2-12.9,13.4-22.8,26.7-22.8c13.3,0,24.7,9.9,26.7,22.8h0.6c12.4,0,22.5,10.3,22,22.8C98.7,76.5,88.5,85.7,76.6,85.7z"/>
		<path class="st4" d="M73.9,79.1"/>
		<path class="st5" d="M41.4,57c-1,0.4-2-0.1-2.5-1c-3-6.2-9.3-10.2-16.2-10.2c-7.6,0-14.4,4.8-16.9,11.9L2,56.3
			c3.1-8.7,11.4-14.6,20.7-14.6c8.5,0,16.2,5,19.9,12.6C43,55.3,42.5,56.6,41.4,57L41.4,57z"/>
	</g>
</g>
</svg>
