<?xml version="1.0" encoding="utf-8"?>
<!-- Generator: Adobe Illustrator 23.0.0, SVG Export Plug-In . SVG Version: 6.00 Build 0)  -->
<svg version="1.1" id="图层_1" xmlns="http://www.w3.org/2000/svg" xmlns:xlink="http://www.w3.org/1999/xlink" x="0px" y="0px"
	 viewBox="0 0 120 120" style="enable-background:new 0 0 120 120;" xml:space="preserve">
<style type="text/css">
	.st0{fill:#2F2F2F;}
	.st1{fill:url(#SVGID_1_);}
	.st2{fill:#9D7AFF;}
</style>
<g>
	<path class="st0" d="M58.5,99.4l-5.2,5.2c-0.8,0.8-2,0.8-2.8,0l0,0c-0.8-0.8-0.8-2,0-2.8l5.2-5.2c0.8-0.8,2-0.8,2.8,0h0
		C59.3,97.4,59.3,98.6,58.5,99.4z"/>
	<path class="st0" d="M57.1,83l-8.4,8.4c-0.8,0.8-2,0.8-2.8,0l0,0c-0.8-0.8-0.8-2,0-2.8l8.4-8.4c0.8-0.8,2-0.8,2.8,0h0
		C57.9,80.9,57.9,82.2,57.1,83z"/>
	<path class="st0" d="M80.6,80.2L69.3,91.5c-0.8,0.8-2,0.8-2.8,0v0c-0.8-0.8-0.8-2,0-2.8l11.3-11.3c0.8-0.8,2-0.8,2.8,0v0
		C81.4,78.2,81.4,79.4,80.6,80.2z"/>
	<path class="st0" d="M88.3,93.5L77,104.8c-0.8,0.8-2,0.8-2.8,0l0,0c-0.8-0.8-0.8-2,0-2.8l11.3-11.3c0.8-0.8,2-0.8,2.8,0l0,0
		C89,91.5,89,92.7,88.3,93.5z"/>
	<path class="st0" d="M38.1,90.9l-11.3,11.3c-0.8,0.8-2,0.8-2.8,0h0c-0.8-0.8-0.8-2,0-2.8l11.3-11.3c0.8-0.8,2-0.8,2.8,0l0,0
		C38.9,88.9,38.9,90.2,38.1,90.9z"/>
	<linearGradient id="SVGID_1_" gradientUnits="userSpaceOnUse" x1="88.5948" y1="64.5859" x2="88.5948" y2="14.5859">
		<stop  offset="0" style="stop-color:#865CFF"/>
		<stop  offset="1" style="stop-color:#B89FFF"/>
	</linearGradient>
	<path class="st1" d="M110.9,44.3c-9.9,0-18-8.1-18-18c0-4,1.3-7.6,3.5-10.6c-2.4-0.8-5-1.2-7.6-1.2c-13.8,0-25,11.2-25,25
		c0,13.8,11.2,25,25,25c12.2,0,22.4-8.8,24.6-20.4C112.6,44.3,111.8,44.3,110.9,44.3z"/>
	<circle class="st2" cx="31.1" cy="25.6" r="3"/>
	<circle class="st0" cx="13.3" cy="36.6" r="3"/>
	<circle class="st2" cx="24.5" cy="39.1" r="3"/>
	<path class="st0" d="M17.7,90.5C10.9,86.6,6.6,79.3,6.6,71.5c0-12.1,9.9-22,22-22c8.3,0,15.9,4.8,19.6,12.1c0.5,1,0,2.3-1.1,2.7h0
		c-1,0.4-2-0.1-2.5-1c-3-6.1-9.2-9.9-16-9.9c-9.9,0-18,8.1-18,18c0,6.4,3.5,12.4,9.1,15.6L17.7,90.5z"/>
	<path class="st0" d="M105,69.6c-1-11.5-10.9-20.1-22.4-20.1h-0.1c-2-12.9-13.4-22.8-26.7-22.8c-13.3,0-24.7,9.9-26.7,22.8h0
		c-11.9,0-22,9.2-22.5,21.1C6.2,80.9,13,89.8,22.5,92.6c1.3,0.4,2.6-0.6,2.6-2l0,0c0-0.9-0.6-1.7-1.5-2c-7.2-2.2-12.7-8.6-13-16.5
		c-0.4-10.2,7.8-18.7,18-18.7h4.2l0.2-1.8c1-11.8,11.1-21,22.9-21c11.8,0,21.9,9.2,22.9,21l0.2,1.8h3.7c9.7,0,18,7.5,18.4,17.2
		c0.2,4.4-1.2,8.5-3.7,11.7c-0.7,0.9-0.6,2.3,0.4,2.9c0.9,0.6,2.1,0.4,2.7-0.4C103.7,80.8,105.5,75.4,105,69.6z"/>
</g>
</svg>
