<?xml version="1.0" encoding="utf-8"?>
<!-- Generator: Adobe Illustrator 23.0.0, SVG Export Plug-In . SVG Version: 6.00 Build 0)  -->
<svg version="1.1" id="图层_1" xmlns="http://www.w3.org/2000/svg" xmlns:xlink="http://www.w3.org/1999/xlink" x="0px" y="0px"
	 viewBox="0 0 120 120" style="enable-background:new 0 0 120 120;" xml:space="preserve">
<style type="text/css">
	.st0{fill:#E8E8F2;}
	.st1{fill:#2F2F2F;}
	.st2{fill:none;stroke:#2F2F2F;stroke-width:4;stroke-linecap:round;stroke-miterlimit:10;}
</style>
<g>
	<path class="st0" d="M102.88,37.44h-1.94c-0.91-10.59-9.78-18.9-20.61-18.9s-19.7,8.31-20.61,18.9h-1.94
		c-9.14,0-16.55,7.41-16.55,16.55v0c0,9.14,7.41,16.55,16.55,16.55h45.1c9.14,0,16.55-7.41,16.55-16.55v0
		C119.43,44.85,112.02,37.44,102.88,37.44z"/>
	<path class="st1" d="M11.65,87.32C4.82,83.4,0.57,76.09,0.57,68.24c0-12.13,9.87-22,22-22c8.3,0,15.94,4.8,19.64,12.13
		c0.53,1.04,0,2.31-1.09,2.73h0c-0.97,0.37-2.04-0.06-2.51-0.99c-3.04-6.06-9.16-9.88-16.05-9.88c-9.93,0-18,8.07-18,18
		c0,6.42,3.47,12.4,9.06,15.61L11.65,87.32z"/>
	<path class="st1" d="M23.93,86.24h-0.92c-9.75,0-18.06-7.56-18.43-17.31C4.2,58.7,12.42,50.24,22.57,50.24h4.19l0.16-1.83
		C27.93,36.63,37.99,27.4,49.82,27.4c11.84,0,21.9,9.23,22.91,21.01l0.16,1.83h3.72c9.92,0,18.48,8.11,18.46,18.02
		c-0.01,4.13-1.41,7.93-3.77,10.96c-1.03,1.32-0.1,3.24,1.57,3.24h0c0.61,0,1.19-0.26,1.56-0.74c3.15-4.05,4.93-9.23,4.59-14.82
		c-0.7-11.7-10.75-20.66-22.47-20.66H76.5C74.47,33.3,63.1,23.4,49.82,23.4c-13.27,0-24.65,9.89-26.67,22.84h-0.04
		c-11.91,0-22.07,9.25-22.52,21.15c-0.47,12.52,9.57,22.85,21.98,22.85h1.36V86.24z"/>
	<circle class="st1" cx="23.89" cy="88.24" r="2"/>
	<g>
		<path class="st2" d="M39.34,87.32c5,0,5,4,10,4c5,0,5-4,10-4c5,0,5,4,10,4c5,0,5-4,10-4c5,0,5,4,10,4"/>
	</g>
	<g>
		<path class="st2" d="M21.5,99.46c5,0,5,4,10,4c5,0,5-4,10-4c5,0,5,4,10,4c5,0,5-4,10-4s5,4,10,4"/>
	</g>
	<g>
		<path class="st2" d="M30.5,74.46c6.23-0.02,6.24,3.98,12.46,3.96c6.23-0.02,6.22-4.02,12.45-4.04s6.24,3.98,12.47,3.96"/>
	</g>
</g>
</svg>
