<?xml version="1.0" encoding="utf-8"?>
<!-- Generator: Adobe Illustrator 23.0.0, SVG Export Plug-In . SVG Version: 6.00 Build 0)  -->
<svg version="1.1" id="图层_1" xmlns="http://www.w3.org/2000/svg" xmlns:xlink="http://www.w3.org/1999/xlink" x="0px" y="0px"
	 viewBox="0 0 120 120" style="enable-background:new 0 0 120 120;" xml:space="preserve">
<style type="text/css">
	.st0{fill:#E8E8F2;}
	.st1{fill:url(#SVGID_1_);}
	.st2{fill:none;stroke:#FFCD4B;stroke-width:4;stroke-miterlimit:10;}
	.st3{fill:#2F2F2F;}
</style>
<g>
	<path class="st0" d="M102.8,35.2h-1.9c-0.9-10.6-9.8-18.9-20.6-18.9s-19.7,8.3-20.6,18.9h-1.9c-9.1,0-16.6,7.4-16.6,16.6v0
		c0,9.1,7.4,16.6,16.6,16.6h45.1c9.1,0,16.6-7.4,16.6-16.6v0C119.3,42.6,111.9,35.2,102.8,35.2z"/>
	<g>
		<linearGradient id="SVGID_1_" gradientUnits="userSpaceOnUse" x1="49.9115" y1="103.6955" x2="49.9115" y2="72.3108">
			<stop  offset="0" style="stop-color:#3F9FFF"/>
			<stop  offset="1" style="stop-color:#86C2FF"/>
		</linearGradient>
		<path class="st1" d="M49.9,72.3l9.2,9.2c5.1,5.1,5.1,13.3,0,18.4l0,0c-5.1,5.1-13.3,5.1-18.4,0l0,0c-5.1-5.1-5.1-13.3,0-18.4
			L49.9,72.3z"/>
		<path class="st2" d="M25.9,81.4"/>
		<path class="st3" d="M76.6,88h-0.7c-1.1,0-2-0.9-2-2v0c0-1.1,0.9-2,2-2h0.8c9.7,0,18.1-7.6,18.4-17.3c0.4-10.2-7.8-18.7-18-18.7
			H73l-0.2-1.8c-1-11.8-11.1-21-22.9-21c-11.8,0-21.9,9.2-22.9,21L26.8,48l-3.7,0C13.4,48,5,55.6,4.7,65.3C4.3,75.5,12.5,84,22.7,84
			h1.2c1.1,0,2,0.9,2,2v0c0,1.1-0.9,2-2,2h-0.7C11.3,88,1.1,78.8,0.7,66.9C0.2,54.3,10.2,44,22.7,44h0.6c2-12.9,13.4-22.8,26.7-22.8
			c13.3,0,24.7,9.9,26.7,22.8h0.6c12.4,0,22.5,10.3,22,22.8C98.7,78.8,88.5,88,76.6,88z"/>
		<path class="st2" d="M73.9,81.4"/>
		<path class="st3" d="M41.4,59.3c-1,0.4-2-0.1-2.5-1C35.9,52,29.6,48,22.7,48c-7.6,0-14.4,4.8-16.9,11.9L2,58.6
			C5.1,49.9,13.4,44,22.7,44c8.5,0,16.2,5,19.9,12.6C43,57.6,42.5,58.9,41.4,59.3L41.4,59.3z"/>
	</g>
</g>
</svg>
