<?xml version="1.0" encoding="utf-8"?>
<!-- Generator: Adobe Illustrator 23.0.0, SVG Export Plug-In . SVG Version: 6.00 Build 0)  -->
<svg version="1.1" id="图层_1" xmlns="http://www.w3.org/2000/svg" xmlns:xlink="http://www.w3.org/1999/xlink" x="0px" y="0px"
	 viewBox="0 0 120 120" style="enable-background:new 0 0 120 120;" xml:space="preserve">
<style type="text/css">
	.st0{fill:#E4E4ED;}
	.st1{fill:none;stroke:#2F2F2F;stroke-width:4;stroke-miterlimit:10;}
	.st2{fill:#2F2F2F;}
	.st3{fill:#FF7A56;}
</style>
<g>
	<ellipse class="st0" cx="70.6" cy="79.3" rx="21.6" ry="8.6"/>
	<ellipse class="st0" cx="70.6" cy="59.4" rx="36" ry="15.2"/>
	<ellipse class="st1" cx="57.5" cy="49.5" rx="36" ry="15.2"/>
	<path class="st1" d="M57.5,64.6c-14.4,0-26,4.5-26,10c0,5.5,11.6,10,26,10"/>
	<path class="st1" d="M57.5,84.6c-8.8,0-16,3.2-16,7s7.2,7,16,7"/>
	<path class="st2" d="M57.5,100.7c-7.5,0-14.1-2.2-16.7-5.5l3.1-2.5c1.6,2,6.7,4,13.5,4c5.7,0,10.2-1.4,12.5-3
		c0.7-0.5,1.6-0.5,2.3,0l0.2,0.1c1,0.8,1,2.3-0.1,3C69.1,99.3,63.6,100.7,57.5,100.7z"/>
	<path class="st2" d="M57.5,86.6c-10.7,0-20.2-2.4-24.9-6.3l2.6-3.1c3.9,3.2,12.7,5.3,22.3,5.3c8.7,0,16.6-1.7,21-4.4
		c0.8-0.5,1.9-0.3,2.5,0.4h0c0.8,0.9,0.5,2.4-0.5,3C75.4,84.8,66.9,86.6,57.5,86.6z"/>
	<circle class="st3" cx="16.4" cy="64.6" r="3"/>
	<circle class="st3" cx="82.6" cy="22.3" r="3"/>
	<circle class="st3" cx="88.9" cy="72.8" r="3"/>
</g>
</svg>
