<?xml version="1.0" encoding="utf-8"?>
<!-- Generator: Adobe Illustrator 23.0.0, SVG Export Plug-In . SVG Version: 6.00 Build 0)  -->
<svg version="1.1" id="图层_1" xmlns="http://www.w3.org/2000/svg" xmlns:xlink="http://www.w3.org/1999/xlink" x="0px" y="0px"
	 viewBox="0 0 120 120" style="enable-background:new 0 0 120 120;" xml:space="preserve">
<style type="text/css">
	.st0{fill:#E8E8F2;}
	.st1{fill:#2F2F2F;}
</style>
<g>
	<path class="st0" d="M102.9,31.1h-1.9c-0.9-10.6-9.8-18.9-20.6-18.9s-19.7,8.3-20.6,18.9h-1.9c-9.1,0-16.6,7.4-16.6,16.6v0
		c0,9.1,7.4,16.6,16.6,16.6h45.1c9.1,0,16.6-7.4,16.6-16.6v0C119.4,38.5,112,31.1,102.9,31.1z"/>
	<path class="st1" d="M11.6,81C4.8,77,0.6,69.7,0.6,61.9c0-12.1,9.9-22,22-22c8.3,0,15.9,4.8,19.6,12.1c0.5,1,0,2.3-1.1,2.7h0
		c-1,0.4-2-0.1-2.5-1c-3-6.1-9.2-9.9-16-9.9c-9.9,0-18,8.1-18,18c0,6.4,3.5,12.4,9.1,15.6L11.6,81z"/>
	<path class="st1" d="M23.9,79.9H23c-9.7,0-18.1-7.6-18.4-17.3c-0.4-10.2,7.8-18.7,18-18.7h4.2l0.2-1.8c1-11.8,11.1-21,22.9-21
		c11.8,0,21.9,9.2,22.9,21l0.2,1.8h3.7c9.9,0,18.5,8.1,18.5,18c0,4.1-1.4,7.9-3.8,11c-1,1.3-0.1,3.2,1.6,3.2h0
		c0.6,0,1.2-0.3,1.6-0.7c3.2-4.1,4.9-9.2,4.6-14.8c-0.7-11.7-10.7-20.7-22.5-20.7h-0.1c-2-12.9-13.4-22.8-26.7-22.8
		c-13.3,0-24.7,9.9-26.7,22.8h0C11.2,39.9,1,49.1,0.6,61c-0.5,12.5,9.6,22.8,22,22.8h1.4V79.9z"/>
	<circle class="st1" cx="23.9" cy="81.9" r="2"/>
	<path class="st1" d="M91,95.8H75c-1.1,0-2-0.9-2-2l0,0c0-1.1,0.9-2,2-2h16c1.1,0,2,0.9,2,2v0C93,94.9,92.1,95.8,91,95.8z"/>
	<path class="st1" d="M54.1,83.9h-16c-1.1,0-2-0.9-2-2l0,0c0-1.1,0.9-2,2-2h16c1.1,0,2,0.9,2,2l0,0C56.1,83,55.2,83.9,54.1,83.9z"/>
	<path class="st1" d="M59.8,91.8h-38c-1.1,0-2,0.9-2,2s0.9,2,2,2h38c2.5,0,4.5,2.3,3.9,4.9c-0.3,1.4-1.5,2.6-2.9,2.9
		c-2.1,0.5-4.1-0.7-4.7-2.5c-0.3-0.8-1-1.3-1.8-1.3h-0.1c-1.3,0-2.3,1.3-1.9,2.5c1.2,3.6,5,6.1,9.2,5.3c3.1-0.6,5.6-3.1,6.2-6.2
		C68.7,96.3,64.8,91.8,59.8,91.8z"/>
	<g>
		<path class="st1" d="M59.7,81.9c0,1.1,0.9,2,2,2h11v-4h-11C60.6,79.9,59.7,80.8,59.7,81.9z"/>
		<path class="st1" d="M64.1,65.9c0,1.1,0.9,2,2,2h6.6v-4h-6.6C65,63.9,64.1,64.8,64.1,65.9z"/>
		<path class="st1" d="M72.7,63.9v4c3.3,0,6,2.7,6,6s-2.7,6-6,6v4c5.5,0,10-4.5,10-10S78.2,63.9,72.7,63.9z"/>
	</g>
</g>
</svg>
