<?xml version="1.0" encoding="utf-8"?>
<!-- Generator: Adobe Illustrator 23.0.0, SVG Export Plug-In . SVG Version: 6.00 Build 0)  -->
<svg version="1.1" id="图层_1" xmlns="http://www.w3.org/2000/svg" xmlns:xlink="http://www.w3.org/1999/xlink" x="0px" y="0px"
	 viewBox="0 0 120 120" style="enable-background:new 0 0 120 120;" xml:space="preserve">
<style type="text/css">
	.st0{fill:url(#SVGID_1_);}
	.st1{fill:#FFCD4B;}
	.st2{fill:#2F2F2F;}
</style>
<g>
	<linearGradient id="SVGID_1_" gradientUnits="userSpaceOnUse" x1="34.4902" y1="64.9464" x2="34.4902" y2="22.9464">
		<stop  offset="0" style="stop-color:#FFC14C"/>
		<stop  offset="1" style="stop-color:#FFCD4B"/>
	</linearGradient>
	<circle class="st0" cx="34.5" cy="43.9" r="21"/>
	<circle class="st1" cx="12.7" cy="23.7" r="3"/>
	<circle class="st1" cx="34.5" cy="15.1" r="3"/>
	<circle class="st1" cx="54.6" cy="23.7" r="3"/>
	<circle class="st1" cx="5.6" cy="43.9" r="3"/>
	<circle class="st1" cx="10.6" cy="63.6" r="3"/>
	<path class="st2" d="M31,91.2c-0.6,1-1.9,1.3-2.9,0.7c-5.8-4.1-9.3-10.8-9.3-17.9c0-12.1,9.9-22,22-22c8.3,0,15.9,4.8,19.6,12.1
		c0.5,1,0,2.3-1.1,2.7l0,0c-1,0.4-2-0.1-2.5-1c-3.3-6.5-10-10.4-17.5-9.8c-6.9,0.5-12.9,5.1-15.3,11.5c-3,8-0.1,16.5,6.3,21.1
		C31.3,89.2,31.6,90.3,31,91.2L31,91.2z"/>
	<path class="st2" d="M95.4,52c-0.2,0-0.4,0-0.6,0c-2-13-13.4-22.8-26.7-22.8C54.9,29.1,43.5,39,41.5,52c-0.2,0-0.4,0-0.6,0
		c-12.1,0-22,9.9-22,22c0,7.1,3.5,13.8,9.3,17.9c1,0.7,2.3,0.4,2.9-0.7l0,0c0.5-0.9,0.2-2-0.6-2.6c-4.7-3.4-7.5-8.8-7.5-14.6
		c0-9.9,8.1-18,18-18c0.6,0,1.3,0,2.1,0.1l2.1,0.2l0.2-2.1c0.9-11.9,11-21.1,22.9-21.1c11.9,0,22,9.3,22.9,21.1l0.2,2.1l2.1-0.2
		c2.9-0.3,4.7,0,7.3,0.8c7.5,2.4,12.8,9.3,12.8,17.1c0,8-5.3,14.7-12.5,17c-0.8,0.3-1.4,1-1.4,1.9l0,0c0,1.4,1.3,2.3,2.6,1.9
		c8.9-2.8,15.3-11.2,15.3-20.9C117.4,61.8,107.5,52,95.4,52z"/>
	<path class="st2" d="M30,103.9L30,103.9c0.8,0.8,2,0.8,2.8,0L49,87.6c0.8-0.8,0.8-2,0-2.8h0c-0.8-0.8-2-0.8-2.8,0L30,101
		C29.2,101.8,29.2,103.1,30,103.9z"/>
	<path class="st2" d="M56.2,89.9L56.2,89.9c0.8,0.8,2,0.8,2.8,0l9.5-9.5c0.8-0.8,0.8-2,0-2.8v0c-0.8-0.8-2-0.8-2.8,0L56.2,87
		C55.4,87.8,55.4,89.1,56.2,89.9z"/>
	<path class="st2" d="M77.8,87.3L77.8,87.3c0.8,0.8,2,0.8,2.8,0l9.8-9.8c0.8-0.8,0.8-2,0-2.8l0,0c-0.8-0.8-2-0.8-2.8,0l-9.8,9.8
		C77,85.3,77,86.6,77.8,87.3z"/>
	<path class="st2" d="M75.5,107.3L75.5,107.3c0.8,0.8,2,0.8,2.8,0L93.6,92c0.8-0.8,0.8-2,0-2.8v0c-0.8-0.8-2-0.8-2.8,0l-15.3,15.3
		C74.7,105.3,74.7,106.5,75.5,107.3z"/>
	<path class="st2" d="M57.9,107.2L57.9,107.2c0.8,0.8,2,0.8,2.8,0l9.7-9.7c0.8-0.8,0.8-2,0-2.8l0,0c-0.8-0.8-2-0.8-2.8,0l-9.7,9.7
		C57.2,105.1,57.2,106.4,57.9,107.2z"/>
</g>
</svg>
