<?xml version="1.0" encoding="utf-8"?>
<!-- Generator: Adobe Illustrator 23.0.0, SVG Export Plug-In . SVG Version: 6.00 Build 0)  -->
<svg version="1.1" id="图层_1" xmlns="http://www.w3.org/2000/svg" xmlns:xlink="http://www.w3.org/1999/xlink" x="0px" y="0px"
	 viewBox="0 0 120 120" style="enable-background:new 0 0 120 120;" xml:space="preserve">
<style type="text/css">
	.st0{fill:url(#SVGID_1_);}
	.st1{fill:#FFCD4B;}
	.st2{fill:none;stroke:#2F2F2F;stroke-width:4;stroke-linecap:round;stroke-miterlimit:10;}
</style>
<g>
	<linearGradient id="SVGID_1_" gradientUnits="userSpaceOnUse" x1="41.8166" y1="86.7385" x2="41.8166" y2="34.7385">
		<stop  offset="0" style="stop-color:#FFC14C"/>
		<stop  offset="1" style="stop-color:#FFCD4B"/>
	</linearGradient>
	<circle class="st0" cx="41.8" cy="60.7" r="26"/>
	<circle class="st1" cx="41.8" cy="25" r="3"/>
	<circle class="st1" cx="67.6" cy="35.4" r="3"/>
	<circle class="st1" cx="16.7" cy="86.5" r="3"/>
	<circle class="st1" cx="6.2" cy="60.7" r="3"/>
	<circle class="st1" cx="16.7" cy="35.4" r="3"/>
	<g>
		<path class="st2" d="M66.8,80c5,0,5,4,10,4c5,0,5-4,10-4c5,0,5,4,10,4c5,0,5-4,10-4c5,0,5,4,10,4"/>
	</g>
	<g>
		<path class="st2" d="M38.3,96c5,0,5,4,10,4c5,0,5-4,10-4c5,0,5,4,10,4c5,0,5-4,10-4c5,0,5,4,10,4"/>
	</g>
	<g>
		<path class="st2" d="M56.4,64.1c6.2,0,6.2,4,12.5,4c6.2,0,6.2-4,12.4-4c6.2,0,6.2,4,12.5,4"/>
	</g>
</g>
</svg>
