<?xml version="1.0" encoding="utf-8"?>
<!-- Generator: Adobe Illustrator 23.0.0, SVG Export Plug-In . SVG Version: 6.00 Build 0)  -->
<svg version="1.1" id="图层_1" xmlns="http://www.w3.org/2000/svg" xmlns:xlink="http://www.w3.org/1999/xlink" x="0px" y="0px"
	 viewBox="0 0 120 120" style="enable-background:new 0 0 120 120;" xml:space="preserve">
<style type="text/css">
	.st0{fill:#2F2F2F;}
</style>
<g>
	<path class="st0" d="M106.3,79.1h-22c-1.1,0-2-0.9-2-2v0c0-1.1,0.9-2,2-2h22c1.1,0,2,0.9,2,2v0C108.3,78.2,107.4,79.1,106.3,79.1z"
		/>
	<path class="st0" d="M56.3,65h-26c-1.1,0-2-0.9-2-2v0c0-1.1,0.9-2,2-2h26c1.1,0,2,0.9,2,2v0C58.3,64.1,57.4,65,56.3,65z"/>
	<path class="st0" d="M44.2,24.9c-6.6-0.3-12.2,4.4-13.3,10.6c-0.2,1.2,0.7,2.4,2,2.4c0.9,0,1.8-0.7,2-1.6c0.8-4.3,4.6-7.5,9.1-7.4
		c4.7,0.1,8.6,4,8.7,8.7c0.1,5.1-3.9,9.3-9,9.3h-30c-1.1,0-2,0.9-2,2s0.9,2,2,2h30c7.3,0,13.3-6.1,13-13.5
		C56.4,30.7,50.9,25.2,44.2,24.9z"/>
	<path class="st0" d="M85.2,35c-7.8-0.4-14.4,5.3-15.5,12.7c-0.2,1.2,0.7,2.3,2,2.3c1,0,1.8-0.7,2-1.6c0.9-5.9,6.6-10.4,13-9.2
		c4.4,0.8,7.9,4.3,8.7,8.7c1.3,7-4.1,13.1-10.8,13.1h-14c-1.1,0-2,0.9-2,2c0,1.1,0.9,2,2,2h14c8.5,0,15.4-7.1,15-15.7
		C99.1,41.6,92.8,35.4,85.2,35z"/>
	<path class="st0" d="M63.1,75.1L63.1,75.1l-46,0c-1.1,0-2,0.9-2,2v0c0,1.1,0.9,2,2,2h45.8c3,0,5.8,2.2,6.2,5.2
		c0.5,3.7-2.4,6.8-5.9,6.8c-2.8,0-5.1-1.9-5.8-4.5c-0.2-0.9-1-1.5-1.9-1.5h0c-1.3,0-2.3,1.2-2,2.4c1.1,4.4,5.2,7.7,10,7.6
		c5.2-0.1,9.6-4.5,9.7-9.7C73.2,79.7,68.7,75.1,63.1,75.1z"/>
	<path class="st0" d="M63.1,85.1"/>
</g>
</svg>
