<?xml version="1.0" encoding="utf-8"?>
<!-- Generator: Adobe Illustrator 23.0.0, SVG Export Plug-In . SVG Version: 6.00 Build 0)  -->
<svg version="1.1" id="图层_1" xmlns="http://www.w3.org/2000/svg" xmlns:xlink="http://www.w3.org/1999/xlink" x="0px" y="0px"
	 viewBox="0 0 120 120" style="enable-background:new 0 0 120 120;" xml:space="preserve">
<style type="text/css">
	.st0{fill:#4FA6FF;}
	.st1{fill:#E8E8F2;}
	.st2{fill:#2F2F2F;}
</style>
<g>
	<g>
		<path class="st0" d="M82.6,84.7h-12c-1.1,0-2-0.9-2-2v0c0-1.1,0.9-2,2-2h12c1.1,0,2,0.9,2,2v0C84.6,83.8,83.7,84.7,82.6,84.7z"/>
		<path class="st0" d="M74.6,88.7v-12c0-1.1,0.9-2,2-2l0,0c1.1,0,2,0.9,2,2v12c0,1.1-0.9,2-2,2l0,0C75.4,90.7,74.6,89.8,74.6,88.7z"
			/>
	</g>
	<g>
		<path class="st0" d="M66.8,100.4l-12,0c-1.1,0-2-0.9-2-2v0c0-1.1,0.9-2,2-2h12c1.1,0,2,0.9,2,2v0C68.8,99.5,67.9,100.4,66.8,100.4
			z"/>
		<path class="st0" d="M58.8,104.4v-12c0-1.1,0.9-2,2-2h0c1.1,0,2,0.9,2,2v12c0,1.1-0.9,2-2,2h0C59.7,106.4,58.8,105.5,58.8,104.4z"
			/>
	</g>
	<g>
		<path class="st0" d="M95.1,100.4l-12,0c-1.1,0-2-0.9-2-2v0c0-1.1,0.9-2,2-2h12c1.1,0,2,0.9,2,2v0C97.1,99.5,96.2,100.4,95.1,100.4
			z"/>
		<path class="st0" d="M87.1,104.4v-12c0-1.1,0.9-2,2-2h0c1.1,0,2,0.9,2,2v12c0,1.1-0.9,2-2,2h0C88,106.4,87.1,105.5,87.1,104.4z"/>
	</g>
	<path class="st1" d="M102.9,32.5h-1.9c-0.9-10.6-9.8-18.9-20.6-18.9s-19.7,8.3-20.6,18.9h-1.9c-9.1,0-16.6,7.4-16.6,16.6v0
		c0,9.1,7.4,16.6,16.6,16.6h45.1c9.1,0,16.6-7.4,16.6-16.6v0C119.4,39.9,112,32.5,102.9,32.5z"/>
	<path class="st2" d="M11.6,82.4C4.8,78.4,0.6,71.1,0.6,63.3c0-12.1,9.9-22,22-22c8.3,0,15.9,4.8,19.6,12.1c0.5,1,0,2.3-1.1,2.7l0,0
		c-1,0.4-2-0.1-2.5-1c-3-6.1-9.2-9.9-16-9.9c-9.9,0-18,8.1-18,18c0,6.4,3.5,12.4,9.1,15.6L11.6,82.4z"/>
	<path class="st2" d="M38.5,78.1L27.2,89.4c-0.8,0.8-2,0.8-2.8,0h0c-0.8-0.8-0.8-2,0-2.8l11.3-11.3c0.8-0.8,2-0.8,2.8,0h0
		C39.3,76,39.3,77.3,38.5,78.1z"/>
	<path class="st2" d="M56.6,78.1L45.3,89.4c-0.8,0.8-2,0.8-2.8,0l0,0c-0.8-0.8-0.8-2,0-2.8l11.3-11.3c0.8-0.8,2-0.8,2.8,0l0,0
		C57.4,76,57.4,77.3,56.6,78.1z"/>
	<path class="st2" d="M38.5,96.2l-7.1,7.1c-0.8,0.8-2,0.8-2.8,0l0,0c-0.8-0.8-0.8-2,0-2.8l7.1-7.1c0.8-0.8,2-0.8,2.8,0h0
		C39.3,94.1,39.3,95.4,38.5,96.2z"/>
	<path class="st2" d="M99,61.4c-1-11.5-10.9-20.1-22.4-20.1h-0.1c-2-12.9-13.4-22.8-26.7-22.8c-13.3,0-24.7,9.9-26.7,22.8h0
		c-11.9,0-22,9.2-22.5,21.1C0.2,72.8,7,81.7,16.4,84.4c1.3,0.4,2.6-0.6,2.6-2v0c0-0.9-0.6-1.7-1.5-2c-7.2-2.2-12.7-8.6-13-16.5
		c-0.4-10.2,7.8-18.7,18-18.7h4.2l0.2-1.8c1-11.8,11.1-21,22.9-21c11.8,0,21.9,9.2,22.9,21l0.2,1.8h3.7c9.7,0,18,7.5,18.4,17.2
		c0.2,4.4-1.2,8.5-3.7,11.7c-0.7,0.9-0.6,2.3,0.4,2.9c0.9,0.6,2.1,0.4,2.7-0.4C97.7,72.6,99.5,67.2,99,61.4z"/>
</g>
</svg>
