<?xml version="1.0" encoding="utf-8"?>
<!-- Generator: Adobe Illustrator 23.0.0, SVG Export Plug-In . SVG Version: 6.00 Build 0)  -->
<svg version="1.1" id="图层_1" xmlns="http://www.w3.org/2000/svg" xmlns:xlink="http://www.w3.org/1999/xlink" x="0px" y="0px"
	 viewBox="0 0 120 120" style="enable-background:new 0 0 120 120;" xml:space="preserve">
<style type="text/css">
	.st0{fill:#E8E8F2;}
	.st1{fill:#2F2F2F;}
	.st2{fill:url(#SVGID_1_);}
</style>
<g>
	<path class="st0" d="M102.9,34.2h-1.9c-0.9-10.6-9.8-18.9-20.6-18.9s-19.7,8.3-20.6,18.9h-1.9c-9.1,0-16.6,7.4-16.6,16.6v0
		c0,9.1,7.4,16.6,16.6,16.6h45.1c9.1,0,16.6-7.4,16.6-16.6v0C119.4,41.6,112,34.2,102.9,34.2z"/>
	<path class="st1" d="M11.6,84.1C4.8,80.1,0.6,72.8,0.6,65c0-12.1,9.9-22,22-22c8.3,0,15.9,4.8,19.6,12.1c0.5,1,0,2.3-1.1,2.7h0
		c-1,0.4-2-0.1-2.5-1c-3-6.1-9.2-9.9-16-9.9c-9.9,0-18,8.1-18,18c0,6.4,3.5,12.4,9.1,15.6L11.6,84.1z"/>
	<path class="st1" d="M86.7,86.1l-15.6,15.6c-0.8,0.8-2,0.8-2.8,0l0,0c-0.8-0.8-0.8-2,0-2.8l15.6-15.6c0.8-0.8,2-0.8,2.8,0l0,0
		C87.4,84.1,87.4,85.3,86.7,86.1z"/>
	<path class="st1" d="M59.5,73.8L48.2,85.1c-0.8,0.8-2,0.8-2.8,0l0,0c-0.8-0.8-0.8-2,0-2.8l11.3-11.3c0.8-0.8,2-0.8,2.8,0l0,0
		C60.3,71.7,60.3,73,59.5,73.8z"/>
	<linearGradient id="SVGID_1_" gradientUnits="userSpaceOnUse" x1="30.0925" y1="104.7228" x2="30.0925" y2="73.3232">
		<stop  offset="0" style="stop-color:#FF6D55"/>
		<stop  offset="1" style="stop-color:#FF8D56"/>
	</linearGradient>
	<path class="st2" d="M38.8,88.6c0-0.1,0-0.1-0.1-0.2c0-0.1,0-0.1-0.1-0.2c0-0.1-0.1-0.1-0.1-0.2c0-0.1-0.1-0.1-0.1-0.2
		c-0.1-0.2-0.3-0.4-0.6-0.6c0,0-0.1-0.1-0.2-0.1c-0.1,0-0.1-0.1-0.2-0.1c-0.1,0-0.1,0-0.2-0.1c-0.1,0-0.1,0-0.2,0
		c-0.1,0-0.3,0-0.4,0h-8.6l10.3-10.3c0.8-0.8,0.8-2,0-2.8c-0.8-0.8-2.1-0.8-2.8,0L22,87.6c0,0,0,0,0,0c-0.1,0.1-0.2,0.2-0.2,0.3
		c0,0.1-0.1,0.1-0.1,0.2c0,0.1-0.1,0.1-0.1,0.2c0,0.1,0,0.1-0.1,0.2c0,0.1,0,0.1,0,0.2c0,0.1,0,0.3,0,0.4l0,0c0,0,0,0,0,0
		c0,0.1,0,0.3,0,0.4c0,0.1,0,0.1,0.1,0.2c0,0.1,0,0.1,0.1,0.2c0,0.1,0.1,0.1,0.1,0.2c0,0.1,0.1,0.1,0.1,0.2c0.1,0.1,0.2,0.2,0.2,0.3
		c0,0,0,0,0,0c0,0,0,0,0,0c0.1,0.1,0.2,0.2,0.3,0.2c0,0,0.1,0.1,0.2,0.1c0.1,0,0.1,0.1,0.2,0.1c0.1,0,0.1,0,0.2,0.1
		c0.1,0,0.1,0,0.2,0.1c0.1,0,0.3,0,0.4,0H32l-10.3,10.3c-0.8,0.8-0.8,2,0,2.8s2,0.8,2.8,0l13.7-13.7c0.1-0.1,0.2-0.2,0.2-0.3
		c0,0,0.1-0.1,0.1-0.2c0-0.1,0.1-0.1,0.1-0.2c0-0.1,0-0.1,0.1-0.2c0-0.1,0-0.1,0.1-0.2c0-0.1,0-0.3,0-0.4c0,0,0,0,0,0l0,0
		C38.8,88.8,38.8,88.7,38.8,88.6z"/>
	<path class="st1" d="M77.6,73.8L66.3,85.1c-0.8,0.8-2,0.8-2.8,0v0c-0.8-0.8-0.8-2,0-2.8l11.3-11.3c0.8-0.8,2-0.8,2.8,0l0,0
		C78.4,71.7,78.4,73,77.6,73.8z"/>
	<path class="st1" d="M59.5,91.9l-11.3,11.3c-0.8,0.8-2,0.8-2.8,0h0c-0.8-0.8-0.8-2,0-2.8L56.7,89c0.8-0.8,2-0.8,2.8,0h0
		C60.3,89.8,60.3,91.1,59.5,91.9z"/>
	<path class="st1" d="M99,63.1C98,51.6,88.1,43,76.6,43h-0.1c-2-12.9-13.4-22.8-26.7-22.8C36.5,20.1,25.2,30,23.2,43h0
		C11.2,43,1.1,52.2,0.6,64C0.2,74.4,7,83.4,16.4,86.1c1.3,0.4,2.6-0.6,2.6-2v0c0-0.9-0.6-1.7-1.5-2c-7.2-2.2-12.7-8.6-13-16.5
		C4.2,55.4,12.4,47,22.6,47h4.2l0.2-1.8c1-11.8,11.1-21,22.9-21c11.8,0,21.9,9.2,22.9,21l0.2,1.8l3.7,0c9.7,0,18,7.5,18.4,17.2
		c0.2,4.4-1.2,8.5-3.7,11.7c-0.7,0.9-0.6,2.3,0.4,2.9c0.9,0.6,2.1,0.4,2.7-0.4C97.7,74.3,99.5,68.9,99,63.1z"/>
</g>
</svg>
