<?xml version="1.0" encoding="utf-8"?>
<!-- Generator: Adobe Illustrator 23.0.0, SVG Export Plug-In . SVG Version: 6.00 Build 0)  -->
<svg version="1.1" id="图层_1" xmlns="http://www.w3.org/2000/svg" xmlns:xlink="http://www.w3.org/1999/xlink" x="0px" y="0px"
	 viewBox="0 0 120 120" style="enable-background:new 0 0 120 120;" xml:space="preserve">
<style type="text/css">
	.st0{fill:url(#SVGID_1_);}
	.st1{fill:#FFCD4B;}
	.st2{fill:none;stroke:#2F2F2F;stroke-width:4;stroke-miterlimit:10;}
	.st3{fill:#2F2F2F;}
</style>
<g>
	<linearGradient id="SVGID_1_" gradientUnits="userSpaceOnUse" x1="36.4865" y1="75.8736" x2="36.4865" y2="29.8736">
		<stop  offset="0" style="stop-color:#FFC14C"/>
		<stop  offset="1" style="stop-color:#FFCD4B"/>
	</linearGradient>
	<circle class="st0" cx="36.5" cy="52.9" r="23"/>
	<circle class="st1" cx="24.4" cy="23.5" r="3"/>
	<circle class="st1" cx="48.9" cy="23.5" r="3"/>
	<circle class="st1" cx="6.9" cy="64.6" r="3"/>
	<circle class="st1" cx="7.2" cy="40.5" r="3"/>
	<path class="st2" d="M96.1,59.5h-2.3C92.7,46.7,82,36.7,68.9,36.7S45.1,46.7,44,59.5h-2.3c-11,0-20,9-20,20v0c0,11,9,20,20,20h54.5
		c11,0,20-9,20-20v0C116.1,68.5,107.2,59.5,96.1,59.5z"/>
	<path class="st3" d="M30.7,98.6c-6.8-3.9-11.1-11.2-11.1-19.1c0-12.1,9.9-22,22-22c8.3,0,15.9,4.8,19.6,12.1c0.5,1,0,2.3-1.1,2.7h0
		c-1,0.4-2-0.1-2.5-1c-3-6.1-9.2-9.9-16-9.9c-9.9,0-18,8.1-18,18c0,6.4,3.5,12.4,9.1,15.6L30.7,98.6z"/>
</g>
</svg>
