<?xml version="1.0" encoding="utf-8"?>
<!-- Generator: Adobe Illustrator 23.0.0, SVG Export Plug-In . SVG Version: 6.00 Build 0)  -->
<svg version="1.1" id="图层_1" xmlns="http://www.w3.org/2000/svg" xmlns:xlink="http://www.w3.org/1999/xlink" x="0px" y="0px"
	 viewBox="0 0 120 120" style="enable-background:new 0 0 120 120;" xml:space="preserve">
<style type="text/css">
	.st0{fill:#E8E8F2;}
	.st1{fill:#2F2F2F;}
	.st2{fill:#4FA6FF;}
</style>
<g>
	<path class="st0" d="M102.8,33.1h-1.9c-0.9-10.6-9.8-18.9-20.6-18.9s-19.7,8.3-20.6,18.9h-1.9c-9.1,0-16.6,7.4-16.6,16.6v0
		c0,9.1,7.4,16.6,16.6,16.6h45.1c9.1,0,16.6-7.4,16.6-16.6v0C119.3,40.5,111.9,33.1,102.8,33.1z"/>
	<g>
		<path class="st1" d="M76.6,85.9h-0.7c-1.1,0-2-0.9-2-2l0,0c0-1.1,0.9-2,2-2h0.8c9.7,0,18.1-7.6,18.4-17.3
			c0.4-10.2-7.8-18.7-18-18.7H73L72.8,44c-1-11.8-11.1-21-22.9-21C38.1,23,28,32.3,27,44l-0.2,1.8l-3.7,0c-9.7,0-18.1,7.6-18.4,17.3
			c-0.4,10.2,7.8,18.7,18,18.7h1.2c1.1,0,2,0.9,2,2l0,0c0,1.1-0.9,2-2,2h-0.7c-11.9,0-22.1-9.2-22.5-21.2
			c-0.5-12.5,9.6-22.8,22-22.8h0.6C25.3,28.9,36.6,19,49.9,19c13.3,0,24.7,9.9,26.7,22.8h0.6c12.4,0,22.5,10.3,22,22.8
			C98.7,76.6,88.5,85.9,76.6,85.9z"/>
		<path class="st1" d="M41.4,57.1c-1,0.4-2-0.1-2.5-1c-3-6.2-9.3-10.2-16.2-10.2c-7.6,0-14.4,4.8-16.9,11.9L2,56.4
			c3.1-8.7,11.4-14.6,20.7-14.6c8.5,0,16.2,5,19.9,12.6C43,55.5,42.5,56.7,41.4,57.1L41.4,57.1z"/>
		<path class="st2" d="M55.9,85.9h-12c-1.1,0-2-0.9-2-2l0,0c0-1.1,0.9-2,2-2h12c1.1,0,2,0.9,2,2l0,0C57.9,85,57,85.9,55.9,85.9z"/>
		<path class="st2" d="M47.9,89.9v-12c0-1.1,0.9-2,2-2h0c1.1,0,2,0.9,2,2v12c0,1.1-0.9,2-2,2h0C48.8,91.9,47.9,91,47.9,89.9z"/>
		<g>
			<path class="st2" d="M36.3,98.1h-12c-1.1,0-2-0.9-2-2v0c0-1.1,0.9-2,2-2h12c1.1,0,2,0.9,2,2v0C38.3,97.2,37.4,98.1,36.3,98.1z"/>
			<path class="st2" d="M28.3,102.1v-12c0-1.1,0.9-2,2-2h0c1.1,0,2,0.9,2,2v12c0,1.1-0.9,2-2,2h0C29.2,104.1,28.3,103.2,28.3,102.1z
				"/>
		</g>
		<g>
			<path class="st2" d="M73.7,99.8h-12c-1.1,0-2-0.9-2-2v0c0-1.1,0.9-2,2-2h12c1.1,0,2,0.9,2,2v0C75.7,98.9,74.8,99.8,73.7,99.8z"/>
			<path class="st2" d="M65.7,103.8v-12c0-1.1,0.9-2,2-2l0,0c1.1,0,2,0.9,2,2v12c0,1.1-0.9,2-2,2l0,0
				C66.6,105.8,65.7,104.9,65.7,103.8z"/>
		</g>
	</g>
</g>
</svg>
