<?xml version="1.0" encoding="utf-8"?>
<!-- Generator: Adobe Illustrator 23.0.0, SVG Export Plug-In . SVG Version: 6.00 Build 0)  -->
<svg version="1.1" id="图层_1" xmlns="http://www.w3.org/2000/svg" xmlns:xlink="http://www.w3.org/1999/xlink" x="0px" y="0px"
	 viewBox="0 0 120 120" style="enable-background:new 0 0 120 120;" xml:space="preserve">
<style type="text/css">
	.st0{fill:#E8E8F2;}
	.st1{fill:none;stroke:#2F2F2F;stroke-width:4;stroke-miterlimit:10;}
	.st2{fill:#2F2F2F;}
</style>
<g>
	<path class="st0" d="M102.9,44h-1.9c-0.9-10.6-9.8-18.9-20.6-18.9S60.6,33.5,59.7,44h-1.9c-9.1,0-16.6,7.4-16.6,16.6v0
		c0,9.1,7.4,16.6,16.6,16.6h45.1c9.1,0,16.6-7.4,16.6-16.6v0C119.4,51.5,112,44,102.9,44z"/>
	<path class="st1" d="M77.1,54.8h-2.3C73.6,42.1,62.9,32,49.8,32S26,42.1,24.9,54.8h-2.3c-11,0-20,9-20,20v0c0,11,9,20,20,20h54.5
		c11,0,20-9,20-20v0C97.1,63.8,88.1,54.8,77.1,54.8z"/>
	<path class="st2" d="M11.6,93.9C4.8,90,0.6,82.7,0.6,74.8c0-12.1,9.9-22,22-22c8.3,0,15.9,4.8,19.6,12.1c0.5,1,0,2.3-1.1,2.7h0
		c-1,0.4-2-0.1-2.5-1c-3-6.1-9.2-9.9-16-9.9c-9.9,0-18,8.1-18,18c0,6.4,3.5,12.4,9.1,15.6L11.6,93.9z"/>
</g>
</svg>
