<?xml version="1.0" encoding="utf-8"?>
<!-- Generator: Adobe Illustrator 23.0.0, SVG Export Plug-In . SVG Version: 6.00 Build 0)  -->
<svg version="1.1" id="图层_1" xmlns="http://www.w3.org/2000/svg" xmlns:xlink="http://www.w3.org/1999/xlink" x="0px" y="0px"
	 viewBox="0 0 120 120" style="enable-background:new 0 0 120 120;" xml:space="preserve">
<style type="text/css">
	.st0{fill:url(#SVGID_1_);}
	.st1{fill:#9D7AFF;}
	.st2{fill:#2F2F2F;}
</style>
<g>
	<linearGradient id="SVGID_1_" gradientUnits="userSpaceOnUse" x1="57.7065" y1="91.8179" x2="57.7065" y2="27.8179">
		<stop  offset="0" style="stop-color:#865CFF"/>
		<stop  offset="1" style="stop-color:#B89FFF"/>
	</linearGradient>
	<path class="st0" d="M70.5,55.8C70.5,47.3,75,40,81.8,36c-5.7-5.1-13.1-8.1-21.3-8.1c-17.7,0-32,14.3-32,32c0,17.7,14.3,32,32,32
		c11,0,20.7-5.5,26.5-14C77.4,75,70.5,66.2,70.5,55.8z"/>
	<path class="st1" d="M101.7,41.2L101.7,41.2c-1.7,0-3-1.3-3-3v0c0-1.7,1.3-3,3-3l0,0c1.7,0,3,1.3,3,3v0
		C104.7,39.9,103.4,41.2,101.7,41.2z"/>
	<path class="st1" d="M86.8,98.2L86.8,98.2c-1.7,0-3-1.3-3-3v0c0-1.7,1.3-3,3-3h0c1.7,0,3,1.3,3,3v0C89.8,96.8,88.5,98.2,86.8,98.2z
		"/>
	<path class="st1" d="M31.7,98.1L31.7,98.1c-1.7,0-3-1.3-3-3v0c0-1.7,1.3-3,3-3h0c1.7,0,3,1.3,3,3v0C34.7,96.8,33.4,98.1,31.7,98.1z
		"/>
	<path class="st2" d="M92.1,62.3L92.1,62.3c-1.7,0-3-1.3-3-3v0c0-1.7,1.3-3,3-3h0c1.7,0,3,1.3,3,3v0C95.1,61,93.8,62.3,92.1,62.3z"
		/>
	<path class="st2" d="M18.3,77.8L18.3,77.8c-1.7,0-3-1.3-3-3v0c0-1.7,1.3-3,3-3h0c1.7,0,3,1.3,3,3v0C21.3,76.4,19.9,77.8,18.3,77.8z
		"/>
	<path class="st2" d="M35.3,27.8L35.3,27.8c-1.7,0-3-1.3-3-3v0c0-1.7,1.3-3,3-3h0c1.7,0,3,1.3,3,3v0C38.3,26.5,36.9,27.8,35.3,27.8z
		"/>
</g>
</svg>
