<?xml version="1.0" encoding="utf-8"?>
<!-- Generator: Adobe Illustrator 23.0.0, SVG Export Plug-In . SVG Version: 6.00 Build 0)  -->
<svg version="1.1" id="图层_1" xmlns="http://www.w3.org/2000/svg" xmlns:xlink="http://www.w3.org/1999/xlink" x="0px" y="0px"
	 viewBox="0 0 120 120" style="enable-background:new 0 0 120 120;" xml:space="preserve">
<style type="text/css">
	.st0{fill:url(#SVGID_1_);}
	.st1{fill:none;stroke:#2F2F2F;stroke-width:4;stroke-miterlimit:10;}
	.st2{fill:#2F2F2F;}
	.st3{fill:#9D7AFF;}
</style>
<g>
	<linearGradient id="SVGID_1_" gradientUnits="userSpaceOnUse" x1="89.8859" y1="71.2661" x2="89.8859" y2="21.2661">
		<stop  offset="0" style="stop-color:#865CFF"/>
		<stop  offset="1" style="stop-color:#B89FFF"/>
	</linearGradient>
	<path class="st0" d="M112.2,51c-9.9,0-18-8.1-18-18c0-4,1.3-7.6,3.5-10.6c-2.4-0.8-5-1.2-7.6-1.2c-13.8,0-25,11.2-25,25
		c0,13.8,11.2,25,25,25c12.2,0,22.4-8.8,24.6-20.4C113.9,51,113.1,51,112.2,51z"/>
	<path class="st1" d="M84,58.7h-2.3c-1.1-12.8-11.8-22.8-24.9-22.8S33,45.9,31.9,58.7h-2.3c-11,0-20,9-20,20v0c0,11,9,20,20,20H84
		c11,0,20-9,20-20v0C104,67.7,95.1,58.7,84,58.7z"/>
	<path class="st2" d="M18.6,97.8C11.8,93.9,7.5,86.6,7.5,78.7c0-12.1,9.9-22,22-22c8.3,0,15.9,4.8,19.6,12.1c0.5,1,0,2.3-1.1,2.7h0
		c-1,0.4-2-0.1-2.5-1c-3-6.1-9.2-9.9-16-9.9c-9.9,0-18,8.1-18,18c0,6.4,3.5,12.4,9.1,15.6L18.6,97.8z"/>
	<circle class="st3" cx="28.1" cy="32.5" r="3"/>
	<circle class="st2" cx="20.9" cy="46.9" r="3"/>
	<circle class="st3" cx="8.3" cy="44.8" r="3"/>
</g>
</svg>
