<?xml version="1.0" standalone="no"?><!DOCTYPE svg PUBLIC "-//W3C//DTD SVG 1.1//EN" "http://www.w3.org/Graphics/SVG/1.1/DTD/svg11.dtd"><svg t="1577677008812" class="icon" viewBox="0 0 1024 1024" version="1.1" xmlns="http://www.w3.org/2000/svg" p-id="28266" xmlns:xlink="http://www.w3.org/1999/xlink" width="24" height="24"><defs><style type="text/css"></style></defs><path d="M619.48641 921.31209c-40.947204 0-76.776007 0-102.36801 5.1184C486.407998 921.31209 450.579194 921.31209 409.63199 921.31209c-112.604811 0-214.972821 46.065604-214.972821 76.776007s87.012808 25.592002 199.61762 25.592003c46.065604 0 87.012808-5.1184 122.841611-15.355202 35.828803 5.1184 76.776007 10.236801 117.723212 10.236801 112.604811 0 199.617619 5.1184 199.617619-25.592002s-102.36801-71.657607-214.972821-71.657607z" fill="#EFAB1B" p-id="28267"></path><path d="M906.116838 609.089659c-20.473602-56.302405-46.065604-117.723211-71.657607-174.025617v-40.947204C834.459231 174.025617 721.85442 0 512 0S189.540769 174.025617 189.540769 394.116838v40.947204c-25.592002 56.302405-51.184005 117.723211-71.657607 174.025617-46.065604 122.841612-46.065604 230.328022-30.710403 240.564824 10.236801 5.1184 51.184005-35.828803 92.131209-102.36801C204.89597 900.838488 312.382381 1023.6801 512 1023.6801s307.10403-117.723211 332.696032-281.512028c35.828803 66.539206 76.776007 107.48641 87.012809 102.36801 20.473602-5.1184 15.355201-117.723211-25.592003-235.446423z" fill="#040000" p-id="28268"></path><path d="M430.105592 127.960012c-30.710403 0-56.302405 35.828803-56.302405 81.894408 0 46.065604 25.592002 81.894408 56.302405 81.894408 30.710403 0 56.302405-35.828803 56.302406-81.894408 0-46.065604-25.592002-81.894408-56.302406-81.894408z m174.025617 0c-30.710403 0-56.302405 35.828803-56.302406 76.776008 0 46.065604 25.592002 81.894408 56.302406 81.894408 30.710403 0 56.302405-35.828803 56.302405-76.776008 0-46.065604-25.592002-81.894408-56.302405-81.894408z m117.723211 358.288035c-61.420806 10.236801-133.078413 15.355201-204.73602 15.355202s-143.315214-5.1184-204.736019-15.355202c-40.947204 51.184005-46.065604 127.960012-46.065605 209.854421 0 153.552015 87.012808 281.512027 250.801624 281.512027s250.801624-127.960012 250.801625-281.512027c0-81.894408-5.1184-158.670415-46.065605-209.854421z" fill="#FFFFFF" p-id="28269"></path><path d="M517.1184 317.340831c-107.48641 0-199.617619 20.473602-199.617619 40.947204 0 15.355201 117.723211 66.539206 199.617619 66.539206S716.73602 373.643236 716.73602 358.288035c-5.1184-20.473602-92.131209-40.947204-199.61762-40.947204z" fill="#EFAB1B" p-id="28270"></path><path d="M829.340831 429.945642c-81.894408 25.592002-194.499219 40.947204-317.340831 40.947204-127.960012 0-240.564823-15.355201-317.340831-40.947204-15.355201 35.828803-30.710403 76.776007-46.065604 112.604811 51.184005 15.355201 102.36801 30.710403 163.788816 40.947204v148.433614s40.947204 10.236801 81.894408 10.236801c30.710403 0 56.302405-5.1184 56.302405-5.1184v-138.196814H512c138.196813 0 266.156826-20.473602 368.524836-51.184005-15.355201-40.947204-30.710403-76.776007-51.184005-117.723211z" fill="#DB2920" p-id="28271"></path><path d="M450.579194 184.262418c-15.355201 0-25.592002 15.355201-25.592002 30.710403s10.236801 30.710403 25.592002 30.710403 25.592002-15.355201 25.592003-30.710403c-5.1184-15.355201-15.355201-30.710403-25.592003-30.710403z m179.144017 20.473602s-10.236801-10.236801-35.828803-10.236801c-25.592002 5.1184-35.828803 15.355201-35.828804 20.473602 0 0-5.1184 10.236801 0 15.355201 5.1184 5.1184 10.236801-5.1184 10.236801-5.1184s10.236801-15.355201 25.592003-15.355202 25.592002 5.1184 25.592002 5.118401 5.1184 5.1184 10.236801 0 0-10.236801 0-10.236801z" fill="#040000" p-id="28272"></path></svg>