<?xml version="1.0" standalone="no"?><!DOCTYPE svg PUBLIC "-//W3C//DTD SVG 1.1//EN" "http://www.w3.org/Graphics/SVG/1.1/DTD/svg11.dtd"><svg t="1577684976268" class="icon" viewBox="0 0 1024 1024" version="1.1" xmlns="http://www.w3.org/2000/svg" p-id="43274" width="24" height="24" xmlns:xlink="http://www.w3.org/1999/xlink"><defs><style type="text/css"></style></defs><path d="M815.199467 591.552a20.949333 20.949333 0 0 1 4.266666 14.933333l-38.4 239.168c-2.88 15.701333-11.434667 19.2-25.6 10.666667l-143.082666-96.106667a134.976 134.976 0 0 1-98.133334 42.666667 131.861333 131.861333 0 0 1-51.2-10.666667 153.130667 153.130667 0 0 1-38.4-21.333333l-12.8-10.666667-143.082666 96.106667c-12.8 8.533333-20.672 5.013333-23.466667-10.666667l-40.533333-239.168a20.736 20.736 0 0 1 4.266666-14.933333l102.4-104.64a771.626667 771.626667 0 0 1 20.288-179.392 544 544 0 0 1 50.176-138.816 899.754667 899.754667 0 0 1 59.733334-93.866667 396.8 396.8 0 0 1 49.066666-57.6l21.333334-17.066666c5.674667 4.266667 12.8 10.346667 21.333333 18.154666a626.56 626.56 0 0 1 48.064 55.466667 557.184 557.184 0 0 1 61.866667 96 666.602667 666.602667 0 0 1 48.042666 137.749333 738.432 738.432 0 0 1 21.333334 179.392zM511.946133 867.029333a276.202667 276.202667 0 0 0 91.733334-23.466666q23.466667-8.533333 23.466666 14.933333l-8.533333 108.8a9.322667 9.322667 0 0 1-4.266667 7.488 5.909333 5.909333 0 0 1-8.533333-1.066667l-32-23.466666c-5.696-2.858667-9.28-2.133333-10.666667 2.133333l-44.8 68.266667a8.021333 8.021333 0 0 1-12.8 0l-44.8-68.266667q-4.266667-6.4-12.8-2.133333l-29.866666 23.466666a5.930667 5.930667 0 0 1-8.533334 1.066667 9.237333 9.237333 0 0 1-4.266666-7.488l-8.533334-108.8q0-23.466667 23.466667-14.933333a260.928 260.928 0 0 0 91.733333 23.466666z m-45.909333-510.4a60.352 60.352 0 0 0 45.909333 19.2 62.144 62.144 0 0 0 46.933334-20.288 69.653333 69.653333 0 0 0 0-96 62.293333 62.293333 0 0 0-46.933334-20.288 60.352 60.352 0 0 0-45.909333 19.2 75.498667 75.498667 0 0 0 0 98.133334z" fill="#1A1311" p-id="43275"></path></svg>