<?xml version="1.0" encoding="utf-8"?>
<!-- Generator: Adobe Illustrator 21.0.0, SVG Export Plug-In . SVG Version: 6.00 Build 0)  -->
<svg version="1.1" id="图层_1" xmlns="http://www.w3.org/2000/svg" xmlns:xlink="http://www.w3.org/1999/xlink" x="0px" y="0px"
	 viewBox="0 0 44 44" style="enable-background:new 0 0 44 44;" xml:space="preserve">
<g>
	<path d="M22,5l17,13l0,21l-9,0V27c0-4.4-3.6-8-8-8c-0.3,0-0.5,0-0.8,0c-4.1,0.4-7.2,4-7.2,8.2L14,39l-9,0l0-21L22,5 M22,2
		c-0.6,0-1.3,0.2-1.8,0.6l-17,13C2.4,16.2,2,17.1,2,18v21c0,1.7,1.3,3,3,3h9c1.7,0,3-1.3,3-3V27.2c0-2.6,1.9-4.9,4.5-5.2
		c0.2,0,0.3,0,0.5,0c2.8,0,5,2.2,5,5v12c0,1.7,1.3,3,3,3h9c1.7,0,3-1.3,3-3V18c0-0.9-0.4-1.8-1.2-2.4l-17-13C23.3,2.2,22.6,2,22,2
		L22,2z"/>
</g>
</svg>
