<?xml version="1.0" encoding="utf-8"?>
<!-- Generator: Adobe Illustrator 21.0.0, SVG Export Plug-In . SVG Version: 6.00 Build 0)  -->
<svg version="1.1" id="图层_1" xmlns="http://www.w3.org/2000/svg" xmlns:xlink="http://www.w3.org/1999/xlink" x="0px" y="0px"
	 viewBox="0 0 44 44" style="enable-background:new 0 0 44 44;" xml:space="preserve">
<g>
	<path d="M23,5L23,5l0,34L5,39L5,5H23 M23,2H5C3.3,2,2,3.3,2,5v34c0,1.7,1.3,3,3,3h21V5C26,3.3,24.7,2,23,2L23,2z"/>
</g>
<g>
	<path d="M18.5,14h-9C8.7,14,8,13.3,8,12.5v0C8,11.7,8.7,11,9.5,11h9c0.8,0,1.5,0.7,1.5,1.5v0C20,13.3,19.3,14,18.5,14z"/>
</g>
<g>
	<path d="M18.5,23h-9C8.7,23,8,22.3,8,21.5v0C8,20.7,8.7,20,9.5,20h9c0.8,0,1.5,0.7,1.5,1.5v0C20,22.3,19.3,23,18.5,23z"/>
</g>
<g>
	<path d="M26,13.4c3.9,2.2,8.3,3.8,13,4.9L39,39H26V13.4 M23,8v34h16c1.7,0,3-1.3,3-3V18.3c0-1.4-1-2.6-2.3-2.9
		C33.3,13.9,27.6,11.4,23,8L23,8z"/>
</g>
</svg>
