<?xml version="1.0" encoding="utf-8"?>
<!-- Generator: Adobe Illustrator 21.0.0, SVG Export Plug-In . SVG Version: 6.00 Build 0)  -->
<svg version="1.1" id="图层_1" xmlns="http://www.w3.org/2000/svg" xmlns:xlink="http://www.w3.org/1999/xlink" x="0px" y="0px"
	 viewBox="0 0 44 44" style="enable-background:new 0 0 44 44;" xml:space="preserve">
<g>
	<path d="M22,5c3.9,0,7,3.1,7,7s-3.1,7-7,7s-7-3.1-7-7S18.1,5,22,5 M22,2c-5.5,0-10,4.5-10,10s4.5,10,10,10s10-4.5,10-10
		S27.5,2,22,2L22,2z"/>
</g>
<g>
	<path d="M22,28c5.9,0,11.6,1.2,17,3.7l0,7.3L5,39l0-7.3C10.4,29.2,16.1,28,22,28 M22,25c-6.5,0-12.7,1.4-18.2,3.9
		C2.7,29.4,2,30.5,2,31.7V39c0,1.7,1.3,3,3,3h34c1.7,0,3-1.3,3-3v-7.3c0-1.2-0.7-2.3-1.8-2.8C34.7,26.4,28.5,25,22,25L22,25z"/>
</g>
</svg>
