<?xml version="1.0" encoding="utf-8"?>
<!-- Generator: Adobe Illustrator 21.0.0, SVG Export Plug-In . SVG Version: 6.00 Build 0)  -->
<svg version="1.1" id="图层_1" xmlns="http://www.w3.org/2000/svg" xmlns:xlink="http://www.w3.org/1999/xlink" x="0px" y="0px"
	 viewBox="0 0 44 44" style="enable-background:new 0 0 44 44;" xml:space="preserve">
<g>
	<path d="M39,12v24H5V12H39 M39,9H5c-1.7,0-3,1.3-3,3v24c0,1.7,1.3,3,3,3h34c1.7,0,3-1.3,3-3V12C42,10.3,40.7,9,39,9L39,9z"/>
</g>
<g>
	<path d="M31,5L31,5l0,4H13l0-4H31 M31,2H13c-1.7,0-3,1.3-3,3v7h24V5C34,3.3,32.7,2,31,2L31,2z"/>
</g>
<g>
	<path d="M34,39h-3v1.5c0,0.8,0.7,1.5,1.5,1.5s1.5-0.7,1.5-1.5V39L34,39z"/>
</g>
<g>
	<path d="M28.5,17c-0.8,0-1.5,0.7-1.5,1.5v11c0,0.8,0.7,1.5,1.5,1.5s1.5-0.7,1.5-1.5v-11C30,17.7,29.3,17,28.5,17L28.5,17z"/>
</g>
<g>
	<path d="M15.5,17c-0.8,0-1.5,0.7-1.5,1.5v11c0,0.8,0.7,1.5,1.5,1.5s1.5-0.7,1.5-1.5v-11C17,17.7,16.3,17,15.5,17L15.5,17z"/>
</g>
<g>
	<path d="M13,39h-3v1.5c0,0.8,0.7,1.5,1.5,1.5s1.5-0.7,1.5-1.5V39L13,39z"/>
</g>
</svg>
