<?xml version="1.0" encoding="utf-8"?>
<!-- Generator: Adobe Illustrator 23.0.0, SVG Export Plug-In . SVG Version: 6.00 Build 0)  -->
<svg version="1.1" id="图层_1" xmlns="http://www.w3.org/2000/svg" xmlns:xlink="http://www.w3.org/1999/xlink" x="0px" y="0px"
	 viewBox="0 0 212 212" style="enable-background:new 0 0 212 212;" xml:space="preserve">
<style type="text/css">
	.st0{fill:#EE3D49;}
</style>
<path class="st0" d="M107.5,0L58.2,68.5v29.4h-6.4V68.5L2.5,0H107.5z M55,62l5.2-7.1L25.9,6.4h-11L55,62z M64.1,49.4l5.7-7.8
	L44.8,6.4H33.7L64.1,49.4z M73.6,36.2l5.7-7.9L63.8,6.4H52.6L73.6,36.2z M83.2,22.8l5.6-7.8l-6.1-8.7H71.6L83.2,22.8z M92.8,9.6
	l2.3-3.2h-4.6L92.8,9.6z"/>
<path class="st0" d="M109.9,212H0.1l54.5-98.1L109.9,212z M10.4,205.9h89.1l-5-8.8H15.2L10.4,205.9z M18.6,191.2h72.5l-4.9-8.8H23.5
	L18.6,191.2z M26.9,176.3h55.9l-4.9-8.8H31.7L26.9,176.3z M35.1,161.5h39.4l-4.9-8.7H39.9L35.1,161.5z M43.3,146.7h22.8l-4.9-8.8
	H48.1L43.3,146.7z M51.5,131.9h6.2l-3.1-5.5L51.5,131.9z"/>
<path class="st0" d="M162.2,0l43.5,43.8V0h6.3v50l0.1,0.1l-0.1,0.1v47.5h-47.8l-44-44V98h-6.3V0H162.2z M188.3,91.4h12.7l-80.9-80.9
	v12.8L188.3,91.4z M166.7,91.4h12.7l-59.3-59.3v12.8L166.7,91.4z M205.6,87.1V74.3l-68-68h-12.8L205.6,87.1z M205.6,65.4V52.6
	l-0.3-0.3l-45.7-46h-13.1L205.6,65.4z"/>
<path class="st0" d="M212,161.4c0.1,4-0.1,7.1-0.5,9.4c-0.5,2.7-1.2,5.3-2.1,7.9c-3.4,9.8-9.4,17.6-17.8,23.7
	c-8.5,6.1-18,9.1-28.5,9.1c-13.6,0-25.2-4.9-34.9-14.6c-9.6-9.7-14.4-21.4-14.2-35.1c0.2-13.2,5-24.5,14.4-33.9
	c9.4-9.4,20.6-14.2,33.8-14.4c11.6-0.2,21.9,3.3,31,10.4c9,7,14.8,16.2,17.5,27.3h-6.5c-2.4-8.8-7-16-14-21.7s-15-9-24.1-9.6v85.2
	c8.8-0.6,16.7-3.7,23.6-9.2s11.6-12.4,14.2-20.8c0.3-0.9,0.5-1.6,0.6-2.4c0.5-1.9,0.6-3.6,0.5-4.9h-27.7v-6.3H212z M129.5,136.3
	c-6,7.7-9,16.4-9,26.2s3,18.5,9,26.2V136.3z M135.8,195.2c2.8,2.3,5.7,4.2,9,5.8v-77.1c-3.2,1.6-6.2,3.5-9,5.8V195.2z M151.1,203.4
	c2.9,0.9,5.9,1.4,9,1.6v-85.2c-3.1,0.2-6,0.8-9,1.6V203.4z"/>
<path class="st0" d="M206,212c-3.3,0-6-2.7-6-6s2.7-6,6-6s6,2.7,6,6S209.3,212,206,212z M206,204c-1.1,0-2,0.9-2,2s0.9,2,2,2
	s2-0.9,2-2S207.1,204,206,204z"/>
</svg>
